{"glyphs":{"0":{"ha":910,"x_min":140,"x_max":932,"o":"m 358 -3 q 199 44 257 -3 q 140 185 140 90 q 144 240 140 211 l 231 782 q 328 966 249 901 q 524 1031 408 1031 l 722 1031 q 881 981 829 1031 q 932 842 932 931 q 928 782 932 814 l 842 240 q 748 58 822 118 q 557 -3 674 -3 l 358 -3 m 549 96 q 735 254 708 96 l 817 774 q 819 813 819 801 q 685 931 819 931 l 525 931 q 400 890 450 931 q 339 774 350 849 l 257 254 q 253 218 253 233 q 290 127 253 158 q 396 96 328 96 l 549 96 z "},"1":{"ha":503,"x_min":196,"x_max":543,"o":"m 417 918 l 196 856 l 208 926 l 443 1022 l 543 1022 l 382 0 l 271 0 l 417 918 z "},"2":{"ha":824,"x_min":75,"x_max":838,"o":"m 89 90 l 507 453 q 674 638 621 551 q 728 794 728 724 q 685 892 728 858 q 539 926 642 926 l 258 926 l 272 1011 q 328 1017 308 1014 q 421 1024 346 1018 q 567 1031 496 1031 q 838 821 838 1031 q 588 401 838 622 l 246 101 l 774 101 l 757 0 l 75 0 l 89 90 z "},"3":{"ha":813,"x_min":61,"x_max":826,"o":"m 429 -8 q 61 10 213 -8 l 75 90 l 410 90 q 567 126 507 90 q 643 249 626 161 q 657 340 657 329 q 608 433 657 403 q 488 468 558 464 l 238 478 l 251 553 l 511 564 q 700 700 679 571 q 713 801 713 781 q 666 898 713 865 q 533 931 619 931 l 242 931 l 256 1011 q 582 1031 401 1031 q 765 982 704 1031 q 826 839 826 933 q 810 703 826 807 q 742 572 796 618 q 632 515 689 526 q 724 461 682 503 q 767 347 767 419 q 758 281 767 329 l 751 233 q 649 53 733 115 q 429 -8 565 -8 z "},"4":{"ha":826,"x_min":88,"x_max":849,"o":"m 585 261 l 103 261 l 88 321 l 583 1022 l 696 1022 l 221 356 l 600 356 l 643 628 l 681 724 l 767 724 l 710 356 l 849 356 l 838 279 l 694 261 l 653 1 l 543 1 l 585 261 z "},"5":{"ha":875,"x_min":144,"x_max":915,"o":"m 468 -7 q 144 8 286 -7 l 160 93 l 486 93 q 643 138 579 93 q 718 261 707 183 l 736 372 q 740 413 740 396 q 703 502 740 471 q 592 533 665 533 l 482 533 q 377 505 418 533 q 317 418 336 476 l 211 418 l 336 1022 l 915 1022 l 899 922 l 425 922 l 350 557 q 416 608 372 588 q 518 628 460 628 l 639 628 q 798 577 743 628 q 853 442 853 526 q 850 392 853 425 l 825 240 q 710 56 806 119 q 468 -7 614 -7 z "},"6":{"ha":865,"x_min":160,"x_max":876,"o":"m 381 -4 q 215 60 271 -4 q 160 286 160 124 q 208 661 160 493 q 360 930 256 829 q 624 1031 464 1031 q 876 1015 744 1031 l 863 931 l 610 931 q 410 837 494 931 q 299 563 326 743 q 583 576 404 576 q 774 538 710 576 q 839 413 839 500 q 833 363 839 399 l 811 219 q 719 50 793 104 q 539 -4 646 -4 l 381 -4 m 533 96 q 648 127 603 96 q 704 236 693 158 l 721 344 q 725 381 725 365 q 681 461 725 440 q 543 482 636 482 l 285 482 q 268 296 268 369 q 304 140 268 185 q 414 96 340 96 l 533 96 z "},"7":{"ha":754,"x_min":199,"x_max":861,"o":"m 714 911 l 199 911 l 217 1022 l 835 1022 l 861 965 l 336 0 l 207 0 l 714 911 z "},"8":{"ha":893,"x_min":140,"x_max":894,"o":"m 357 -3 q 193 39 246 -3 q 140 153 140 81 q 142 177 140 164 q 144 197 144 190 l 168 347 q 226 460 179 415 q 326 518 274 506 q 240 651 240 558 q 244 699 240 674 l 263 817 q 349 979 281 929 q 521 1029 418 1029 l 719 1029 q 851 992 807 1029 q 894 876 894 956 q 889 815 894 847 l 871 699 q 828 595 863 644 q 740 532 793 546 q 815 485 790 522 q 840 396 840 447 q 839 372 840 382 q 836 356 838 363 l 811 200 q 554 -3 781 -3 l 357 -3 m 611 568 q 717 606 679 568 q 763 696 756 644 l 778 792 q 782 839 782 819 q 756 913 782 890 q 676 935 729 935 l 526 935 q 415 901 453 935 q 367 792 378 868 l 351 696 q 349 667 349 674 q 378 595 349 622 q 467 568 407 568 l 611 568 m 542 92 q 655 122 615 92 q 704 215 694 153 l 725 344 q 728 381 728 369 q 697 451 728 429 q 597 474 665 474 l 451 474 q 342 441 397 474 q 278 344 288 408 l 258 215 q 256 189 256 196 q 292 115 256 139 q 392 92 329 92 l 542 92 z "},"9":{"ha":865,"x_min":150,"x_max":867,"o":"m 646 1028 q 811 964 756 1028 q 867 738 867 900 q 819 363 867 531 q 667 94 771 194 q 403 -7 563 -7 q 150 8 282 -7 l 164 93 l 417 93 q 616 187 532 93 q 728 461 700 281 q 443 447 622 447 q 252 485 317 447 q 188 611 188 524 q 193 661 188 625 l 215 804 q 307 974 233 919 q 488 1028 381 1028 l 646 1028 m 493 928 q 378 897 424 928 q 322 788 333 865 l 306 679 q 301 643 301 658 q 346 563 301 583 q 483 542 390 542 l 742 542 q 758 728 758 654 q 722 883 758 839 q 613 928 686 928 l 493 928 z "},"\u0000":{"ha":0,"x_min":0,"x_max":0,"o":""},"\r":{"ha":332,"x_min":0,"x_max":0,"o":""}," ":{"ha":332,"x_min":0,"x_max":0,"o":""},"A":{"ha":939,"x_min":49,"x_max":892,"o":"m 567 1022 l 708 1022 l 892 0 l 776 0 l 724 292 l 311 292 l 163 0 l 49 0 l 567 1022 m 713 390 l 621 922 l 356 390 l 713 390 z "},"Á":{"ha":939,"x_min":49,"x_max":892,"o":"m 567 1022 l 708 1022 l 892 0 l 776 0 l 724 292 l 311 292 l 163 0 l 49 0 l 567 1022 m 713 390 l 621 922 l 356 390 l 713 390 m 763 1288 l 861 1288 l 663 1099 l 593 1099 l 763 1288 z "},"Ă":{"ha":939,"x_min":49,"x_max":892,"o":"m 567 1022 l 708 1022 l 892 0 l 776 0 l 724 292 l 311 292 l 163 0 l 49 0 l 567 1022 m 713 390 l 621 922 l 356 390 l 713 390 m 636 1096 q 524 1131 567 1096 q 482 1242 482 1165 q 483 1269 482 1257 q 486 1292 485 1282 l 539 1292 q 536 1256 536 1267 q 566 1174 536 1200 q 643 1149 596 1149 q 744 1183 701 1149 q 797 1292 786 1217 l 851 1292 q 777 1142 835 1188 q 636 1096 719 1096 z "},"Ắ":{"ha":939,"x_min":49,"x_max":892,"o":"m 567 1022 l 708 1022 l 892 0 l 776 0 l 724 292 l 311 292 l 163 0 l 49 0 l 567 1022 m 713 390 l 621 922 l 356 390 l 713 390 m 776 1440 l 875 1440 l 676 1251 l 607 1251 l 776 1440 m 625 1086 q 510 1116 554 1086 q 465 1208 465 1146 q 468 1242 465 1219 l 522 1242 q 521 1221 521 1233 q 551 1156 521 1176 q 631 1135 582 1135 q 726 1158 682 1135 q 779 1242 769 1182 l 833 1242 q 765 1122 821 1158 q 625 1086 708 1086 z "},"Ặ":{"ha":939,"x_min":49,"x_max":892,"o":"m 567 1022 l 708 1022 l 892 0 l 776 0 l 724 292 l 311 292 l 163 0 l 49 0 l 567 1022 m 713 390 l 621 922 l 356 390 l 713 390 m 636 1096 q 524 1131 567 1096 q 482 1242 482 1165 q 483 1269 482 1257 q 486 1292 485 1282 l 539 1292 q 536 1256 536 1267 q 566 1174 536 1200 q 643 1149 596 1149 q 744 1183 701 1149 q 797 1292 786 1217 l 851 1292 q 777 1142 835 1188 q 636 1096 719 1096 m 385 -292 q 367 -274 367 -292 l 367 -269 l 383 -161 q 408 -139 388 -139 l 460 -139 q 478 -157 478 -139 l 478 -161 l 461 -269 q 453 -285 460 -279 q 436 -292 446 -292 l 385 -292 z "},"Ằ":{"ha":939,"x_min":49,"x_max":892,"o":"m 567 1022 l 708 1022 l 892 0 l 776 0 l 724 292 l 311 292 l 163 0 l 49 0 l 567 1022 m 713 390 l 621 922 l 356 390 l 713 390 m 497 1440 l 592 1440 l 706 1251 l 642 1251 l 497 1440 m 625 1086 q 510 1116 554 1086 q 465 1208 465 1146 q 468 1242 465 1219 l 522 1242 q 521 1221 521 1233 q 551 1156 521 1176 q 631 1135 582 1135 q 779 1242 763 1135 l 833 1242 q 765 1122 821 1158 q 625 1086 708 1086 z "},"Ẳ":{"ha":939,"x_min":49,"x_max":892,"o":"m 567 1022 l 708 1022 l 892 0 l 776 0 l 724 292 l 311 292 l 163 0 l 49 0 l 567 1022 m 713 390 l 621 922 l 356 390 l 713 390 m 621 1244 q 714 1342 714 1271 q 657 1388 714 1388 q 606 1379 631 1388 l 613 1426 q 679 1435 639 1435 q 775 1350 775 1435 q 736 1257 775 1299 q 613 1193 697 1215 l 621 1244 m 625 1086 q 510 1116 554 1086 q 465 1208 465 1146 q 468 1242 465 1219 l 522 1242 q 521 1221 521 1233 q 551 1156 521 1176 q 631 1135 582 1135 q 727 1158 685 1135 q 779 1242 769 1181 l 833 1242 q 765 1122 821 1158 q 625 1086 708 1086 z "},"Ẵ":{"ha":939,"x_min":49,"x_max":915,"o":"m 567 1022 l 708 1022 l 892 0 l 776 0 l 724 292 l 311 292 l 163 0 l 49 0 l 567 1022 m 713 390 l 621 922 l 356 390 l 713 390 m 443 1290 q 495 1379 457 1353 q 585 1406 533 1406 q 635 1398 613 1406 q 689 1374 657 1390 q 738 1353 721 1360 q 775 1347 756 1347 q 831 1363 808 1347 q 858 1408 854 1379 l 915 1408 q 772 1292 892 1292 q 725 1299 747 1292 q 671 1322 703 1307 q 622 1343 640 1336 q 582 1350 603 1350 q 528 1335 551 1350 q 500 1290 506 1319 l 443 1290 m 632 1086 q 517 1116 561 1086 q 472 1208 472 1146 q 475 1242 472 1219 l 528 1242 q 526 1219 526 1233 q 557 1156 526 1176 q 636 1135 588 1135 q 735 1158 694 1135 q 786 1242 776 1181 l 840 1242 q 772 1122 828 1158 q 632 1086 715 1086 z "},"Â":{"ha":939,"x_min":49,"x_max":892,"o":"m 567 1022 l 708 1022 l 892 0 l 776 0 l 724 292 l 311 292 l 163 0 l 49 0 l 567 1022 m 713 390 l 621 922 l 356 390 l 713 390 m 626 1286 l 704 1286 l 828 1099 l 761 1099 l 656 1233 l 496 1099 l 428 1099 l 626 1286 z "},"Ấ":{"ha":939,"x_min":49,"x_max":1017,"o":"m 567 1022 l 708 1022 l 892 0 l 776 0 l 724 292 l 311 292 l 163 0 l 49 0 l 567 1022 m 713 390 l 621 922 l 356 390 l 713 390 m 928 1385 l 1017 1385 l 838 1206 l 778 1206 l 928 1385 m 624 1235 l 703 1235 l 835 1099 l 768 1099 l 654 1183 l 501 1099 l 435 1099 l 624 1235 z "},"Ậ":{"ha":939,"x_min":49,"x_max":892,"o":"m 567 1022 l 708 1022 l 892 0 l 776 0 l 724 292 l 311 292 l 163 0 l 49 0 l 567 1022 m 713 390 l 621 922 l 356 390 l 713 390 m 626 1286 l 704 1286 l 828 1099 l 761 1099 l 656 1233 l 496 1099 l 428 1099 l 626 1286 m 385 -292 q 367 -274 367 -292 l 367 -269 l 383 -161 q 408 -139 388 -139 l 460 -139 q 478 -157 478 -139 l 478 -161 l 461 -269 q 453 -285 460 -279 q 436 -292 446 -292 l 385 -292 z "},"Ầ":{"ha":939,"x_min":49,"x_max":892,"o":"m 567 1022 l 708 1022 l 892 0 l 776 0 l 724 292 l 311 292 l 163 0 l 49 0 l 567 1022 m 713 390 l 621 922 l 356 390 l 713 390 m 354 1385 l 444 1385 l 538 1206 l 476 1206 l 354 1385 m 617 1235 l 694 1235 l 826 1099 l 760 1099 l 646 1183 l 494 1099 l 426 1099 l 617 1235 z "},"Ẩ":{"ha":939,"x_min":49,"x_max":949,"o":"m 567 1022 l 708 1022 l 892 0 l 776 0 l 724 292 l 311 292 l 163 0 l 49 0 l 567 1022 m 713 390 l 621 922 l 356 390 l 713 390 m 810 1217 q 892 1300 892 1243 q 842 1338 892 1338 q 790 1329 813 1338 l 797 1376 q 861 1386 826 1386 q 949 1311 949 1386 q 803 1171 949 1211 l 810 1217 m 628 1235 l 707 1235 l 839 1099 l 772 1099 l 658 1183 l 506 1099 l 439 1099 l 628 1235 z "},"Ẫ":{"ha":939,"x_min":49,"x_max":917,"o":"m 567 1022 l 708 1022 l 892 0 l 776 0 l 724 292 l 311 292 l 163 0 l 49 0 l 567 1022 m 713 390 l 621 922 l 356 390 l 713 390 m 446 1300 q 586 1415 468 1415 q 635 1407 613 1415 q 690 1383 658 1399 q 737 1363 718 1369 q 776 1357 756 1357 q 833 1373 810 1357 q 860 1418 856 1389 l 917 1418 q 774 1300 890 1300 q 726 1308 749 1300 q 672 1331 704 1315 q 623 1351 642 1344 q 583 1358 604 1358 q 529 1343 551 1358 q 501 1300 507 1328 l 446 1300 m 629 1235 l 707 1235 l 838 1099 l 771 1099 l 657 1183 l 506 1099 l 438 1099 l 629 1235 z "},"Ȁ":{"ha":939,"x_min":49,"x_max":892,"o":"m 567 1022 l 708 1022 l 892 0 l 776 0 l 724 292 l 311 292 l 163 0 l 49 0 l 567 1022 m 713 390 l 621 922 l 356 390 l 713 390 m 368 1288 l 463 1288 l 576 1099 l 513 1099 l 368 1288 m 571 1288 l 665 1288 l 779 1099 l 715 1099 l 571 1288 z "},"Ä":{"ha":939,"x_min":49,"x_max":892,"o":"m 567 1022 l 708 1022 l 892 0 l 776 0 l 724 292 l 311 292 l 163 0 l 49 0 l 567 1022 m 713 390 l 621 922 l 356 390 l 713 390 m 458 1129 q 440 1147 440 1129 l 458 1260 q 483 1282 461 1282 l 535 1282 q 553 1264 553 1282 q 535 1151 553 1271 q 526 1135 533 1142 q 510 1129 519 1129 l 458 1129 m 742 1129 q 724 1147 724 1129 l 742 1260 q 768 1282 744 1282 l 818 1282 q 836 1264 836 1282 l 818 1151 q 810 1135 817 1142 q 793 1129 803 1129 l 742 1129 z "},"Ạ":{"ha":939,"x_min":49,"x_max":892,"o":"m 567 1022 l 708 1022 l 892 0 l 776 0 l 724 292 l 311 292 l 163 0 l 49 0 l 567 1022 m 713 390 l 621 922 l 356 390 l 713 390 m 385 -292 q 367 -274 367 -292 l 367 -269 l 383 -161 q 408 -139 388 -139 l 460 -139 q 478 -157 478 -139 l 478 -161 l 461 -269 q 453 -285 460 -279 q 436 -292 446 -292 l 385 -292 z "},"À":{"ha":939,"x_min":49,"x_max":892,"o":"m 567 1022 l 708 1022 l 892 0 l 776 0 l 724 292 l 311 292 l 163 0 l 49 0 l 567 1022 m 713 390 l 621 922 l 356 390 l 713 390 m 492 1288 l 586 1288 l 700 1099 l 636 1099 l 492 1288 z "},"Ả":{"ha":939,"x_min":49,"x_max":892,"o":"m 567 1022 l 708 1022 l 892 0 l 776 0 l 724 292 l 311 292 l 163 0 l 49 0 l 567 1022 m 713 390 l 621 922 l 356 390 l 713 390 m 603 1125 q 696 1222 696 1151 q 639 1268 696 1268 q 588 1260 613 1268 l 594 1307 q 661 1315 621 1315 q 757 1231 757 1315 q 718 1138 757 1179 q 594 1074 679 1096 l 603 1125 z "},"Ȃ":{"ha":939,"x_min":49,"x_max":892,"o":"m 567 1022 l 708 1022 l 892 0 l 776 0 l 724 292 l 311 292 l 163 0 l 49 0 l 567 1022 m 713 390 l 621 922 l 356 390 l 713 390 m 458 1097 q 533 1247 475 1201 q 674 1293 590 1293 q 785 1258 743 1293 q 828 1147 828 1224 q 826 1119 828 1132 q 824 1097 825 1107 l 771 1097 q 774 1135 774 1122 q 744 1215 774 1189 q 665 1242 714 1242 q 566 1207 608 1242 q 513 1097 524 1172 l 458 1097 z "},"Ā":{"ha":939,"x_min":49,"x_max":892,"o":"m 567 1022 l 708 1022 l 892 0 l 776 0 l 724 292 l 311 292 l 163 0 l 49 0 l 567 1022 m 713 390 l 621 922 l 356 390 l 713 390 m 474 1221 l 842 1221 l 831 1156 l 463 1156 l 474 1221 z "},"Ą":{"ha":939,"x_min":49,"x_max":892,"o":"m 567 1022 l 708 1022 l 892 0 l 776 0 l 724 292 l 311 292 l 163 0 l 49 0 l 567 1022 m 713 390 l 621 922 l 356 390 l 713 390 m 779 -260 q 683 -231 717 -260 q 650 -157 650 -203 q 682 -71 650 -112 q 778 0 714 -29 l 819 0 q 740 -62 768 -26 q 713 -128 713 -99 q 739 -183 713 -164 q 815 -203 765 -203 l 824 -203 l 815 -256 q 779 -260 799 -260 z "},"Å":{"ha":939,"x_min":49,"x_max":892,"o":"m 567 1022 l 708 1022 l 892 0 l 776 0 l 724 292 l 311 292 l 163 0 l 49 0 l 567 1022 m 713 390 l 621 922 l 356 390 l 713 390 m 643 1075 q 506 1199 506 1075 q 553 1322 506 1271 q 686 1372 601 1372 q 784 1342 747 1372 q 821 1249 821 1313 q 774 1124 821 1174 q 643 1075 728 1075 m 647 1121 q 735 1156 706 1121 q 765 1246 765 1192 q 742 1308 765 1289 q 682 1326 718 1326 q 591 1290 622 1326 q 560 1200 560 1254 q 584 1139 560 1157 q 647 1121 608 1121 z "},"Ǻ":{"ha":939,"x_min":49,"x_max":907,"o":"m 643 1075 q 506 1199 506 1075 q 548 1316 506 1267 q 667 1371 590 1365 l 808 1529 l 907 1529 l 736 1367 q 821 1249 821 1346 q 774 1124 821 1174 q 643 1075 728 1075 m 682 1326 q 591 1290 622 1326 q 560 1200 560 1254 q 584 1139 560 1157 q 647 1121 608 1121 q 735 1156 706 1121 q 765 1246 765 1192 q 742 1308 765 1289 q 682 1326 718 1326 m 708 1022 l 892 0 l 776 0 l 724 292 l 311 292 l 163 0 l 49 0 l 567 1022 l 708 1022 m 713 390 l 621 922 l 356 390 l 713 390 z "},"Ã":{"ha":939,"x_min":49,"x_max":935,"o":"m 567 1022 l 708 1022 l 892 0 l 776 0 l 724 292 l 311 292 l 163 0 l 49 0 l 567 1022 m 713 390 l 621 922 l 356 390 l 713 390 m 422 1124 q 479 1235 436 1200 q 578 1269 522 1269 q 633 1258 608 1269 q 693 1225 657 1247 q 743 1197 722 1206 q 785 1188 764 1188 q 847 1210 822 1188 q 879 1272 872 1232 l 935 1272 q 881 1163 919 1200 q 782 1125 843 1125 q 730 1135 754 1125 q 669 1168 706 1146 q 616 1197 636 1188 q 574 1207 596 1207 q 513 1185 539 1207 q 479 1124 486 1164 l 422 1124 z "},"Æ":{"ha":1296,"x_min":31,"x_max":1408,"o":"m 871 -6 q 732 24 782 -6 q 682 129 682 53 q 683 160 682 149 l 704 289 l 369 289 l 144 0 l 31 0 l 638 803 q 813 974 729 925 q 1019 1022 897 1022 q 1408 1008 1133 1022 l 1393 921 l 1026 921 q 935 906 964 921 q 900 867 907 890 q 882 779 893 844 l 846 557 l 1276 550 l 1263 465 l 832 458 l 793 218 q 790 186 790 193 q 823 115 790 132 q 911 97 856 97 l 1264 97 l 1250 10 q 1040 -1 1153 4 q 871 -6 926 -6 m 718 385 l 793 857 l 436 385 l 718 385 z "},"Ǽ":{"ha":1296,"x_min":31,"x_max":1408,"o":"m 871 -6 q 732 24 782 -6 q 682 129 682 53 q 683 160 682 149 l 704 289 l 369 289 l 144 0 l 31 0 l 638 803 q 813 974 729 925 q 1019 1022 897 1022 q 1408 1008 1133 1022 l 1393 921 l 1026 921 q 935 906 964 921 q 900 867 907 890 q 882 779 893 844 l 846 557 l 1276 550 l 1263 465 l 832 458 l 793 218 q 790 186 790 193 q 823 115 790 132 q 911 97 856 97 l 1264 97 l 1250 10 q 1040 -1 1153 4 q 871 -6 926 -6 m 718 385 l 793 857 l 436 385 l 718 385 m 993 1288 l 1092 1288 l 893 1099 l 824 1099 l 993 1288 z "},"B":{"ha":853,"x_min":101,"x_max":864,"o":"m 263 1022 l 618 1022 q 806 971 747 1022 q 864 824 864 919 q 858 754 864 786 q 794 608 844 665 q 669 535 743 551 q 775 465 732 517 q 818 326 818 414 q 810 247 818 283 q 704 62 786 124 q 475 0 622 0 l 101 0 l 263 1022 m 563 574 q 749 735 715 574 q 756 799 756 776 q 715 893 756 864 q 596 922 675 922 l 356 922 l 300 574 l 563 574 m 490 99 q 640 144 590 99 q 708 282 689 190 q 714 336 714 308 q 670 447 714 407 q 551 486 626 486 l 288 486 l 226 99 l 490 99 z "},"Ḃ":{"ha":853,"x_min":101,"x_max":864,"o":"m 263 1022 l 618 1022 q 806 971 747 1022 q 864 824 864 919 q 858 754 864 786 q 794 608 844 665 q 669 535 743 551 q 775 465 732 517 q 818 326 818 414 q 810 247 818 283 q 704 62 786 124 q 475 0 622 0 l 101 0 l 263 1022 m 563 574 q 749 735 715 574 q 756 799 756 776 q 715 893 756 864 q 596 922 675 922 l 356 922 l 300 574 l 563 574 m 490 99 q 640 144 590 99 q 708 282 689 190 q 714 336 714 308 q 670 447 714 407 q 551 486 626 486 l 288 486 l 226 99 l 490 99 m 533 1139 q 515 1157 515 1139 l 515 1161 l 532 1269 q 557 1292 536 1292 l 608 1292 q 626 1274 626 1292 l 626 1269 l 610 1161 q 601 1145 608 1151 q 585 1139 594 1139 l 533 1139 z "},"C":{"ha":819,"x_min":146,"x_max":894,"o":"m 440 -8 q 217 73 289 -8 q 146 314 146 154 q 167 532 146 407 q 303 906 206 782 q 582 1031 400 1031 q 747 1019 676 1031 q 894 988 817 1007 l 879 903 q 596 931 733 931 q 443 889 504 931 q 342 756 382 847 q 275 508 301 664 q 256 314 256 378 q 304 143 256 196 q 468 90 353 90 q 625 94 563 90 q 753 108 688 99 l 739 25 q 440 -8 618 -8 z "},"Ć":{"ha":819,"x_min":146,"x_max":894,"o":"m 440 -8 q 217 73 289 -8 q 146 314 146 154 q 167 532 146 407 q 303 906 206 782 q 582 1031 400 1031 q 747 1019 676 1031 q 894 988 817 1007 l 879 903 q 596 931 733 931 q 443 889 504 931 q 342 756 382 847 q 275 508 301 664 q 256 314 256 378 q 304 143 256 196 q 468 90 353 90 q 625 94 563 90 q 753 108 688 99 l 739 25 q 440 -8 618 -8 m 725 1288 l 824 1288 l 625 1099 l 556 1099 l 725 1288 z "},"Č":{"ha":819,"x_min":146,"x_max":894,"o":"m 440 -8 q 217 73 289 -8 q 146 314 146 154 q 167 532 146 407 q 303 906 206 782 q 582 1031 400 1031 q 747 1019 676 1031 q 894 988 817 1007 l 879 903 q 596 931 733 931 q 443 889 504 931 q 342 756 382 847 q 275 508 301 664 q 256 314 256 378 q 304 143 256 196 q 468 90 353 90 q 625 94 563 90 q 753 108 688 99 l 739 25 q 440 -8 618 -8 m 460 1286 l 526 1286 l 631 1151 l 792 1286 l 860 1286 l 661 1099 l 583 1099 l 460 1286 z "},"Ç":{"ha":819,"x_min":146,"x_max":894,"o":"m 596 931 q 443 889 504 931 q 342 756 382 847 q 275 508 301 664 q 256 314 256 378 q 304 143 256 196 q 468 90 353 90 q 625 94 563 90 q 753 108 688 99 l 739 25 q 467 -8 625 -6 l 404 -85 q 492 -160 492 -92 q 474 -212 492 -186 q 423 -256 457 -239 q 342 -274 389 -274 l 296 -274 l 303 -228 l 335 -225 q 399 -197 376 -221 q 422 -151 422 -174 q 404 -116 422 -129 q 339 -101 386 -103 l 415 -8 q 211 80 276 -1 q 146 314 146 161 q 167 532 146 407 q 303 906 206 782 q 582 1031 400 1031 q 747 1019 676 1031 q 894 988 817 1007 l 879 903 q 596 931 733 931 z "},"Ḉ":{"ha":819,"x_min":146,"x_max":894,"o":"m 625 1099 l 556 1099 l 725 1288 l 824 1288 l 625 1099 m 596 931 q 443 889 504 931 q 342 756 382 847 q 275 508 301 664 q 256 314 256 378 q 304 143 256 196 q 468 90 353 90 q 625 94 563 90 q 753 108 688 99 l 739 25 q 467 -8 625 -6 l 404 -85 q 492 -160 492 -92 q 474 -212 492 -186 q 423 -256 457 -239 q 342 -274 389 -274 l 296 -274 l 303 -228 l 335 -225 q 399 -197 376 -221 q 422 -151 422 -174 q 404 -116 422 -129 q 339 -101 386 -103 l 415 -8 q 211 80 276 -1 q 146 314 146 161 q 167 532 146 407 q 303 906 206 782 q 582 1031 400 1031 q 747 1019 676 1031 q 894 988 817 1007 l 879 903 q 596 931 733 931 z "},"Ĉ":{"ha":819,"x_min":146,"x_max":894,"o":"m 440 -8 q 217 73 289 -8 q 146 314 146 154 q 167 532 146 407 q 303 906 206 782 q 582 1031 400 1031 q 747 1019 676 1031 q 894 988 817 1007 l 879 903 q 596 931 733 931 q 443 889 504 931 q 342 756 382 847 q 275 508 301 664 q 256 314 256 378 q 304 143 256 196 q 468 90 353 90 q 625 94 563 90 q 753 108 688 99 l 739 25 q 440 -8 618 -8 m 589 1286 l 667 1286 l 790 1099 l 724 1099 l 618 1233 l 458 1099 l 390 1099 l 589 1286 z "},"Ċ":{"ha":819,"x_min":146,"x_max":894,"o":"m 440 -8 q 217 73 289 -8 q 146 314 146 154 q 167 532 146 407 q 303 906 206 782 q 582 1031 400 1031 q 747 1019 676 1031 q 894 988 817 1007 l 879 903 q 596 931 733 931 q 443 889 504 931 q 342 756 382 847 q 275 508 301 664 q 256 314 256 378 q 304 143 256 196 q 468 90 353 90 q 625 94 563 90 q 753 108 688 99 l 739 25 q 440 -8 618 -8 m 583 1139 q 565 1157 565 1139 l 565 1161 l 582 1269 q 607 1292 586 1292 l 658 1292 q 676 1274 676 1292 l 676 1269 l 660 1161 q 651 1145 658 1151 q 635 1139 644 1139 l 583 1139 z "},"D":{"ha":936,"x_min":100,"x_max":947,"o":"m 263 1022 l 629 1022 q 876 933 804 1022 q 947 667 947 844 q 931 488 947 588 q 471 0 856 0 l 100 0 l 263 1022 m 479 99 q 822 511 758 99 q 838 665 838 607 q 785 860 838 799 q 603 922 733 922 l 356 922 l 225 99 l 479 99 z "},"Ð":{"ha":936,"x_min":82,"x_max":947,"o":"m 629 1022 q 876 933 804 1022 q 947 667 947 844 q 931 488 947 588 q 471 0 856 0 l 100 0 l 176 479 l 82 479 l 96 557 l 189 557 l 263 1022 l 629 1022 m 822 511 q 838 665 838 607 q 785 860 838 799 q 603 922 733 922 l 356 922 l 297 557 l 546 557 l 532 479 l 285 479 l 225 99 l 479 99 q 822 511 758 99 z "},"Ď":{"ha":936,"x_min":100,"x_max":947,"o":"m 263 1022 l 629 1022 q 876 933 804 1022 q 947 667 947 844 q 931 488 947 588 q 471 0 856 0 l 100 0 l 263 1022 m 479 99 q 822 511 758 99 q 838 665 838 607 q 785 860 838 799 q 603 922 733 922 l 356 922 l 225 99 l 479 99 m 446 1286 l 513 1286 l 617 1151 l 778 1286 l 846 1286 l 647 1099 l 569 1099 l 446 1286 z "},"Đ":{"ha":936,"x_min":82,"x_max":947,"o":"m 629 1022 q 876 933 804 1022 q 947 667 947 844 q 931 488 947 588 q 471 0 856 0 l 100 0 l 176 479 l 82 479 l 96 557 l 189 557 l 263 1022 l 629 1022 m 822 511 q 838 665 838 607 q 785 860 838 799 q 603 922 733 922 l 356 922 l 297 557 l 546 557 l 532 479 l 285 479 l 225 99 l 479 99 q 822 511 758 99 z "},"Ḋ":{"ha":936,"x_min":100,"x_max":947,"o":"m 263 1022 l 629 1022 q 876 933 804 1022 q 947 667 947 844 q 931 488 947 588 q 471 0 856 0 l 100 0 l 263 1022 m 479 99 q 822 511 758 99 q 838 665 838 607 q 785 860 838 799 q 603 922 733 922 l 356 922 l 225 99 l 479 99 m 569 1139 q 551 1157 551 1139 l 551 1161 l 568 1269 q 593 1292 572 1292 l 644 1292 q 663 1274 663 1292 l 663 1269 l 646 1161 q 638 1145 644 1151 q 621 1139 631 1139 l 569 1139 z "},"Ḍ":{"ha":936,"x_min":100,"x_max":947,"o":"m 263 1022 l 629 1022 q 876 933 804 1022 q 947 667 947 844 q 931 488 947 588 q 471 0 856 0 l 100 0 l 263 1022 m 479 99 q 822 511 758 99 q 838 665 838 607 q 785 860 838 799 q 603 922 733 922 l 356 922 l 225 99 l 479 99 m 333 -292 q 315 -274 315 -292 l 315 -269 l 332 -161 q 357 -139 336 -139 l 408 -139 q 426 -157 426 -139 l 426 -161 l 410 -269 q 401 -285 408 -279 q 385 -292 394 -292 l 333 -292 z "},"Ḏ":{"ha":936,"x_min":100,"x_max":947,"o":"m 263 1022 l 629 1022 q 876 933 804 1022 q 947 667 947 844 q 931 488 947 588 q 471 0 856 0 l 100 0 l 263 1022 m 479 99 q 822 511 758 99 q 838 665 838 607 q 785 860 838 799 q 603 922 733 922 l 356 922 l 225 99 l 479 99 m 189 -196 l 557 -196 l 546 -261 l 178 -261 l 189 -196 z "},"E":{"ha":803,"x_min":126,"x_max":881,"o":"m 310 -8 q 180 26 233 -8 q 126 149 126 61 q 131 199 126 172 l 229 819 q 310 975 247 928 q 464 1022 374 1022 q 881 1010 664 1018 l 865 921 l 475 921 q 381 891 415 921 q 335 793 346 861 l 299 560 l 746 549 l 732 464 l 282 458 l 244 218 q 242 183 242 193 q 271 113 242 132 q 356 94 300 94 l 736 94 l 722 6 l 628 1 q 500 -4 600 0 q 310 -8 400 -8 z "},"É":{"ha":803,"x_min":126,"x_max":881,"o":"m 310 -8 q 180 26 233 -8 q 126 149 126 61 q 131 199 126 172 l 229 819 q 310 975 247 928 q 464 1022 374 1022 q 881 1010 664 1018 l 865 921 l 475 921 q 381 891 415 921 q 335 793 346 861 l 299 560 l 746 549 l 732 464 l 282 458 l 244 218 q 242 183 242 193 q 271 113 242 132 q 356 94 300 94 l 736 94 l 722 6 l 628 1 q 500 -4 600 0 q 310 -8 400 -8 m 711 1288 l 810 1288 l 611 1099 l 542 1099 l 711 1288 z "},"Ĕ":{"ha":803,"x_min":126,"x_max":881,"o":"m 310 -8 q 180 26 233 -8 q 126 149 126 61 q 131 199 126 172 l 229 819 q 310 975 247 928 q 464 1022 374 1022 q 881 1010 664 1018 l 865 921 l 475 921 q 381 891 415 921 q 335 793 346 861 l 299 560 l 746 549 l 732 464 l 282 458 l 244 218 q 242 183 242 193 q 271 113 242 132 q 356 94 300 94 l 736 94 l 722 6 l 628 1 q 500 -4 600 0 q 310 -8 400 -8 m 585 1096 q 473 1131 515 1096 q 431 1242 431 1165 q 432 1269 431 1257 q 435 1292 433 1282 l 488 1292 q 485 1256 485 1267 q 515 1174 485 1200 q 592 1149 544 1149 q 692 1183 650 1149 q 746 1292 735 1217 l 800 1292 q 726 1142 783 1188 q 585 1096 668 1096 z "},"Ě":{"ha":803,"x_min":126,"x_max":881,"o":"m 310 -8 q 180 26 233 -8 q 126 149 126 61 q 131 199 126 172 l 229 819 q 310 975 247 928 q 464 1022 374 1022 q 881 1010 664 1018 l 865 921 l 475 921 q 381 891 415 921 q 335 793 346 861 l 299 560 l 746 549 l 732 464 l 282 458 l 244 218 q 242 183 242 193 q 271 113 242 132 q 356 94 300 94 l 736 94 l 722 6 l 628 1 q 500 -4 600 0 q 310 -8 400 -8 m 446 1286 l 513 1286 l 617 1151 l 778 1286 l 846 1286 l 647 1099 l 569 1099 l 446 1286 z "},"Ḝ":{"ha":803,"x_min":126,"x_max":881,"o":"m 585 1096 q 473 1131 515 1096 q 431 1242 431 1165 q 432 1269 431 1257 q 435 1292 433 1282 l 488 1292 q 485 1256 485 1267 q 515 1174 485 1200 q 592 1149 544 1149 q 692 1183 650 1149 q 746 1292 735 1217 l 800 1292 q 726 1142 783 1188 q 585 1096 668 1096 m 475 921 q 381 891 415 921 q 335 793 346 861 l 299 560 l 746 549 l 732 464 l 282 458 l 244 218 q 242 183 242 193 q 271 113 242 132 q 356 94 300 94 l 736 94 l 722 6 q 436 -6 533 -3 l 371 -85 q 458 -160 458 -92 q 441 -212 458 -186 q 390 -256 424 -239 q 308 -274 356 -274 l 263 -274 l 269 -228 l 301 -225 q 366 -197 343 -221 q 389 -151 389 -174 q 371 -116 389 -129 q 306 -101 353 -103 l 383 -7 q 310 -8 360 -8 q 180 26 233 -8 q 126 149 126 61 q 131 199 126 172 l 229 819 q 310 975 247 928 q 464 1022 374 1022 q 881 1010 664 1018 l 865 921 l 475 921 z "},"Ê":{"ha":803,"x_min":126,"x_max":881,"o":"m 310 -8 q 180 26 233 -8 q 126 149 126 61 q 131 199 126 172 l 229 819 q 310 975 247 928 q 464 1022 374 1022 q 881 1010 664 1018 l 865 921 l 475 921 q 381 891 415 921 q 335 793 346 861 l 299 560 l 746 549 l 732 464 l 282 458 l 244 218 q 242 183 242 193 q 271 113 242 132 q 356 94 300 94 l 736 94 l 722 6 l 628 1 q 500 -4 600 0 q 310 -8 400 -8 m 575 1286 l 653 1286 l 776 1099 l 710 1099 l 604 1233 l 444 1099 l 376 1099 l 575 1286 z "},"Ế":{"ha":803,"x_min":126,"x_max":967,"o":"m 310 -8 q 180 26 233 -8 q 126 149 126 61 q 131 199 126 172 l 229 819 q 310 975 247 928 q 464 1022 374 1022 q 881 1010 664 1018 l 865 921 l 475 921 q 381 891 415 921 q 335 793 346 861 l 299 560 l 746 549 l 732 464 l 282 458 l 244 218 q 242 183 242 193 q 271 113 242 132 q 356 94 300 94 l 736 94 l 722 6 l 628 1 q 500 -4 600 0 q 310 -8 400 -8 m 878 1385 l 967 1385 l 788 1206 l 728 1206 l 878 1385 m 574 1235 l 653 1235 l 785 1099 l 718 1099 l 604 1183 l 451 1099 l 385 1099 l 574 1235 z "},"Ệ":{"ha":803,"x_min":126,"x_max":881,"o":"m 310 -8 q 180 26 233 -8 q 126 149 126 61 q 131 199 126 172 l 229 819 q 310 975 247 928 q 464 1022 374 1022 q 881 1010 664 1018 l 865 921 l 475 921 q 381 891 415 921 q 335 793 346 861 l 299 560 l 746 549 l 732 464 l 282 458 l 244 218 q 242 183 242 193 q 271 113 242 132 q 356 94 300 94 l 736 94 l 722 6 l 628 1 q 500 -4 600 0 q 310 -8 400 -8 m 575 1286 l 653 1286 l 776 1099 l 710 1099 l 604 1233 l 444 1099 l 376 1099 l 575 1286 m 333 -292 q 315 -274 315 -292 l 315 -269 l 332 -161 q 357 -139 336 -139 l 408 -139 q 426 -157 426 -139 l 426 -161 l 410 -269 q 401 -285 408 -279 q 385 -292 394 -292 l 333 -292 z "},"Ề":{"ha":803,"x_min":126,"x_max":881,"o":"m 310 -8 q 180 26 233 -8 q 126 149 126 61 q 131 199 126 172 l 229 819 q 310 975 247 928 q 464 1022 374 1022 q 881 1010 664 1018 l 865 921 l 475 921 q 381 891 415 921 q 335 793 346 861 l 299 560 l 746 549 l 732 464 l 282 458 l 244 218 q 242 183 242 193 q 271 113 242 132 q 356 94 300 94 l 736 94 l 722 6 l 628 1 q 500 -4 600 0 q 310 -8 400 -8 m 304 1385 l 394 1385 l 488 1206 l 426 1206 l 304 1385 m 567 1235 l 644 1235 l 776 1099 l 710 1099 l 596 1183 l 444 1099 l 376 1099 l 567 1235 z "},"Ể":{"ha":803,"x_min":126,"x_max":899,"o":"m 310 -8 q 180 26 233 -8 q 126 149 126 61 q 131 199 126 172 l 229 819 q 310 975 247 928 q 464 1022 374 1022 q 881 1010 664 1018 l 865 921 l 475 921 q 381 891 415 921 q 335 793 346 861 l 299 560 l 746 549 l 732 464 l 282 458 l 244 218 q 242 183 242 193 q 271 113 242 132 q 356 94 300 94 l 736 94 l 722 6 l 628 1 q 500 -4 600 0 q 310 -8 400 -8 m 760 1217 q 842 1300 842 1243 q 792 1338 842 1338 q 740 1329 763 1338 l 747 1376 q 811 1386 776 1386 q 899 1311 899 1386 q 753 1171 899 1211 l 760 1217 m 578 1235 l 657 1235 l 789 1099 l 722 1099 l 608 1183 l 456 1099 l 389 1099 l 578 1235 z "},"Ễ":{"ha":803,"x_min":126,"x_max":881,"o":"m 310 -8 q 180 26 233 -8 q 126 149 126 61 q 131 199 126 172 l 229 819 q 310 975 247 928 q 464 1022 374 1022 q 881 1010 664 1018 l 865 921 l 475 921 q 381 891 415 921 q 335 793 346 861 l 299 560 l 746 549 l 732 464 l 282 458 l 244 218 q 242 183 242 193 q 271 113 242 132 q 356 94 300 94 l 736 94 l 722 6 l 628 1 q 500 -4 600 0 q 310 -8 400 -8 m 396 1300 q 536 1415 418 1415 q 585 1407 563 1415 q 640 1383 608 1399 q 687 1363 668 1369 q 726 1357 706 1357 q 783 1373 760 1357 q 810 1418 806 1389 l 867 1418 q 724 1300 840 1300 q 676 1308 699 1300 q 622 1331 654 1315 q 573 1351 592 1344 q 533 1358 554 1358 q 479 1343 501 1358 q 451 1300 457 1328 l 396 1300 m 579 1235 l 657 1235 l 788 1099 l 721 1099 l 607 1183 l 456 1099 l 388 1099 l 579 1235 z "},"Ȅ":{"ha":803,"x_min":126,"x_max":881,"o":"m 310 -8 q 180 26 233 -8 q 126 149 126 61 q 131 199 126 172 l 229 819 q 310 975 247 928 q 464 1022 374 1022 q 881 1010 664 1018 l 865 921 l 475 921 q 381 891 415 921 q 335 793 346 861 l 299 560 l 746 549 l 732 464 l 282 458 l 244 218 q 242 183 242 193 q 271 113 242 132 q 356 94 300 94 l 736 94 l 722 6 l 628 1 q 500 -4 600 0 q 310 -8 400 -8 m 317 1288 l 411 1288 l 525 1099 l 461 1099 l 317 1288 m 519 1288 l 614 1288 l 728 1099 l 664 1099 l 519 1288 z "},"Ë":{"ha":803,"x_min":126,"x_max":881,"o":"m 310 -8 q 180 26 233 -8 q 126 149 126 61 q 131 199 126 172 l 229 819 q 310 975 247 928 q 464 1022 374 1022 q 881 1010 664 1018 l 865 921 l 475 921 q 381 891 415 921 q 335 793 346 861 l 299 560 l 746 549 l 732 464 l 282 458 l 244 218 q 242 183 242 193 q 271 113 242 132 q 356 94 300 94 l 736 94 l 722 6 l 628 1 q 500 -4 600 0 q 310 -8 400 -8 m 407 1129 q 389 1147 389 1129 l 407 1260 q 432 1282 410 1282 l 483 1282 q 501 1264 501 1282 q 483 1151 501 1271 q 475 1135 482 1142 q 458 1129 468 1129 l 407 1129 m 690 1129 q 672 1147 672 1129 l 690 1260 q 717 1282 693 1282 l 767 1282 q 785 1264 785 1282 l 767 1151 q 758 1135 765 1142 q 742 1129 751 1129 l 690 1129 z "},"Ė":{"ha":803,"x_min":126,"x_max":881,"o":"m 310 -8 q 180 26 233 -8 q 126 149 126 61 q 131 199 126 172 l 229 819 q 310 975 247 928 q 464 1022 374 1022 q 881 1010 664 1018 l 865 921 l 475 921 q 381 891 415 921 q 335 793 346 861 l 299 560 l 746 549 l 732 464 l 282 458 l 244 218 q 242 183 242 193 q 271 113 242 132 q 356 94 300 94 l 736 94 l 722 6 l 628 1 q 500 -4 600 0 q 310 -8 400 -8 m 569 1139 q 551 1157 551 1139 l 551 1161 l 568 1269 q 593 1292 572 1292 l 644 1292 q 663 1274 663 1292 l 663 1269 l 646 1161 q 638 1145 644 1151 q 621 1139 631 1139 l 569 1139 z "},"Ẹ":{"ha":803,"x_min":126,"x_max":881,"o":"m 310 -8 q 180 26 233 -8 q 126 149 126 61 q 131 199 126 172 l 229 819 q 310 975 247 928 q 464 1022 374 1022 q 881 1010 664 1018 l 865 921 l 475 921 q 381 891 415 921 q 335 793 346 861 l 299 560 l 746 549 l 732 464 l 282 458 l 244 218 q 242 183 242 193 q 271 113 242 132 q 356 94 300 94 l 736 94 l 722 6 l 628 1 q 500 -4 600 0 q 310 -8 400 -8 m 333 -292 q 315 -274 315 -292 l 315 -269 l 332 -161 q 357 -139 336 -139 l 408 -139 q 426 -157 426 -139 l 426 -161 l 410 -269 q 401 -285 408 -279 q 385 -292 394 -292 l 333 -292 z "},"È":{"ha":803,"x_min":126,"x_max":881,"o":"m 310 -8 q 180 26 233 -8 q 126 149 126 61 q 131 199 126 172 l 229 819 q 310 975 247 928 q 464 1022 374 1022 q 881 1010 664 1018 l 865 921 l 475 921 q 381 891 415 921 q 335 793 346 861 l 299 560 l 746 549 l 732 464 l 282 458 l 244 218 q 242 183 242 193 q 271 113 242 132 q 356 94 300 94 l 736 94 l 722 6 l 628 1 q 500 -4 600 0 q 310 -8 400 -8 m 440 1288 l 535 1288 l 649 1099 l 585 1099 l 440 1288 z "},"Ẻ":{"ha":803,"x_min":126,"x_max":881,"o":"m 310 -8 q 180 26 233 -8 q 126 149 126 61 q 131 199 126 172 l 229 819 q 310 975 247 928 q 464 1022 374 1022 q 881 1010 664 1018 l 865 921 l 475 921 q 381 891 415 921 q 335 793 346 861 l 299 560 l 746 549 l 732 464 l 282 458 l 244 218 q 242 183 242 193 q 271 113 242 132 q 356 94 300 94 l 736 94 l 722 6 l 628 1 q 500 -4 600 0 q 310 -8 400 -8 m 551 1125 q 644 1222 644 1151 q 588 1268 644 1268 q 536 1260 561 1268 l 543 1307 q 610 1315 569 1315 q 706 1231 706 1315 q 667 1138 706 1179 q 543 1074 628 1096 l 551 1125 z "},"Ȇ":{"ha":803,"x_min":126,"x_max":881,"o":"m 310 -8 q 180 26 233 -8 q 126 149 126 61 q 131 199 126 172 l 229 819 q 310 975 247 928 q 464 1022 374 1022 q 881 1010 664 1018 l 865 921 l 475 921 q 381 891 415 921 q 335 793 346 861 l 299 560 l 746 549 l 732 464 l 282 458 l 244 218 q 242 183 242 193 q 271 113 242 132 q 356 94 300 94 l 736 94 l 722 6 l 628 1 q 500 -4 600 0 q 310 -8 400 -8 m 407 1097 q 481 1247 424 1201 q 622 1293 539 1293 q 734 1258 692 1293 q 776 1147 776 1224 q 775 1119 776 1132 q 772 1097 774 1107 l 719 1097 q 722 1135 722 1122 q 692 1215 722 1189 q 614 1242 663 1242 q 515 1207 557 1242 q 461 1097 472 1172 l 407 1097 z "},"Ē":{"ha":803,"x_min":126,"x_max":881,"o":"m 310 -8 q 180 26 233 -8 q 126 149 126 61 q 131 199 126 172 l 229 819 q 310 975 247 928 q 464 1022 374 1022 q 881 1010 664 1018 l 865 921 l 475 921 q 381 891 415 921 q 335 793 346 861 l 299 560 l 746 549 l 732 464 l 282 458 l 244 218 q 242 183 242 193 q 271 113 242 132 q 356 94 300 94 l 736 94 l 722 6 l 628 1 q 500 -4 600 0 q 310 -8 400 -8 m 422 1221 l 790 1221 l 779 1156 l 411 1156 l 422 1221 z "},"Ḗ":{"ha":803,"x_min":126,"x_max":881,"o":"m 310 -8 q 180 26 233 -8 q 126 149 126 61 q 131 199 126 172 l 229 819 q 310 975 247 928 q 464 1022 374 1022 q 881 1010 664 1018 l 865 921 l 475 921 q 381 891 415 921 q 335 793 346 861 l 299 560 l 746 549 l 732 464 l 282 458 l 244 218 q 242 183 242 193 q 271 113 242 132 q 356 94 300 94 l 736 94 l 722 6 l 628 1 q 500 -4 600 0 q 310 -8 400 -8 m 422 1221 l 790 1221 l 779 1156 l 411 1156 l 422 1221 m 735 1472 l 833 1472 l 635 1283 l 565 1283 l 735 1472 z "},"Ḕ":{"ha":803,"x_min":126,"x_max":881,"o":"m 310 -8 q 180 26 233 -8 q 126 149 126 61 q 131 199 126 172 l 229 819 q 310 975 247 928 q 464 1022 374 1022 q 881 1010 664 1018 l 865 921 l 475 921 q 381 891 415 921 q 335 793 346 861 l 299 560 l 746 549 l 732 464 l 282 458 l 244 218 q 242 183 242 193 q 271 113 242 132 q 356 94 300 94 l 736 94 l 722 6 l 628 1 q 500 -4 600 0 q 310 -8 400 -8 m 422 1221 l 790 1221 l 779 1156 l 411 1156 l 422 1221 m 436 1472 l 531 1472 l 644 1283 l 581 1283 l 436 1472 z "},"Ę":{"ha":803,"x_min":126,"x_max":881,"o":"m 475 921 q 381 891 415 921 q 335 793 346 861 l 299 560 l 746 549 l 732 464 l 282 458 l 244 218 q 242 183 242 193 q 271 113 242 132 q 356 94 300 94 l 736 94 l 722 6 q 643 -57 671 -21 q 615 -122 615 -93 q 642 -178 615 -158 q 718 -197 668 -197 l 726 -197 l 718 -250 q 682 -254 701 -254 q 586 -226 619 -254 q 553 -151 553 -197 q 583 -67 553 -108 q 676 4 614 -25 l 624 1 q 497 -4 596 0 q 310 -8 399 -8 q 180 26 233 -8 q 126 149 126 61 q 131 199 126 172 l 229 819 q 310 975 247 928 q 464 1022 374 1022 q 881 1010 664 1018 l 865 921 l 475 921 z "},"Ẽ":{"ha":803,"x_min":126,"x_max":883,"o":"m 310 -8 q 180 26 233 -8 q 126 149 126 61 q 131 199 126 172 l 229 819 q 310 975 247 928 q 464 1022 374 1022 q 881 1010 664 1018 l 865 921 l 475 921 q 381 891 415 921 q 335 793 346 861 l 299 560 l 746 549 l 732 464 l 282 458 l 244 218 q 242 183 242 193 q 271 113 242 132 q 356 94 300 94 l 736 94 l 722 6 l 628 1 q 500 -4 600 0 q 310 -8 400 -8 m 371 1124 q 428 1235 385 1200 q 526 1269 471 1269 q 581 1258 557 1269 q 642 1225 606 1247 q 692 1197 671 1206 q 733 1188 713 1188 q 796 1210 771 1188 q 828 1272 821 1232 l 883 1272 q 830 1163 868 1200 q 731 1125 792 1125 q 678 1135 703 1125 q 618 1168 654 1146 q 565 1197 585 1188 q 522 1207 544 1207 q 461 1185 488 1207 q 428 1124 435 1164 l 371 1124 z "},"F":{"ha":768,"x_min":100,"x_max":879,"o":"m 229 815 q 310 977 249 932 q 463 1022 372 1022 q 879 1008 692 1018 l 865 919 l 472 919 q 378 890 411 919 q 335 793 346 860 l 296 546 l 744 536 l 731 451 l 281 444 l 210 0 l 100 0 l 229 815 z "},"Ḟ":{"ha":768,"x_min":100,"x_max":879,"o":"m 229 815 q 310 977 249 932 q 463 1022 372 1022 q 879 1008 692 1018 l 865 919 l 472 919 q 378 890 411 919 q 335 793 346 860 l 296 546 l 744 536 l 731 451 l 281 444 l 210 0 l 100 0 l 229 815 m 565 1139 q 547 1157 547 1139 l 547 1161 l 564 1269 q 589 1292 568 1292 l 640 1292 q 658 1274 658 1292 l 658 1269 l 642 1161 q 633 1145 640 1151 q 617 1139 626 1139 l 565 1139 z "},"G":{"ha":897,"x_min":144,"x_max":925,"o":"m 410 -8 q 206 67 268 -8 q 144 308 144 143 q 167 539 144 393 q 307 906 206 779 q 596 1032 408 1032 q 776 1020 700 1032 q 925 988 853 1008 l 913 904 q 603 933 772 933 q 437 886 501 933 q 335 748 372 839 q 275 511 297 657 q 256 308 256 386 q 300 145 256 197 q 444 93 344 93 q 590 111 506 93 q 718 147 675 129 l 767 451 l 519 451 l 532 536 q 768 546 601 546 q 888 542 838 546 l 801 0 l 721 0 l 714 72 q 575 19 669 47 q 410 -8 481 -8 z "},"Ğ":{"ha":897,"x_min":144,"x_max":925,"o":"m 410 -8 q 206 67 268 -8 q 144 308 144 143 q 167 539 144 393 q 307 906 206 779 q 596 1032 408 1032 q 776 1020 700 1032 q 925 988 853 1008 l 913 904 q 603 933 772 933 q 437 886 501 933 q 335 748 372 839 q 275 511 297 657 q 256 308 256 386 q 300 145 256 197 q 444 93 344 93 q 590 111 506 93 q 718 147 675 129 l 767 451 l 519 451 l 532 536 q 768 546 601 546 q 888 542 838 546 l 801 0 l 721 0 l 714 72 q 575 19 669 47 q 410 -8 481 -8 m 613 1096 q 501 1131 543 1096 q 458 1242 458 1165 q 460 1269 458 1257 q 463 1292 461 1282 l 515 1292 q 513 1256 513 1267 q 542 1174 513 1200 q 619 1149 572 1149 q 720 1183 678 1149 q 774 1292 763 1217 l 828 1292 q 753 1142 811 1188 q 613 1096 696 1096 z "},"Ǧ":{"ha":897,"x_min":144,"x_max":925,"o":"m 410 -8 q 206 67 268 -8 q 144 308 144 143 q 167 539 144 393 q 307 906 206 779 q 596 1032 408 1032 q 776 1020 700 1032 q 925 988 853 1008 l 913 904 q 603 933 772 933 q 437 886 501 933 q 335 748 372 839 q 275 511 297 657 q 256 308 256 386 q 300 145 256 197 q 444 93 344 93 q 590 111 506 93 q 718 147 675 129 l 767 451 l 519 451 l 532 536 q 768 546 601 546 q 888 542 838 546 l 801 0 l 721 0 l 714 72 q 575 19 669 47 q 410 -8 481 -8 m 474 1286 l 540 1286 l 644 1151 l 806 1286 l 874 1286 l 675 1099 l 597 1099 l 474 1286 z "},"Ĝ":{"ha":897,"x_min":144,"x_max":925,"o":"m 410 -8 q 206 67 268 -8 q 144 308 144 143 q 167 539 144 393 q 307 906 206 779 q 596 1032 408 1032 q 776 1020 700 1032 q 925 988 853 1008 l 913 904 q 603 933 772 933 q 437 886 501 933 q 335 748 372 839 q 275 511 297 657 q 256 308 256 386 q 300 145 256 197 q 444 93 344 93 q 590 111 506 93 q 718 147 675 129 l 767 451 l 519 451 l 532 536 q 768 546 601 546 q 888 542 838 546 l 801 0 l 721 0 l 714 72 q 575 19 669 47 q 410 -8 481 -8 m 603 1286 l 681 1286 l 804 1099 l 738 1099 l 632 1233 l 472 1099 l 404 1099 l 603 1286 z "},"Ģ":{"ha":897,"x_min":144,"x_max":925,"o":"m 410 -8 q 206 67 268 -8 q 144 308 144 143 q 167 539 144 393 q 307 906 206 779 q 596 1032 408 1032 q 776 1020 700 1032 q 925 988 853 1008 l 913 904 q 603 933 772 933 q 437 886 501 933 q 335 748 372 839 q 275 511 297 657 q 256 308 256 386 q 300 145 256 197 q 444 93 344 93 q 590 111 506 93 q 718 147 675 129 l 767 451 l 519 451 l 532 536 q 768 546 601 546 q 888 542 838 546 l 801 0 l 721 0 l 714 72 q 575 19 669 47 q 410 -8 481 -8 m 293 -236 l 335 -229 q 394 -213 372 -224 q 430 -174 415 -203 q 453 -87 444 -144 l 521 -87 q 490 -201 510 -160 q 435 -261 471 -242 q 338 -281 399 -281 l 285 -281 l 293 -236 z "},"Ġ":{"ha":897,"x_min":144,"x_max":925,"o":"m 410 -8 q 206 67 268 -8 q 144 308 144 143 q 167 539 144 393 q 307 906 206 779 q 596 1032 408 1032 q 776 1020 700 1032 q 925 988 853 1008 l 913 904 q 603 933 772 933 q 437 886 501 933 q 335 748 372 839 q 275 511 297 657 q 256 308 256 386 q 300 145 256 197 q 444 93 344 93 q 590 111 506 93 q 718 147 675 129 l 767 451 l 519 451 l 532 536 q 768 546 601 546 q 888 542 838 546 l 801 0 l 721 0 l 714 72 q 575 19 669 47 q 410 -8 481 -8 m 597 1139 q 579 1157 579 1139 l 579 1161 l 596 1269 q 621 1292 600 1292 l 672 1292 q 690 1274 690 1292 l 690 1269 l 674 1161 q 665 1145 672 1151 q 649 1139 658 1139 l 597 1139 z "},"Ḡ":{"ha":897,"x_min":144,"x_max":925,"o":"m 410 -8 q 206 67 268 -8 q 144 308 144 143 q 167 539 144 393 q 307 906 206 779 q 596 1032 408 1032 q 776 1020 700 1032 q 925 988 853 1008 l 913 904 q 603 933 772 933 q 437 886 501 933 q 335 748 372 839 q 275 511 297 657 q 256 308 256 386 q 300 145 256 197 q 444 93 344 93 q 590 111 506 93 q 718 147 675 129 l 767 451 l 519 451 l 532 536 q 768 546 601 546 q 888 542 838 546 l 801 0 l 721 0 l 714 72 q 575 19 669 47 q 410 -8 481 -8 m 450 1221 l 818 1221 l 807 1156 l 439 1156 l 450 1221 z "},"H":{"ha":925,"x_min":100,"x_max":992,"o":"m 263 1022 l 372 1022 l 297 549 l 807 549 l 882 1022 l 992 1022 l 831 0 l 719 0 l 790 450 l 281 450 l 210 0 l 100 0 l 263 1022 z "},"Ħ":{"ha":925,"x_min":100,"x_max":1046,"o":"m 1036 729 l 946 729 l 831 0 l 719 0 l 790 450 l 281 450 l 210 0 l 100 0 l 215 729 l 125 729 l 135 793 l 226 793 l 263 1022 l 372 1022 l 336 793 l 846 793 l 882 1022 l 992 1022 l 956 793 l 1046 793 l 1036 729 m 836 729 l 326 729 l 297 549 l 807 549 l 836 729 z "},"Ḫ":{"ha":925,"x_min":100,"x_max":992,"o":"m 263 1022 l 372 1022 l 297 549 l 807 549 l 882 1022 l 992 1022 l 831 0 l 719 0 l 790 450 l 281 450 l 210 0 l 100 0 l 263 1022 m 396 -307 q 285 -272 326 -307 q 243 -161 243 -237 q 246 -111 243 -147 l 300 -111 q 297 -149 297 -136 q 326 -229 297 -203 q 403 -256 356 -256 q 504 -221 463 -256 q 557 -111 546 -186 l 611 -111 q 538 -261 596 -215 q 396 -307 479 -307 z "},"Ĥ":{"ha":925,"x_min":100,"x_max":992,"o":"m 263 1022 l 372 1022 l 297 549 l 807 549 l 882 1022 l 992 1022 l 831 0 l 719 0 l 790 450 l 281 450 l 210 0 l 100 0 l 263 1022 m 619 1286 l 697 1286 l 821 1099 l 754 1099 l 649 1233 l 489 1099 l 421 1099 l 619 1286 z "},"Ḥ":{"ha":925,"x_min":100,"x_max":992,"o":"m 263 1022 l 372 1022 l 297 549 l 807 549 l 882 1022 l 992 1022 l 831 0 l 719 0 l 790 450 l 281 450 l 210 0 l 100 0 l 263 1022 m 378 -292 q 360 -274 360 -292 l 360 -269 l 376 -161 q 401 -139 381 -139 l 453 -139 q 471 -157 471 -139 l 471 -161 l 454 -269 q 446 -285 453 -279 q 429 -292 439 -292 l 378 -292 z "},"I":{"ha":310,"x_min":100,"x_max":372,"o":"m 263 1022 l 372 1022 l 210 0 l 100 0 l 263 1022 z "},"Í":{"ha":310,"x_min":100,"x_max":547,"o":"m 263 1022 l 372 1022 l 210 0 l 100 0 l 263 1022 m 449 1288 l 547 1288 l 349 1099 l 279 1099 l 449 1288 z "},"Ĭ":{"ha":310,"x_min":100,"x_max":538,"o":"m 263 1022 l 372 1022 l 210 0 l 100 0 l 263 1022 m 322 1096 q 210 1131 253 1096 q 168 1242 168 1165 q 169 1269 168 1257 q 172 1292 171 1282 l 225 1292 q 222 1256 222 1267 q 252 1174 222 1200 q 329 1149 282 1149 q 430 1183 388 1149 q 483 1292 472 1217 l 538 1292 q 463 1142 521 1188 q 322 1096 406 1096 z "},"Î":{"ha":310,"x_min":100,"x_max":514,"o":"m 263 1022 l 372 1022 l 210 0 l 100 0 l 263 1022 m 313 1286 l 390 1286 l 514 1099 l 447 1099 l 342 1233 l 182 1099 l 114 1099 l 313 1286 z "},"Ȉ":{"ha":310,"x_min":54,"x_max":465,"o":"m 263 1022 l 372 1022 l 210 0 l 100 0 l 263 1022 m 54 1288 l 149 1288 l 263 1099 l 199 1099 l 54 1288 m 257 1288 l 351 1288 l 465 1099 l 401 1099 l 257 1288 z "},"Ï":{"ha":310,"x_min":100,"x_max":522,"o":"m 263 1022 l 372 1022 l 210 0 l 100 0 l 263 1022 m 144 1129 q 126 1147 126 1129 l 144 1260 q 169 1282 147 1282 l 221 1282 q 239 1264 239 1282 q 221 1151 239 1271 q 213 1135 219 1142 q 196 1129 206 1129 l 144 1129 m 428 1129 q 410 1147 410 1129 l 428 1260 q 454 1282 431 1282 l 504 1282 q 522 1264 522 1282 l 504 1151 q 496 1135 503 1142 q 479 1129 489 1129 l 428 1129 z "},"Ḯ":{"ha":310,"x_min":100,"x_max":565,"o":"m 263 1022 l 372 1022 l 210 0 l 100 0 l 263 1022 m 144 1129 q 126 1147 126 1129 l 144 1260 q 169 1282 147 1282 l 221 1282 q 239 1264 239 1282 q 221 1151 239 1271 q 213 1135 219 1142 q 196 1129 206 1129 l 144 1129 m 428 1129 q 410 1147 410 1129 l 428 1260 q 454 1282 431 1282 l 504 1282 q 522 1264 522 1282 l 504 1151 q 496 1135 503 1142 q 479 1129 489 1129 l 428 1129 m 467 1519 l 565 1519 l 367 1331 l 297 1331 l 467 1519 z "},"İ":{"ha":310,"x_min":100,"x_max":400,"o":"m 263 1022 l 372 1022 l 210 0 l 100 0 l 263 1022 m 307 1139 q 289 1157 289 1139 l 289 1161 l 306 1269 q 331 1292 310 1292 l 382 1292 q 400 1274 400 1292 l 400 1269 l 383 1161 q 375 1145 382 1151 q 358 1139 368 1139 l 307 1139 z "},"Ị":{"ha":310,"x_min":53,"x_max":372,"o":"m 263 1022 l 372 1022 l 210 0 l 100 0 l 263 1022 m 71 -292 q 53 -274 53 -292 l 53 -269 l 69 -161 q 94 -139 74 -139 l 146 -139 q 164 -157 164 -139 l 164 -161 l 147 -269 q 139 -285 146 -279 q 122 -292 132 -292 l 71 -292 z "},"Ì":{"ha":310,"x_min":100,"x_max":386,"o":"m 263 1022 l 372 1022 l 210 0 l 100 0 l 263 1022 m 178 1288 l 272 1288 l 386 1099 l 322 1099 l 178 1288 z "},"Ỉ":{"ha":310,"x_min":100,"x_max":443,"o":"m 263 1022 l 372 1022 l 210 0 l 100 0 l 263 1022 m 289 1125 q 382 1222 382 1151 q 325 1268 382 1268 q 274 1260 299 1268 l 281 1307 q 347 1315 307 1315 q 443 1231 443 1315 q 404 1138 443 1179 q 281 1074 365 1096 l 289 1125 z "},"Ȋ":{"ha":310,"x_min":100,"x_max":514,"o":"m 263 1022 l 372 1022 l 210 0 l 100 0 l 263 1022 m 144 1097 q 219 1247 161 1201 q 360 1293 276 1293 q 472 1258 429 1293 q 514 1147 514 1224 q 513 1119 514 1132 q 510 1097 511 1107 l 457 1097 q 460 1135 460 1122 q 430 1215 460 1189 q 351 1242 400 1242 q 252 1207 294 1242 q 199 1097 210 1172 l 144 1097 z "},"Ī":{"ha":310,"x_min":100,"x_max":528,"o":"m 263 1022 l 372 1022 l 210 0 l 100 0 l 263 1022 m 160 1221 l 528 1221 l 517 1156 l 149 1156 l 160 1221 z "},"Į":{"ha":310,"x_min":40,"x_max":372,"o":"m 263 1022 l 372 1022 l 210 0 l 100 0 l 263 1022 m 169 -260 q 74 -231 107 -260 q 40 -157 40 -203 q 72 -71 40 -112 q 168 0 104 -29 l 210 0 q 131 -62 158 -26 q 103 -128 103 -99 q 129 -183 103 -164 q 206 -203 156 -203 l 214 -203 l 206 -256 q 169 -260 189 -260 z "},"Ĩ":{"ha":310,"x_min":100,"x_max":621,"o":"m 263 1022 l 372 1022 l 210 0 l 100 0 l 263 1022 m 108 1124 q 165 1235 122 1200 q 264 1269 208 1269 q 319 1258 294 1269 q 379 1225 343 1247 q 429 1197 408 1206 q 471 1188 450 1188 q 533 1210 508 1188 q 565 1272 558 1232 l 621 1272 q 567 1163 606 1200 q 468 1125 529 1125 q 416 1135 440 1125 q 356 1168 392 1146 q 302 1197 322 1188 q 260 1207 282 1207 q 199 1185 225 1207 q 165 1124 172 1164 l 108 1124 z "},"J":{"ha":488,"x_min":44,"x_max":578,"o":"m 193 -8 q 110 1 149 -8 q 44 25 71 10 l 58 110 q 178 93 108 93 q 291 133 249 93 q 347 260 333 174 l 468 1022 l 578 1022 l 454 240 q 369 51 432 110 q 193 -8 307 -8 z "},"Ĵ":{"ha":488,"x_min":44,"x_max":721,"o":"m 193 -8 q 110 1 149 -8 q 44 25 71 10 l 58 110 q 178 93 108 93 q 291 133 249 93 q 347 260 333 174 l 468 1022 l 578 1022 l 454 240 q 369 51 432 110 q 193 -8 307 -8 m 519 1286 l 597 1286 l 721 1099 l 654 1099 l 549 1233 l 389 1099 l 321 1099 l 519 1286 z "},"K":{"ha":829,"x_min":100,"x_max":939,"o":"m 263 1022 l 372 1022 l 299 563 l 479 563 l 824 1022 l 939 1022 l 561 511 l 796 0 l 685 0 l 469 463 l 283 463 l 210 0 l 100 0 l 263 1022 z "},"Ķ":{"ha":829,"x_min":100,"x_max":939,"o":"m 263 1022 l 372 1022 l 299 563 l 479 563 l 824 1022 l 939 1022 l 561 511 l 796 0 l 685 0 l 469 463 l 283 463 l 210 0 l 100 0 l 263 1022 m 251 -236 l 293 -229 q 352 -213 331 -224 q 388 -174 374 -203 q 411 -87 403 -144 l 479 -87 q 449 -201 468 -160 q 393 -261 429 -242 q 296 -281 357 -281 l 243 -281 l 251 -236 z "},"L":{"ha":728,"x_min":128,"x_max":710,"o":"m 307 0 q 174 35 221 0 q 128 153 128 71 q 133 208 128 169 l 263 1022 l 372 1022 l 244 221 q 242 182 242 193 q 269 117 242 135 q 346 99 296 99 l 710 99 l 694 0 l 307 0 z "},"Ĺ":{"ha":728,"x_min":128,"x_max":710,"o":"m 307 0 q 174 35 221 0 q 128 153 128 71 q 133 208 128 169 l 263 1022 l 372 1022 l 244 221 q 242 182 242 193 q 269 117 242 135 q 346 99 296 99 l 710 99 l 694 0 l 307 0 m 457 1288 l 556 1288 l 357 1099 l 288 1099 l 457 1288 z "},"Ľ":{"ha":728,"x_min":128,"x_max":710,"o":"m 307 0 q 174 35 221 0 q 128 153 128 71 q 133 208 128 169 l 263 1022 l 372 1022 l 244 221 q 242 182 242 193 q 269 117 242 135 q 346 99 296 99 l 710 99 l 694 0 l 307 0 m 511 926 l 525 1019 l 628 1019 l 613 926 l 572 718 l 492 718 l 511 926 z "},"Ļ":{"ha":728,"x_min":128,"x_max":710,"o":"m 307 0 q 174 35 221 0 q 128 153 128 71 q 133 208 128 169 l 263 1022 l 372 1022 l 244 221 q 242 182 242 193 q 269 117 242 135 q 346 99 296 99 l 710 99 l 694 0 l 307 0 m 233 -236 l 275 -229 q 334 -213 313 -224 q 370 -174 356 -203 q 393 -87 385 -144 l 461 -87 q 431 -201 450 -160 q 375 -261 411 -242 q 278 -281 339 -281 l 225 -281 l 233 -236 z "},"Ŀ":{"ha":728,"x_min":128,"x_max":710,"o":"m 307 0 q 174 35 221 0 q 128 153 128 71 q 133 208 128 169 l 263 1022 l 372 1022 l 244 221 q 242 182 242 193 q 269 117 242 135 q 346 99 296 99 l 710 99 l 694 0 l 307 0 m 579 549 q 564 554 569 549 q 560 569 558 560 l 571 635 q 596 657 574 657 l 658 657 q 676 635 679 657 l 665 569 q 640 549 664 549 l 579 549 z "},"Ḷ":{"ha":728,"x_min":128,"x_max":710,"o":"m 307 0 q 174 35 221 0 q 128 153 128 71 q 133 208 128 169 l 263 1022 l 372 1022 l 244 221 q 242 182 242 193 q 269 117 242 135 q 346 99 296 99 l 710 99 l 694 0 l 307 0 m 301 -292 q 283 -274 283 -292 l 283 -269 l 300 -161 q 325 -139 304 -139 l 376 -139 q 394 -157 394 -139 l 394 -161 l 378 -269 q 369 -285 376 -279 q 353 -292 363 -292 l 301 -292 z "},"Ḻ":{"ha":728,"x_min":128,"x_max":710,"o":"m 307 0 q 174 35 221 0 q 128 153 128 71 q 133 208 128 169 l 263 1022 l 372 1022 l 244 221 q 242 182 242 193 q 269 117 242 135 q 346 99 296 99 l 710 99 l 694 0 l 307 0 m 157 -196 l 525 -196 l 514 -261 l 146 -261 l 157 -196 z "},"Ł":{"ha":728,"x_min":67,"x_max":710,"o":"m 710 99 l 694 0 l 307 0 q 174 35 221 0 q 128 153 128 71 q 133 208 128 169 l 176 481 l 67 436 l 76 501 l 188 546 l 263 1022 l 372 1022 l 301 579 l 506 663 l 496 599 l 292 515 l 244 221 q 242 182 242 193 q 269 117 242 135 q 346 99 296 99 l 710 99 z "},"M":{"ha":1131,"x_min":81,"x_max":1126,"o":"m 360 1022 l 463 1022 l 604 147 l 1025 1022 l 1126 1022 l 1083 0 l 976 0 l 1014 819 l 633 0 l 531 0 l 408 817 l 190 0 l 81 0 l 360 1022 z "},"Ṁ":{"ha":1131,"x_min":81,"x_max":1126,"o":"m 360 1022 l 463 1022 l 604 147 l 1025 1022 l 1126 1022 l 1083 0 l 976 0 l 1014 819 l 633 0 l 531 0 l 408 817 l 190 0 l 81 0 l 360 1022 m 718 1139 q 700 1157 700 1139 l 700 1161 l 717 1269 q 742 1292 721 1292 l 793 1292 q 811 1274 811 1292 l 811 1269 l 794 1161 q 786 1145 793 1151 q 769 1139 779 1139 l 718 1139 z "},"Ṃ":{"ha":1131,"x_min":81,"x_max":1126,"o":"m 360 1022 l 463 1022 l 604 147 l 1025 1022 l 1126 1022 l 1083 0 l 976 0 l 1014 819 l 633 0 l 531 0 l 408 817 l 190 0 l 81 0 l 360 1022 m 482 -292 q 464 -274 464 -292 l 464 -269 l 481 -161 q 506 -139 485 -139 l 557 -139 q 575 -157 575 -139 l 575 -161 l 558 -269 q 550 -285 557 -279 q 533 -292 543 -292 l 482 -292 z "},"N":{"ha":929,"x_min":100,"x_max":996,"o":"m 263 1022 l 351 1022 l 753 188 l 885 1022 l 996 1022 l 833 0 l 743 0 l 343 836 l 210 0 l 100 0 l 263 1022 z "},"Ń":{"ha":929,"x_min":100,"x_max":996,"o":"m 263 1022 l 351 1022 l 753 188 l 885 1022 l 996 1022 l 833 0 l 743 0 l 343 836 l 210 0 l 100 0 l 263 1022 m 744 1288 l 843 1288 l 644 1099 l 575 1099 l 744 1288 z "},"Ň":{"ha":929,"x_min":100,"x_max":996,"o":"m 263 1022 l 351 1022 l 753 188 l 885 1022 l 996 1022 l 833 0 l 743 0 l 343 836 l 210 0 l 100 0 l 263 1022 m 479 1286 l 546 1286 l 650 1151 l 811 1286 l 879 1286 l 681 1099 l 603 1099 l 479 1286 z "},"Ņ":{"ha":929,"x_min":100,"x_max":996,"o":"m 263 1022 l 351 1022 l 753 188 l 885 1022 l 996 1022 l 833 0 l 743 0 l 343 836 l 210 0 l 100 0 l 263 1022 m 299 -236 l 340 -229 q 399 -213 378 -224 q 435 -174 421 -203 q 458 -87 450 -144 l 526 -87 q 496 -201 515 -160 q 440 -261 476 -242 q 343 -281 404 -281 l 290 -281 l 299 -236 z "},"Ṅ":{"ha":929,"x_min":100,"x_max":996,"o":"m 263 1022 l 351 1022 l 753 188 l 885 1022 l 996 1022 l 833 0 l 743 0 l 343 836 l 210 0 l 100 0 l 263 1022 m 367 -292 q 349 -274 349 -292 l 349 -269 l 365 -161 q 390 -139 369 -139 l 442 -139 q 460 -157 460 -139 l 460 -161 l 443 -269 q 435 -285 442 -279 q 418 -292 428 -292 l 367 -292 z "},"Ṇ":{"ha":929,"x_min":100,"x_max":996,"o":"m 263 1022 l 351 1022 l 753 188 l 885 1022 l 996 1022 l 833 0 l 743 0 l 343 836 l 210 0 l 100 0 l 263 1022 m 367 -292 q 349 -274 349 -292 l 349 -269 l 365 -161 q 390 -139 369 -139 l 442 -139 q 460 -157 460 -139 l 460 -161 l 443 -269 q 435 -285 442 -279 q 418 -292 428 -292 l 367 -292 z "},"Ŋ":{"ha":929,"x_min":100,"x_max":996,"o":"m 833 0 l 817 -104 q 727 -283 796 -229 q 531 -337 658 -337 q 448 -328 490 -337 q 378 -306 406 -319 l 392 -221 q 528 -239 476 -239 q 649 -206 604 -239 q 708 -90 694 -174 l 729 31 l 343 836 l 210 0 l 100 0 l 263 1022 l 351 1022 l 753 188 l 885 1022 l 996 1022 l 833 0 z "},"Ṉ":{"ha":929,"x_min":100,"x_max":996,"o":"m 263 1022 l 351 1022 l 753 188 l 885 1022 l 996 1022 l 833 0 l 743 0 l 343 836 l 210 0 l 100 0 l 263 1022 m 242 -196 l 610 -196 l 599 -261 l 231 -261 l 242 -196 z "},"Ñ":{"ha":929,"x_min":100,"x_max":996,"o":"m 263 1022 l 351 1022 l 753 188 l 885 1022 l 996 1022 l 833 0 l 743 0 l 343 836 l 210 0 l 100 0 l 263 1022 m 404 1124 q 461 1235 418 1200 q 560 1269 504 1269 q 615 1258 590 1269 q 675 1225 639 1247 q 725 1197 704 1206 q 767 1188 746 1188 q 829 1210 804 1188 q 861 1272 854 1232 l 917 1272 q 863 1163 901 1200 q 764 1125 825 1125 q 712 1135 736 1125 q 651 1168 688 1146 q 598 1197 618 1188 q 556 1207 578 1207 q 494 1185 521 1207 q 461 1124 468 1164 l 404 1124 z "},"O":{"ha":953,"x_min":143,"x_max":971,"o":"m 474 -8 q 291 16 363 -8 q 181 106 219 40 q 143 294 143 172 q 164 525 143 392 q 254 835 196 726 q 403 988 313 944 q 640 1031 494 1031 q 819 1003 747 1031 q 931 907 892 976 q 971 714 971 838 q 949 483 971 625 q 858 176 917 282 q 708 31 799 69 q 474 -8 618 -8 m 492 92 q 665 125 600 92 q 771 247 729 158 q 839 501 813 335 q 860 714 860 629 q 833 849 860 803 q 756 913 807 896 q 624 931 706 931 q 453 897 518 931 q 344 772 388 863 q 274 507 301 681 q 253 299 253 368 q 278 169 253 214 q 353 108 303 125 q 492 92 404 92 z "},"Ó":{"ha":953,"x_min":143,"x_max":971,"o":"m 474 -8 q 291 16 363 -8 q 181 106 219 40 q 143 294 143 172 q 164 525 143 392 q 254 835 196 726 q 403 988 313 944 q 640 1031 494 1031 q 819 1003 747 1031 q 931 907 892 976 q 971 714 971 838 q 949 483 971 625 q 858 176 917 282 q 708 31 799 69 q 474 -8 618 -8 m 492 92 q 665 125 600 92 q 771 247 729 158 q 839 501 813 335 q 860 714 860 629 q 833 849 860 803 q 756 913 807 896 q 624 931 706 931 q 453 897 518 931 q 344 772 388 863 q 274 507 301 681 q 253 299 253 368 q 278 169 253 214 q 353 108 303 125 q 492 92 404 92 m 774 1288 l 872 1288 l 674 1099 l 604 1099 l 774 1288 z "},"Ŏ":{"ha":953,"x_min":143,"x_max":971,"o":"m 474 -8 q 291 16 363 -8 q 181 106 219 40 q 143 294 143 172 q 164 525 143 392 q 254 835 196 726 q 403 988 313 944 q 640 1031 494 1031 q 819 1003 747 1031 q 931 907 892 976 q 971 714 971 838 q 949 483 971 625 q 858 176 917 282 q 708 31 799 69 q 474 -8 618 -8 m 492 92 q 665 125 600 92 q 771 247 729 158 q 839 501 813 335 q 860 714 860 629 q 833 849 860 803 q 756 913 807 896 q 624 931 706 931 q 453 897 518 931 q 344 772 388 863 q 274 507 301 681 q 253 299 253 368 q 278 169 253 214 q 353 108 303 125 q 492 92 404 92 m 647 1096 q 535 1131 578 1096 q 493 1242 493 1165 q 494 1269 493 1257 q 497 1292 496 1282 l 550 1292 q 547 1256 547 1267 q 577 1174 547 1200 q 654 1149 607 1149 q 755 1183 713 1149 q 808 1292 797 1217 l 863 1292 q 788 1142 846 1188 q 647 1096 731 1096 z "},"Ô":{"ha":953,"x_min":143,"x_max":971,"o":"m 474 -8 q 291 16 363 -8 q 181 106 219 40 q 143 294 143 172 q 164 525 143 392 q 254 835 196 726 q 403 988 313 944 q 640 1031 494 1031 q 819 1003 747 1031 q 931 907 892 976 q 971 714 971 838 q 949 483 971 625 q 858 176 917 282 q 708 31 799 69 q 474 -8 618 -8 m 492 92 q 665 125 600 92 q 771 247 729 158 q 839 501 813 335 q 860 714 860 629 q 833 849 860 803 q 756 913 807 896 q 624 931 706 931 q 453 897 518 931 q 344 772 388 863 q 274 507 301 681 q 253 299 253 368 q 278 169 253 214 q 353 108 303 125 q 492 92 404 92 m 638 1286 l 715 1286 l 839 1099 l 772 1099 l 667 1233 l 507 1099 l 439 1099 l 638 1286 z "},"Ố":{"ha":953,"x_min":143,"x_max":1029,"o":"m 474 -8 q 291 16 363 -8 q 181 106 219 40 q 143 294 143 172 q 164 525 143 392 q 254 835 196 726 q 403 988 313 944 q 640 1031 494 1031 q 819 1003 747 1031 q 931 907 892 976 q 971 714 971 838 q 949 483 971 625 q 858 176 917 282 q 708 31 799 69 q 474 -8 618 -8 m 492 92 q 665 125 600 92 q 771 247 729 158 q 839 501 813 335 q 860 714 860 629 q 833 849 860 803 q 756 913 807 896 q 624 931 706 931 q 453 897 518 931 q 344 772 388 863 q 274 507 301 681 q 253 299 253 368 q 278 169 253 214 q 353 108 303 125 q 492 92 404 92 m 940 1385 l 1029 1385 l 850 1206 l 790 1206 l 940 1385 m 636 1235 l 715 1235 l 847 1099 l 781 1099 l 667 1183 l 514 1099 l 447 1099 l 636 1235 z "},"Ộ":{"ha":953,"x_min":143,"x_max":971,"o":"m 474 -8 q 291 16 363 -8 q 181 106 219 40 q 143 294 143 172 q 164 525 143 392 q 254 835 196 726 q 403 988 313 944 q 640 1031 494 1031 q 819 1003 747 1031 q 931 907 892 976 q 971 714 971 838 q 949 483 971 625 q 858 176 917 282 q 708 31 799 69 q 474 -8 618 -8 m 492 92 q 665 125 600 92 q 771 247 729 158 q 839 501 813 335 q 860 714 860 629 q 833 849 860 803 q 756 913 807 896 q 624 931 706 931 q 453 897 518 931 q 344 772 388 863 q 274 507 301 681 q 253 299 253 368 q 278 169 253 214 q 353 108 303 125 q 492 92 404 92 m 638 1286 l 715 1286 l 839 1099 l 772 1099 l 667 1233 l 507 1099 l 439 1099 l 638 1286 m 396 -292 q 378 -274 378 -292 l 378 -269 l 394 -161 q 419 -139 399 -139 l 471 -139 q 489 -157 489 -139 l 489 -161 l 472 -269 q 464 -285 471 -279 q 447 -292 457 -292 l 396 -292 z "},"Ồ":{"ha":953,"x_min":143,"x_max":971,"o":"m 474 -8 q 291 16 363 -8 q 181 106 219 40 q 143 294 143 172 q 164 525 143 392 q 254 835 196 726 q 403 988 313 944 q 640 1031 494 1031 q 819 1003 747 1031 q 931 907 892 976 q 971 714 971 838 q 949 483 971 625 q 858 176 917 282 q 708 31 799 69 q 474 -8 618 -8 m 492 92 q 665 125 600 92 q 771 247 729 158 q 839 501 813 335 q 860 714 860 629 q 833 849 860 803 q 756 913 807 896 q 624 931 706 931 q 453 897 518 931 q 344 772 388 863 q 274 507 301 681 q 253 299 253 368 q 278 169 253 214 q 353 108 303 125 q 492 92 404 92 m 367 1385 l 457 1385 l 550 1206 l 489 1206 l 367 1385 m 629 1235 l 707 1235 l 839 1099 l 772 1099 l 658 1183 l 507 1099 l 439 1099 l 629 1235 z "},"Ổ":{"ha":953,"x_min":143,"x_max":971,"o":"m 474 -8 q 291 16 363 -8 q 181 106 219 40 q 143 294 143 172 q 164 525 143 392 q 254 835 196 726 q 403 988 313 944 q 640 1031 494 1031 q 819 1003 747 1031 q 931 907 892 976 q 971 714 971 838 q 949 483 971 625 q 858 176 917 282 q 708 31 799 69 q 474 -8 618 -8 m 492 92 q 665 125 600 92 q 771 247 729 158 q 839 501 813 335 q 860 714 860 629 q 833 849 860 803 q 756 913 807 896 q 624 931 706 931 q 453 897 518 931 q 344 772 388 863 q 274 507 301 681 q 253 299 253 368 q 278 169 253 214 q 353 108 303 125 q 492 92 404 92 m 822 1217 q 904 1300 904 1243 q 854 1338 904 1338 q 803 1329 825 1338 l 810 1376 q 874 1386 839 1386 q 961 1311 961 1386 q 815 1171 961 1211 l 822 1217 m 640 1235 l 719 1235 l 851 1099 l 785 1099 l 671 1183 l 518 1099 l 451 1099 l 640 1235 z "},"Ỗ":{"ha":953,"x_min":143,"x_max":971,"o":"m 474 -8 q 291 16 363 -8 q 181 106 219 40 q 143 294 143 172 q 164 525 143 392 q 254 835 196 726 q 403 988 313 944 q 640 1031 494 1031 q 819 1003 747 1031 q 931 907 892 976 q 971 714 971 838 q 949 483 971 625 q 858 176 917 282 q 708 31 799 69 q 474 -8 618 -8 m 492 92 q 665 125 600 92 q 771 247 729 158 q 839 501 813 335 q 860 714 860 629 q 833 849 860 803 q 756 913 807 896 q 624 931 706 931 q 453 897 518 931 q 344 772 388 863 q 274 507 301 681 q 253 299 253 368 q 278 169 253 214 q 353 108 303 125 q 492 92 404 92 m 458 1300 q 599 1415 481 1415 q 648 1407 625 1415 q 703 1383 671 1399 q 749 1363 731 1369 q 789 1357 768 1357 q 845 1373 822 1357 q 872 1418 868 1389 l 929 1418 q 786 1300 903 1300 q 739 1308 761 1300 q 685 1331 717 1315 q 635 1351 654 1344 q 596 1358 617 1358 q 542 1343 564 1358 q 514 1300 519 1328 l 458 1300 m 642 1235 l 719 1235 l 850 1099 l 783 1099 l 669 1183 l 518 1099 l 450 1099 l 642 1235 z "},"Ȍ":{"ha":953,"x_min":143,"x_max":971,"o":"m 474 -8 q 291 16 363 -8 q 181 106 219 40 q 143 294 143 172 q 164 525 143 392 q 254 835 196 726 q 403 988 313 944 q 640 1031 494 1031 q 819 1003 747 1031 q 931 907 892 976 q 971 714 971 838 q 949 483 971 625 q 858 176 917 282 q 708 31 799 69 q 474 -8 618 -8 m 492 92 q 665 125 600 92 q 771 247 729 158 q 839 501 813 335 q 860 714 860 629 q 833 849 860 803 q 756 913 807 896 q 624 931 706 931 q 453 897 518 931 q 344 772 388 863 q 274 507 301 681 q 253 299 253 368 q 278 169 253 214 q 353 108 303 125 q 492 92 404 92 m 379 1288 l 474 1288 l 588 1099 l 524 1099 l 379 1288 m 582 1288 l 676 1288 l 790 1099 l 726 1099 l 582 1288 z "},"Ö":{"ha":953,"x_min":143,"x_max":971,"o":"m 474 -8 q 291 16 363 -8 q 181 106 219 40 q 143 294 143 172 q 164 525 143 392 q 254 835 196 726 q 403 988 313 944 q 640 1031 494 1031 q 819 1003 747 1031 q 931 907 892 976 q 971 714 971 838 q 949 483 971 625 q 858 176 917 282 q 708 31 799 69 q 474 -8 618 -8 m 492 92 q 665 125 600 92 q 771 247 729 158 q 839 501 813 335 q 860 714 860 629 q 833 849 860 803 q 756 913 807 896 q 624 931 706 931 q 453 897 518 931 q 344 772 388 863 q 274 507 301 681 q 253 299 253 368 q 278 169 253 214 q 353 108 303 125 q 492 92 404 92 m 469 1129 q 451 1147 451 1129 l 469 1260 q 494 1282 472 1282 l 546 1282 q 564 1264 564 1282 q 546 1151 564 1271 q 538 1135 544 1142 q 521 1129 531 1129 l 469 1129 m 753 1129 q 735 1147 735 1129 l 753 1260 q 779 1282 756 1282 l 829 1282 q 847 1264 847 1282 l 829 1151 q 821 1135 828 1142 q 804 1129 814 1129 l 753 1129 z "},"Ȫ":{"ha":953,"x_min":143,"x_max":971,"o":"m 474 -8 q 291 16 363 -8 q 181 106 219 40 q 143 294 143 172 q 164 525 143 392 q 254 835 196 726 q 403 988 313 944 q 640 1031 494 1031 q 819 1003 747 1031 q 931 907 892 976 q 971 714 971 838 q 949 483 971 625 q 858 176 917 282 q 708 31 799 69 q 474 -8 618 -8 m 492 92 q 665 125 600 92 q 771 247 729 158 q 839 501 813 335 q 860 714 860 629 q 833 849 860 803 q 756 913 807 896 q 624 931 706 931 q 453 897 518 931 q 344 772 388 863 q 274 507 301 681 q 253 299 253 368 q 278 169 253 214 q 353 108 303 125 q 492 92 404 92 m 479 1129 q 461 1147 461 1129 l 479 1260 q 504 1282 482 1282 l 556 1282 q 574 1264 574 1282 q 556 1151 574 1271 q 547 1135 554 1142 q 531 1129 540 1129 l 479 1129 m 763 1129 q 744 1147 744 1129 l 763 1260 q 789 1282 765 1282 l 839 1282 q 857 1264 857 1282 l 839 1151 q 831 1135 838 1142 q 814 1129 824 1129 l 763 1129 m 506 1429 l 874 1429 l 863 1364 l 494 1364 l 506 1429 z "},"Ȱ":{"ha":953,"x_min":143,"x_max":971,"o":"m 474 -8 q 291 16 363 -8 q 181 106 219 40 q 143 294 143 172 q 164 525 143 392 q 254 835 196 726 q 403 988 313 944 q 640 1031 494 1031 q 819 1003 747 1031 q 931 907 892 976 q 971 714 971 838 q 949 483 971 625 q 858 176 917 282 q 708 31 799 69 q 474 -8 618 -8 m 492 92 q 665 125 600 92 q 771 247 729 158 q 839 501 813 335 q 860 714 860 629 q 833 849 860 803 q 756 913 807 896 q 624 931 706 931 q 453 897 518 931 q 344 772 388 863 q 274 507 301 681 q 253 299 253 368 q 278 169 253 214 q 353 108 303 125 q 492 92 404 92 m 632 1139 q 614 1157 614 1139 l 614 1161 l 631 1269 q 656 1292 635 1292 l 707 1292 q 725 1274 725 1292 l 725 1269 l 708 1161 q 700 1145 707 1151 q 683 1139 693 1139 l 632 1139 m 515 1451 l 883 1451 l 872 1386 l 504 1386 l 515 1451 z "},"Ọ":{"ha":953,"x_min":143,"x_max":971,"o":"m 474 -8 q 291 16 363 -8 q 181 106 219 40 q 143 294 143 172 q 164 525 143 392 q 254 835 196 726 q 403 988 313 944 q 640 1031 494 1031 q 819 1003 747 1031 q 931 907 892 976 q 971 714 971 838 q 949 483 971 625 q 858 176 917 282 q 708 31 799 69 q 474 -8 618 -8 m 492 92 q 665 125 600 92 q 771 247 729 158 q 839 501 813 335 q 860 714 860 629 q 833 849 860 803 q 756 913 807 896 q 624 931 706 931 q 453 897 518 931 q 344 772 388 863 q 274 507 301 681 q 253 299 253 368 q 278 169 253 214 q 353 108 303 125 q 492 92 404 92 m 396 -292 q 378 -274 378 -292 l 378 -269 l 394 -161 q 419 -139 399 -139 l 471 -139 q 489 -157 489 -139 l 489 -161 l 472 -269 q 464 -285 471 -279 q 447 -292 457 -292 l 396 -292 z "},"Ò":{"ha":953,"x_min":143,"x_max":971,"o":"m 474 -8 q 291 16 363 -8 q 181 106 219 40 q 143 294 143 172 q 164 525 143 392 q 254 835 196 726 q 403 988 313 944 q 640 1031 494 1031 q 819 1003 747 1031 q 931 907 892 976 q 971 714 971 838 q 949 483 971 625 q 858 176 917 282 q 708 31 799 69 q 474 -8 618 -8 m 492 92 q 665 125 600 92 q 771 247 729 158 q 839 501 813 335 q 860 714 860 629 q 833 849 860 803 q 756 913 807 896 q 624 931 706 931 q 453 897 518 931 q 344 772 388 863 q 274 507 301 681 q 253 299 253 368 q 278 169 253 214 q 353 108 303 125 q 492 92 404 92 m 503 1288 l 597 1288 l 711 1099 l 647 1099 l 503 1288 z "},"Ỏ":{"ha":953,"x_min":143,"x_max":971,"o":"m 474 -8 q 291 16 363 -8 q 181 106 219 40 q 143 294 143 172 q 164 525 143 392 q 254 835 196 726 q 403 988 313 944 q 640 1031 494 1031 q 819 1003 747 1031 q 931 907 892 976 q 971 714 971 838 q 949 483 971 625 q 858 176 917 282 q 708 31 799 69 q 474 -8 618 -8 m 492 92 q 665 125 600 92 q 771 247 729 158 q 839 501 813 335 q 860 714 860 629 q 833 849 860 803 q 756 913 807 896 q 624 931 706 931 q 453 897 518 931 q 344 772 388 863 q 274 507 301 681 q 253 299 253 368 q 278 169 253 214 q 353 108 303 125 q 492 92 404 92 m 614 1125 q 707 1222 707 1151 q 650 1268 707 1268 q 599 1260 624 1268 l 606 1307 q 672 1315 632 1315 q 768 1231 768 1315 q 729 1138 768 1179 q 606 1074 690 1096 l 614 1125 z "},"Ơ":{"ha":956,"x_min":143,"x_max":1071,"o":"m 1071 1179 q 1006 1022 1056 1075 q 889 961 957 969 q 971 714 971 888 q 949 483 971 625 q 858 176 917 282 q 708 31 799 69 q 474 -8 618 -8 q 291 16 363 -8 q 181 106 219 40 q 143 294 143 172 q 164 525 143 392 q 254 835 196 726 q 403 988 313 944 q 640 1031 494 1031 q 751 1022 699 1031 l 857 1022 q 944 1058 910 1022 q 992 1179 978 1094 l 1071 1179 m 839 501 q 860 714 860 629 q 833 849 860 803 q 756 913 807 896 q 624 931 706 931 q 453 897 518 931 q 344 772 388 863 q 274 507 301 681 q 253 299 253 368 q 278 169 253 214 q 353 108 303 125 q 492 92 404 92 q 665 125 600 92 q 771 247 729 158 q 839 501 813 335 z "},"Ớ":{"ha":956,"x_min":143,"x_max":1071,"o":"m 1071 1179 q 1006 1022 1056 1075 q 889 961 957 969 q 971 714 971 888 q 949 483 971 625 q 858 176 917 282 q 708 31 799 69 q 474 -8 618 -8 q 291 16 363 -8 q 181 106 219 40 q 143 294 143 172 q 164 525 143 392 q 254 835 196 726 q 403 988 313 944 q 640 1031 494 1031 q 751 1022 699 1031 l 857 1022 q 944 1058 910 1022 q 992 1179 978 1094 l 1071 1179 m 839 501 q 860 714 860 629 q 833 849 860 803 q 756 913 807 896 q 624 931 706 931 q 453 897 518 931 q 344 772 388 863 q 274 507 301 681 q 253 299 253 368 q 278 169 253 214 q 353 108 303 125 q 492 92 404 92 q 665 125 600 92 q 771 247 729 158 q 839 501 813 335 m 758 1288 l 857 1288 l 658 1099 l 589 1099 l 758 1288 z "},"Ợ":{"ha":956,"x_min":143,"x_max":1071,"o":"m 1071 1179 q 1006 1022 1056 1075 q 889 961 957 969 q 971 714 971 888 q 949 483 971 625 q 858 176 917 282 q 708 31 799 69 q 474 -8 618 -8 q 291 16 363 -8 q 181 106 219 40 q 143 294 143 172 q 164 525 143 392 q 254 835 196 726 q 403 988 313 944 q 640 1031 494 1031 q 751 1022 699 1031 l 857 1022 q 944 1058 910 1022 q 992 1179 978 1094 l 1071 1179 m 839 501 q 860 714 860 629 q 833 849 860 803 q 756 913 807 896 q 624 931 706 931 q 453 897 518 931 q 344 772 388 863 q 274 507 301 681 q 253 299 253 368 q 278 169 253 214 q 353 108 303 125 q 492 92 404 92 q 665 125 600 92 q 771 247 729 158 q 839 501 813 335 m 383 -292 q 365 -274 365 -292 l 365 -269 l 382 -161 q 407 -139 386 -139 l 458 -139 q 476 -157 476 -139 l 476 -161 l 460 -269 q 451 -285 458 -279 q 435 -292 444 -292 l 383 -292 z "},"Ờ":{"ha":956,"x_min":143,"x_max":1071,"o":"m 1071 1179 q 1006 1022 1056 1075 q 889 961 957 969 q 971 714 971 888 q 949 483 971 625 q 858 176 917 282 q 708 31 799 69 q 474 -8 618 -8 q 291 16 363 -8 q 181 106 219 40 q 143 294 143 172 q 164 525 143 392 q 254 835 196 726 q 403 988 313 944 q 640 1031 494 1031 q 751 1022 699 1031 l 857 1022 q 944 1058 910 1022 q 992 1179 978 1094 l 1071 1179 m 839 501 q 860 714 860 629 q 833 849 860 803 q 756 913 807 896 q 624 931 706 931 q 453 897 518 931 q 344 772 388 863 q 274 507 301 681 q 253 299 253 368 q 278 169 253 214 q 353 108 303 125 q 492 92 404 92 q 665 125 600 92 q 771 247 729 158 q 839 501 813 335 m 488 1288 l 582 1288 l 696 1099 l 632 1099 l 488 1288 z "},"Ở":{"ha":956,"x_min":143,"x_max":1071,"o":"m 1071 1179 q 1006 1022 1056 1075 q 889 961 957 969 q 971 714 971 888 q 949 483 971 625 q 858 176 917 282 q 708 31 799 69 q 474 -8 618 -8 q 291 16 363 -8 q 181 106 219 40 q 143 294 143 172 q 164 525 143 392 q 254 835 196 726 q 403 988 313 944 q 640 1031 494 1031 q 751 1022 699 1031 l 857 1022 q 944 1058 910 1022 q 992 1179 978 1094 l 1071 1179 m 839 501 q 860 714 860 629 q 833 849 860 803 q 756 913 807 896 q 624 931 706 931 q 453 897 518 931 q 344 772 388 863 q 274 507 301 681 q 253 299 253 368 q 278 169 253 214 q 353 108 303 125 q 492 92 404 92 q 665 125 600 92 q 771 247 729 158 q 839 501 813 335 m 599 1125 q 692 1222 692 1151 q 635 1268 692 1268 q 583 1260 608 1268 l 590 1307 q 657 1315 617 1315 q 753 1231 753 1315 q 714 1138 753 1179 q 590 1074 675 1096 l 599 1125 z "},"Ỡ":{"ha":956,"x_min":143,"x_max":1071,"o":"m 1071 1179 q 1006 1022 1056 1075 q 889 961 957 969 q 971 714 971 888 q 949 483 971 625 q 858 176 917 282 q 708 31 799 69 q 474 -8 618 -8 q 291 16 363 -8 q 181 106 219 40 q 143 294 143 172 q 164 525 143 392 q 254 835 196 726 q 403 988 313 944 q 640 1031 494 1031 q 751 1022 699 1031 l 857 1022 q 944 1058 910 1022 q 992 1179 978 1094 l 1071 1179 m 839 501 q 860 714 860 629 q 833 849 860 803 q 756 913 807 896 q 624 931 706 931 q 453 897 518 931 q 344 772 388 863 q 274 507 301 681 q 253 299 253 368 q 278 169 253 214 q 353 108 303 125 q 492 92 404 92 q 665 125 600 92 q 771 247 729 158 q 839 501 813 335 m 418 1124 q 475 1235 432 1200 q 574 1269 518 1269 q 628 1258 604 1269 q 689 1225 653 1247 q 739 1197 718 1206 q 781 1188 760 1188 q 843 1210 818 1188 q 875 1272 868 1232 l 931 1272 q 877 1163 915 1200 q 778 1125 839 1125 q 726 1135 750 1125 q 665 1168 701 1146 q 612 1197 632 1188 q 569 1207 592 1207 q 508 1185 535 1207 q 475 1124 482 1164 l 418 1124 z "},"Ő":{"ha":953,"x_min":143,"x_max":971,"o":"m 474 -8 q 291 16 363 -8 q 181 106 219 40 q 143 294 143 172 q 164 525 143 392 q 254 835 196 726 q 403 988 313 944 q 640 1031 494 1031 q 819 1003 747 1031 q 931 907 892 976 q 971 714 971 838 q 949 483 971 625 q 858 176 917 282 q 708 31 799 69 q 474 -8 618 -8 m 492 92 q 665 125 600 92 q 771 247 729 158 q 839 501 813 335 q 860 714 860 629 q 833 849 860 803 q 756 913 807 896 q 624 931 706 931 q 453 897 518 931 q 344 772 388 863 q 274 507 301 681 q 253 299 253 368 q 278 169 253 214 q 353 108 303 125 q 492 92 404 92 m 658 1288 l 747 1288 l 553 1099 l 489 1099 l 658 1288 m 867 1288 l 956 1288 l 761 1099 l 697 1099 l 867 1288 z "},"Ȏ":{"ha":953,"x_min":143,"x_max":971,"o":"m 474 -8 q 291 16 363 -8 q 181 106 219 40 q 143 294 143 172 q 164 525 143 392 q 254 835 196 726 q 403 988 313 944 q 640 1031 494 1031 q 819 1003 747 1031 q 931 907 892 976 q 971 714 971 838 q 949 483 971 625 q 858 176 917 282 q 708 31 799 69 q 474 -8 618 -8 m 492 92 q 665 125 600 92 q 771 247 729 158 q 839 501 813 335 q 860 714 860 629 q 833 849 860 803 q 756 913 807 896 q 624 931 706 931 q 453 897 518 931 q 344 772 388 863 q 274 507 301 681 q 253 299 253 368 q 278 169 253 214 q 353 108 303 125 q 492 92 404 92 m 469 1097 q 544 1247 486 1201 q 685 1293 601 1293 q 797 1258 754 1293 q 839 1147 839 1224 q 838 1119 839 1132 q 835 1097 836 1107 l 782 1097 q 785 1135 785 1122 q 755 1215 785 1189 q 676 1242 725 1242 q 577 1207 619 1242 q 524 1097 535 1172 l 469 1097 z "},"Ō":{"ha":953,"x_min":143,"x_max":971,"o":"m 474 -8 q 291 16 363 -8 q 181 106 219 40 q 143 294 143 172 q 164 525 143 392 q 254 835 196 726 q 403 988 313 944 q 640 1031 494 1031 q 819 1003 747 1031 q 931 907 892 976 q 971 714 971 838 q 949 483 971 625 q 858 176 917 282 q 708 31 799 69 q 474 -8 618 -8 m 492 92 q 665 125 600 92 q 771 247 729 158 q 839 501 813 335 q 860 714 860 629 q 833 849 860 803 q 756 913 807 896 q 624 931 706 931 q 453 897 518 931 q 344 772 388 863 q 274 507 301 681 q 253 299 253 368 q 278 169 253 214 q 353 108 303 125 q 492 92 404 92 m 485 1221 l 853 1221 l 842 1156 l 474 1156 l 485 1221 z "},"Ṓ":{"ha":953,"x_min":143,"x_max":971,"o":"m 474 -8 q 291 16 363 -8 q 181 106 219 40 q 143 294 143 172 q 164 525 143 392 q 254 835 196 726 q 403 988 313 944 q 640 1031 494 1031 q 819 1003 747 1031 q 931 907 892 976 q 971 714 971 838 q 949 483 971 625 q 858 176 917 282 q 708 31 799 69 q 474 -8 618 -8 m 492 92 q 665 125 600 92 q 771 247 729 158 q 839 501 813 335 q 860 714 860 629 q 833 849 860 803 q 756 913 807 896 q 624 931 706 931 q 453 897 518 931 q 344 772 388 863 q 274 507 301 681 q 253 299 253 368 q 278 169 253 214 q 353 108 303 125 q 492 92 404 92 m 485 1221 l 853 1221 l 842 1156 l 474 1156 l 485 1221 m 801 1472 l 900 1472 l 701 1283 l 632 1283 l 801 1472 z "},"Ṑ":{"ha":953,"x_min":143,"x_max":971,"o":"m 474 -8 q 291 16 363 -8 q 181 106 219 40 q 143 294 143 172 q 164 525 143 392 q 254 835 196 726 q 403 988 313 944 q 640 1031 494 1031 q 819 1003 747 1031 q 931 907 892 976 q 971 714 971 838 q 949 483 971 625 q 858 176 917 282 q 708 31 799 69 q 474 -8 618 -8 m 492 92 q 665 125 600 92 q 771 247 729 158 q 839 501 813 335 q 860 714 860 629 q 833 849 860 803 q 756 913 807 896 q 624 931 706 931 q 453 897 518 931 q 344 772 388 863 q 274 507 301 681 q 253 299 253 368 q 278 169 253 214 q 353 108 303 125 q 492 92 404 92 m 485 1221 l 853 1221 l 842 1156 l 474 1156 l 485 1221 m 499 1472 l 593 1472 l 707 1283 l 643 1283 l 499 1472 z "},"Ǫ":{"ha":953,"x_min":143,"x_max":971,"o":"m 640 1031 q 819 1003 747 1031 q 931 907 892 976 q 971 714 971 838 q 949 483 971 625 q 877 213 922 314 q 765 63 832 113 q 597 0 697 14 q 519 -62 547 -26 q 492 -128 492 -99 q 518 -183 492 -164 q 594 -203 544 -203 l 603 -203 l 594 -256 q 558 -260 578 -260 q 463 -231 496 -260 q 429 -157 429 -203 q 458 -75 429 -115 q 544 -6 486 -35 q 474 -8 522 -8 q 291 16 363 -8 q 181 106 219 40 q 143 294 143 172 q 164 525 143 392 q 254 835 196 726 q 403 988 313 944 q 640 1031 494 1031 m 839 501 q 860 714 860 629 q 833 849 860 803 q 756 913 807 896 q 624 931 706 931 q 453 897 518 931 q 344 772 388 863 q 274 507 301 681 q 253 299 253 368 q 278 169 253 214 q 353 108 303 125 q 492 92 404 92 q 665 125 600 92 q 771 247 729 158 q 839 501 813 335 z "},"Ø":{"ha":956,"x_min":76,"x_max":1040,"o":"m 935 901 q 971 714 971 832 q 949 483 971 625 q 858 176 917 282 q 708 31 799 69 q 474 -8 618 -8 q 313 9 378 -8 q 208 69 249 26 l 147 0 l 76 0 l 176 115 q 143 294 143 181 q 164 525 143 392 q 254 835 196 726 q 403 988 313 944 q 640 1031 494 1031 q 797 1011 732 1031 q 903 946 863 992 l 969 1022 l 1040 1022 l 935 901 m 253 299 q 261 213 253 249 l 826 860 q 751 915 800 900 q 624 931 701 931 q 453 897 518 931 q 344 772 388 863 q 274 507 301 681 q 253 299 253 368 m 860 714 q 850 804 860 769 l 285 157 q 360 106 311 121 q 492 92 410 92 q 665 125 600 92 q 771 247 729 158 q 839 501 813 335 q 860 714 860 629 z "},"Ǿ":{"ha":956,"x_min":76,"x_max":1040,"o":"m 935 901 q 971 714 971 832 q 949 483 971 625 q 858 176 917 282 q 708 31 799 69 q 474 -8 618 -8 q 313 9 378 -8 q 208 69 249 26 l 147 0 l 76 0 l 176 115 q 143 294 143 181 q 164 525 143 392 q 254 835 196 726 q 403 988 313 944 q 640 1031 494 1031 q 797 1011 732 1031 q 903 946 863 992 l 969 1022 l 1040 1022 l 935 901 m 253 299 q 261 213 253 249 l 826 860 q 751 915 800 900 q 624 931 701 931 q 453 897 518 931 q 344 772 388 863 q 274 507 301 681 q 253 299 253 368 m 860 714 q 850 804 860 769 l 285 157 q 360 106 311 121 q 492 92 410 92 q 665 125 600 92 q 771 247 729 158 q 839 501 813 335 q 860 714 860 629 m 764 1288 l 863 1288 l 664 1099 l 594 1099 l 764 1288 z "},"Õ":{"ha":953,"x_min":143,"x_max":971,"o":"m 474 -8 q 291 16 363 -8 q 181 106 219 40 q 143 294 143 172 q 164 525 143 392 q 254 835 196 726 q 403 988 313 944 q 640 1031 494 1031 q 819 1003 747 1031 q 931 907 892 976 q 971 714 971 838 q 949 483 971 625 q 858 176 917 282 q 708 31 799 69 q 474 -8 618 -8 m 492 92 q 665 125 600 92 q 771 247 729 158 q 839 501 813 335 q 860 714 860 629 q 833 849 860 803 q 756 913 807 896 q 624 931 706 931 q 453 897 518 931 q 344 772 388 863 q 274 507 301 681 q 253 299 253 368 q 278 169 253 214 q 353 108 303 125 q 492 92 404 92 m 433 1124 q 490 1235 447 1200 q 589 1269 533 1269 q 644 1258 619 1269 q 704 1225 668 1247 q 754 1197 733 1206 q 796 1188 775 1188 q 858 1210 833 1188 q 890 1272 883 1232 l 946 1272 q 892 1163 931 1200 q 793 1125 854 1125 q 741 1135 765 1125 q 681 1168 717 1146 q 627 1197 647 1188 q 585 1207 607 1207 q 524 1185 550 1207 q 490 1124 497 1164 l 433 1124 z "},"Ṍ":{"ha":953,"x_min":143,"x_max":971,"o":"m 474 -8 q 291 16 363 -8 q 181 106 219 40 q 143 294 143 172 q 164 525 143 392 q 254 835 196 726 q 403 988 313 944 q 640 1031 494 1031 q 819 1003 747 1031 q 931 907 892 976 q 971 714 971 838 q 949 483 971 625 q 858 176 917 282 q 708 31 799 69 q 474 -8 618 -8 m 492 92 q 665 125 600 92 q 771 247 729 158 q 839 501 813 335 q 860 714 860 629 q 833 849 860 803 q 756 913 807 896 q 624 931 706 931 q 453 897 518 931 q 344 772 388 863 q 274 507 301 681 q 253 299 253 368 q 278 169 253 214 q 353 108 303 125 q 492 92 404 92 m 433 1124 q 490 1235 447 1200 q 589 1269 533 1269 q 644 1258 619 1269 q 704 1225 668 1247 q 754 1197 733 1206 q 796 1188 775 1188 q 858 1210 833 1188 q 890 1272 883 1232 l 946 1272 q 892 1163 931 1200 q 793 1125 854 1125 q 741 1135 765 1125 q 681 1168 717 1146 q 627 1197 647 1188 q 585 1207 607 1207 q 524 1185 550 1207 q 490 1124 497 1164 l 433 1124 m 811 1514 l 910 1514 l 711 1325 l 642 1325 l 811 1514 z "},"Ṏ":{"ha":953,"x_min":143,"x_max":971,"o":"m 474 -8 q 291 16 363 -8 q 181 106 219 40 q 143 294 143 172 q 164 525 143 392 q 254 835 196 726 q 403 988 313 944 q 640 1031 494 1031 q 819 1003 747 1031 q 931 907 892 976 q 971 714 971 838 q 949 483 971 625 q 858 176 917 282 q 708 31 799 69 q 474 -8 618 -8 m 492 92 q 665 125 600 92 q 771 247 729 158 q 839 501 813 335 q 860 714 860 629 q 833 849 860 803 q 756 913 807 896 q 624 931 706 931 q 453 897 518 931 q 344 772 388 863 q 274 507 301 681 q 253 299 253 368 q 278 169 253 214 q 353 108 303 125 q 492 92 404 92 m 415 1124 q 472 1235 429 1200 q 571 1269 515 1269 q 626 1258 601 1269 q 686 1225 650 1247 q 736 1197 715 1206 q 778 1188 757 1188 q 840 1210 815 1188 q 872 1272 865 1232 l 928 1272 q 874 1163 913 1200 q 775 1125 836 1125 q 723 1135 747 1125 q 663 1168 699 1146 q 609 1197 629 1188 q 567 1207 589 1207 q 506 1185 532 1207 q 472 1124 479 1164 l 415 1124 m 517 1342 q 499 1360 499 1342 l 517 1472 q 542 1494 519 1494 l 593 1494 q 611 1476 611 1494 q 593 1364 611 1483 q 585 1348 592 1354 q 568 1342 578 1342 l 517 1342 m 800 1342 q 782 1360 782 1342 l 800 1472 q 826 1494 803 1494 l 876 1494 q 894 1476 894 1494 l 876 1364 q 868 1348 875 1354 q 851 1342 861 1342 l 800 1342 z "},"Ȭ":{"ha":953,"x_min":143,"x_max":971,"o":"m 474 -8 q 291 16 363 -8 q 181 106 219 40 q 143 294 143 172 q 164 525 143 392 q 254 835 196 726 q 403 988 313 944 q 640 1031 494 1031 q 819 1003 747 1031 q 931 907 892 976 q 971 714 971 838 q 949 483 971 625 q 858 176 917 282 q 708 31 799 69 q 474 -8 618 -8 m 492 92 q 665 125 600 92 q 771 247 729 158 q 839 501 813 335 q 860 714 860 629 q 833 849 860 803 q 756 913 807 896 q 624 931 706 931 q 453 897 518 931 q 344 772 388 863 q 274 507 301 681 q 253 299 253 368 q 278 169 253 214 q 353 108 303 125 q 492 92 404 92 m 504 1419 l 872 1419 l 861 1354 l 493 1354 l 504 1419 m 415 1124 q 472 1235 429 1200 q 571 1269 515 1269 q 626 1258 601 1269 q 686 1225 650 1247 q 736 1197 715 1206 q 778 1188 757 1188 q 840 1210 815 1188 q 872 1272 865 1232 l 928 1272 q 874 1163 913 1200 q 775 1125 836 1125 q 723 1135 747 1125 q 663 1168 699 1146 q 609 1197 629 1188 q 567 1207 589 1207 q 506 1185 532 1207 q 472 1124 479 1164 l 415 1124 z "},"Œ":{"ha":1464,"x_min":143,"x_max":1543,"o":"m 1138 921 q 1043 891 1078 921 q 997 793 1008 861 l 961 560 l 1408 549 l 1394 464 l 944 458 l 944 457 l 907 218 q 904 183 904 193 q 933 113 904 132 q 1018 94 963 94 l 1399 94 l 1385 6 l 1288 1 q 971 -8 1108 -8 q 862 15 910 -8 q 797 92 814 38 q 664 14 742 36 q 474 -8 586 -8 q 291 16 363 -8 q 181 106 219 40 q 143 294 143 172 q 164 525 143 392 q 254 835 196 726 q 403 988 313 944 q 640 1031 494 1031 q 815 1006 744 1031 q 925 918 886 981 q 1126 1022 983 1022 q 1543 1010 1326 1018 l 1528 921 l 1138 921 m 492 92 q 665 125 600 92 q 771 247 729 158 q 839 501 813 335 q 860 714 860 629 q 833 849 860 803 q 756 913 807 896 q 624 931 706 931 q 453 897 518 931 q 344 772 388 863 q 274 507 301 681 q 253 299 253 368 q 278 169 253 214 q 353 108 303 125 q 492 92 404 92 z "},"P":{"ha":833,"x_min":100,"x_max":883,"o":"m 263 1022 l 650 1022 q 883 788 883 1022 q 874 689 883 760 q 760 447 847 518 q 558 376 674 376 q 272 392 419 376 l 210 0 l 100 0 l 263 1022 m 547 475 q 764 699 729 475 q 772 778 772 754 q 735 888 772 854 q 628 922 699 922 l 356 922 l 285 475 l 547 475 z "},"Ṗ":{"ha":833,"x_min":100,"x_max":883,"o":"m 263 1022 l 650 1022 q 883 788 883 1022 q 874 689 883 760 q 760 447 847 518 q 558 376 674 376 q 272 392 419 376 l 210 0 l 100 0 l 263 1022 m 547 475 q 764 699 729 475 q 772 778 772 754 q 735 888 772 854 q 628 922 699 922 l 356 922 l 285 475 l 547 475 m 538 1139 q 519 1157 519 1139 l 519 1161 l 536 1269 q 561 1292 540 1292 l 613 1292 q 631 1274 631 1292 l 631 1269 l 614 1161 q 606 1145 613 1151 q 589 1139 599 1139 l 538 1139 z "},"Þ":{"ha":764,"x_min":100,"x_max":786,"o":"m 538 829 q 786 601 786 829 q 776 504 786 572 q 665 290 753 353 q 460 228 576 228 q 247 242 389 228 l 210 0 l 100 0 l 263 1022 l 369 1022 l 339 829 l 538 829 m 667 514 q 675 592 675 567 q 635 697 675 664 q 517 729 594 729 l 324 729 l 261 326 l 450 326 q 592 370 535 326 q 667 514 650 414 z "},"Q":{"ha":953,"x_min":143,"x_max":971,"o":"m 474 -8 q 291 16 363 -8 q 181 106 219 40 q 143 294 143 172 q 164 525 143 392 q 254 835 196 726 q 403 988 313 944 q 640 1031 494 1031 q 819 1003 747 1031 q 931 907 892 976 q 971 714 971 838 q 949 483 971 625 q 858 176 917 282 q 708 31 799 69 q 474 -8 618 -8 m 492 92 q 665 125 600 92 q 771 247 729 158 q 839 501 813 335 q 860 714 860 629 q 833 849 860 803 q 756 913 807 896 q 624 931 706 931 q 453 897 518 931 q 344 772 388 863 q 274 507 301 681 q 253 299 253 368 q 278 169 253 214 q 353 108 303 125 q 492 92 404 92 m 678 -237 q 526 -191 583 -237 q 465 -50 468 -144 l 540 -50 q 585 -131 551 -107 q 678 -156 618 -156 q 778 -142 729 -156 l 765 -225 q 678 -237 726 -237 z "},"R":{"ha":857,"x_min":100,"x_max":881,"o":"m 263 1022 l 633 1022 q 811 969 742 1022 q 881 788 881 915 q 872 704 881 750 q 786 506 850 563 q 643 436 722 450 l 782 0 l 671 0 l 540 421 q 278 426 414 421 l 210 0 l 100 0 l 263 1022 m 554 510 q 691 552 639 510 q 761 713 743 594 q 767 772 767 742 q 613 922 767 922 l 356 922 l 290 510 l 554 510 z "},"Ŕ":{"ha":857,"x_min":100,"x_max":881,"o":"m 263 1022 l 633 1022 q 811 969 742 1022 q 881 788 881 915 q 872 704 881 750 q 786 506 850 563 q 643 436 722 450 l 782 0 l 671 0 l 540 421 q 278 426 414 421 l 210 0 l 100 0 l 263 1022 m 554 510 q 691 552 639 510 q 761 713 743 594 q 767 772 767 742 q 613 922 767 922 l 356 922 l 290 510 l 554 510 m 674 1288 l 772 1288 l 574 1099 l 504 1099 l 674 1288 z "},"Ř":{"ha":857,"x_min":100,"x_max":881,"o":"m 263 1022 l 633 1022 q 811 969 742 1022 q 881 788 881 915 q 872 704 881 750 q 786 506 850 563 q 643 436 722 450 l 782 0 l 671 0 l 540 421 q 278 426 414 421 l 210 0 l 100 0 l 263 1022 m 554 510 q 691 552 639 510 q 761 713 743 594 q 767 772 767 742 q 613 922 767 922 l 356 922 l 290 510 l 554 510 m 408 1286 l 475 1286 l 579 1151 l 740 1286 l 808 1286 l 610 1099 l 532 1099 l 408 1286 z "},"Ŗ":{"ha":857,"x_min":100,"x_max":881,"o":"m 263 1022 l 633 1022 q 811 969 742 1022 q 881 788 881 915 q 872 704 881 750 q 786 506 850 563 q 643 436 722 450 l 782 0 l 671 0 l 540 421 q 278 426 414 421 l 210 0 l 100 0 l 263 1022 m 554 510 q 691 552 639 510 q 761 713 743 594 q 767 772 767 742 q 613 922 767 922 l 356 922 l 290 510 l 554 510 m 247 -236 l 289 -229 q 348 -213 326 -224 q 384 -174 369 -203 q 407 -87 399 -144 l 475 -87 q 444 -201 464 -160 q 389 -261 425 -242 q 292 -281 353 -281 l 239 -281 l 247 -236 z "},"Ȑ":{"ha":857,"x_min":100,"x_max":881,"o":"m 263 1022 l 633 1022 q 811 969 742 1022 q 881 788 881 915 q 872 704 881 750 q 786 506 850 563 q 643 436 722 450 l 782 0 l 671 0 l 540 421 q 278 426 414 421 l 210 0 l 100 0 l 263 1022 m 554 510 q 691 552 639 510 q 761 713 743 594 q 767 772 767 742 q 613 922 767 922 l 356 922 l 290 510 l 554 510 m 279 1288 l 374 1288 l 488 1099 l 424 1099 l 279 1288 m 482 1288 l 576 1288 l 690 1099 l 626 1099 l 482 1288 z "},"Ṛ":{"ha":857,"x_min":100,"x_max":881,"o":"m 263 1022 l 633 1022 q 811 969 742 1022 q 881 788 881 915 q 872 704 881 750 q 786 506 850 563 q 643 436 722 450 l 782 0 l 671 0 l 540 421 q 278 426 414 421 l 210 0 l 100 0 l 263 1022 m 554 510 q 691 552 639 510 q 761 713 743 594 q 767 772 767 742 q 613 922 767 922 l 356 922 l 290 510 l 554 510 m 347 -292 q 329 -274 329 -292 l 329 -269 l 346 -161 q 371 -139 350 -139 l 422 -139 q 440 -157 440 -139 l 440 -161 l 424 -269 q 415 -285 422 -279 q 399 -292 408 -292 l 347 -292 z "},"Ȓ":{"ha":857,"x_min":100,"x_max":881,"o":"m 263 1022 l 633 1022 q 811 969 742 1022 q 881 788 881 915 q 872 704 881 750 q 786 506 850 563 q 643 436 722 450 l 782 0 l 671 0 l 540 421 q 278 426 414 421 l 210 0 l 100 0 l 263 1022 m 554 510 q 691 552 639 510 q 761 713 743 594 q 767 772 767 742 q 613 922 767 922 l 356 922 l 290 510 l 554 510 m 369 1097 q 444 1247 386 1201 q 585 1293 501 1293 q 697 1258 654 1293 q 739 1147 739 1224 q 738 1119 739 1132 q 735 1097 736 1107 l 682 1097 q 685 1135 685 1122 q 655 1215 685 1189 q 576 1242 625 1242 q 477 1207 519 1242 q 424 1097 435 1172 l 369 1097 z "},"Ṟ":{"ha":857,"x_min":100,"x_max":881,"o":"m 263 1022 l 633 1022 q 811 969 742 1022 q 881 788 881 915 q 872 704 881 750 q 786 506 850 563 q 643 436 722 450 l 782 0 l 671 0 l 540 421 q 278 426 414 421 l 210 0 l 100 0 l 263 1022 m 554 510 q 691 552 639 510 q 761 713 743 594 q 767 772 767 742 q 613 922 767 922 l 356 922 l 290 510 l 554 510 m 213 -196 l 581 -196 l 569 -261 l 201 -261 l 213 -196 z "},"S":{"ha":790,"x_min":100,"x_max":840,"o":"m 418 -8 q 246 -1 335 -8 q 100 17 157 6 l 113 100 q 421 90 249 90 q 589 123 531 90 q 661 246 647 156 l 672 313 q 675 353 675 326 q 641 435 675 410 q 531 460 607 460 l 407 460 q 249 505 303 460 q 194 639 194 550 q 199 693 194 664 l 213 781 q 316 976 235 921 q 540 1031 397 1031 q 691 1022 599 1031 q 840 1001 783 1014 l 828 918 q 531 929 644 929 q 381 896 432 929 q 317 771 331 863 l 307 704 q 303 663 303 682 q 333 586 303 608 q 431 564 364 564 l 557 564 q 726 516 669 564 q 783 378 783 468 q 779 322 783 354 l 765 229 q 659 44 744 97 q 418 -8 574 -8 z "},"Ś":{"ha":790,"x_min":100,"x_max":840,"o":"m 418 -8 q 246 -1 335 -8 q 100 17 157 6 l 113 100 q 421 90 249 90 q 589 123 531 90 q 661 246 647 156 l 672 313 q 675 353 675 326 q 641 435 675 410 q 531 460 607 460 l 407 460 q 249 505 303 460 q 194 639 194 550 q 199 693 194 664 l 213 781 q 316 976 235 921 q 540 1031 397 1031 q 691 1022 599 1031 q 840 1001 783 1014 l 828 918 q 531 929 644 929 q 381 896 432 929 q 317 771 331 863 l 307 704 q 303 663 303 682 q 333 586 303 608 q 431 564 364 564 l 557 564 q 726 516 669 564 q 783 378 783 468 q 779 322 783 354 l 765 229 q 659 44 744 97 q 418 -8 574 -8 m 685 1288 l 783 1288 l 585 1099 l 515 1099 l 685 1288 z "},"Ṥ":{"ha":790,"x_min":100,"x_max":840,"o":"m 418 -8 q 246 -1 335 -8 q 100 17 157 6 l 113 100 q 421 90 249 90 q 589 123 531 90 q 661 246 647 156 l 672 313 q 675 353 675 326 q 641 435 675 410 q 531 460 607 460 l 407 460 q 249 505 303 460 q 194 639 194 550 q 199 693 194 664 l 213 781 q 316 976 235 921 q 540 1031 397 1031 q 691 1022 599 1031 q 840 1001 783 1014 l 828 918 q 531 929 644 929 q 381 896 432 929 q 317 771 331 863 l 307 704 q 303 663 303 682 q 333 586 303 608 q 431 564 364 564 l 557 564 q 726 516 669 564 q 783 378 783 468 q 779 322 783 354 l 765 229 q 659 44 744 97 q 418 -8 574 -8 m 643 1288 l 742 1288 l 543 1099 l 474 1099 l 643 1288 m 618 1333 q 600 1351 600 1333 l 600 1356 l 617 1464 q 642 1486 621 1486 l 693 1486 q 711 1468 711 1486 l 711 1464 l 694 1356 q 686 1340 693 1346 q 669 1333 679 1333 l 618 1333 z "},"Š":{"ha":790,"x_min":100,"x_max":840,"o":"m 418 -8 q 246 -1 335 -8 q 100 17 157 6 l 113 100 q 421 90 249 90 q 589 123 531 90 q 661 246 647 156 l 672 313 q 675 353 675 326 q 641 435 675 410 q 531 460 607 460 l 407 460 q 249 505 303 460 q 194 639 194 550 q 199 693 194 664 l 213 781 q 316 976 235 921 q 540 1031 397 1031 q 691 1022 599 1031 q 840 1001 783 1014 l 828 918 q 531 929 644 929 q 381 896 432 929 q 317 771 331 863 l 307 704 q 303 663 303 682 q 333 586 303 608 q 431 564 364 564 l 557 564 q 726 516 669 564 q 783 378 783 468 q 779 322 783 354 l 765 229 q 659 44 744 97 q 418 -8 574 -8 m 419 1286 l 486 1286 l 590 1151 l 751 1286 l 819 1286 l 621 1099 l 543 1099 l 419 1286 z "},"Ṧ":{"ha":790,"x_min":100,"x_max":840,"o":"m 418 -8 q 246 -1 335 -8 q 100 17 157 6 l 113 100 q 421 90 249 90 q 589 123 531 90 q 661 246 647 156 l 672 313 q 675 353 675 326 q 641 435 675 410 q 531 460 607 460 l 407 460 q 249 505 303 460 q 194 639 194 550 q 199 693 194 664 l 213 781 q 316 976 235 921 q 540 1031 397 1031 q 691 1022 599 1031 q 840 1001 783 1014 l 828 918 q 531 929 644 929 q 381 896 432 929 q 317 771 331 863 l 307 704 q 303 663 303 682 q 333 586 303 608 q 431 564 364 564 l 557 564 q 726 516 669 564 q 783 378 783 468 q 779 322 783 354 l 765 229 q 659 44 744 97 q 418 -8 574 -8 m 419 1286 l 486 1286 l 590 1151 l 751 1286 l 819 1286 l 621 1099 l 543 1099 l 419 1286 m 590 1342 q 572 1360 572 1342 l 572 1364 l 589 1472 q 614 1494 593 1494 l 665 1494 q 683 1476 683 1494 l 683 1472 l 667 1364 q 658 1348 665 1354 q 642 1342 651 1342 l 590 1342 z "},"Ş":{"ha":790,"x_min":100,"x_max":840,"o":"m 307 704 q 303 663 303 682 q 333 586 303 608 q 431 564 364 564 l 557 564 q 726 516 669 564 q 783 378 783 468 q 779 322 783 354 l 765 229 q 659 44 744 97 q 418 -8 574 -8 l 407 -8 l 344 -85 q 432 -160 432 -92 q 415 -212 432 -186 q 363 -256 397 -239 q 282 -274 329 -274 l 236 -274 l 243 -228 l 275 -225 q 340 -197 317 -221 q 363 -151 363 -174 q 344 -116 363 -129 q 279 -101 326 -103 l 357 -7 q 100 17 206 -3 l 113 100 q 421 90 249 90 q 589 123 531 90 q 661 246 647 156 l 672 313 q 675 353 675 326 q 641 435 675 410 q 531 460 607 460 l 407 460 q 249 505 303 460 q 194 639 194 550 q 199 693 194 664 l 213 781 q 316 976 235 921 q 540 1031 397 1031 q 691 1022 599 1031 q 840 1001 783 1014 l 828 918 q 531 929 644 929 q 381 896 432 929 q 317 771 331 863 l 307 704 z "},"Ŝ":{"ha":790,"x_min":100,"x_max":840,"o":"m 418 -8 q 246 -1 335 -8 q 100 17 157 6 l 113 100 q 421 90 249 90 q 589 123 531 90 q 661 246 647 156 l 672 313 q 675 353 675 326 q 641 435 675 410 q 531 460 607 460 l 407 460 q 249 505 303 460 q 194 639 194 550 q 199 693 194 664 l 213 781 q 316 976 235 921 q 540 1031 397 1031 q 691 1022 599 1031 q 840 1001 783 1014 l 828 918 q 531 929 644 929 q 381 896 432 929 q 317 771 331 863 l 307 704 q 303 663 303 682 q 333 586 303 608 q 431 564 364 564 l 557 564 q 726 516 669 564 q 783 378 783 468 q 779 322 783 354 l 765 229 q 659 44 744 97 q 418 -8 574 -8 m 549 1286 l 626 1286 l 750 1099 l 683 1099 l 578 1233 l 418 1099 l 350 1099 l 549 1286 z "},"Ș":{"ha":790,"x_min":100,"x_max":840,"o":"m 418 -8 q 246 -1 335 -8 q 100 17 157 6 l 113 100 q 421 90 249 90 q 589 123 531 90 q 661 246 647 156 l 672 313 q 675 353 675 326 q 641 435 675 410 q 531 460 607 460 l 407 460 q 249 505 303 460 q 194 639 194 550 q 199 693 194 664 l 213 781 q 316 976 235 921 q 540 1031 397 1031 q 691 1022 599 1031 q 840 1001 783 1014 l 828 918 q 531 929 644 929 q 381 896 432 929 q 317 771 331 863 l 307 704 q 303 663 303 682 q 333 586 303 608 q 431 564 364 564 l 557 564 q 726 516 669 564 q 783 378 783 468 q 779 322 783 354 l 765 229 q 659 44 744 97 q 418 -8 574 -8 m 239 -236 l 281 -229 q 340 -213 318 -224 q 376 -174 361 -203 q 399 -87 390 -144 l 467 -87 q 436 -201 456 -160 q 381 -261 417 -242 q 283 -281 344 -281 l 231 -281 l 239 -236 z "},"Ṡ":{"ha":790,"x_min":100,"x_max":840,"o":"m 418 -8 q 246 -1 335 -8 q 100 17 157 6 l 113 100 q 421 90 249 90 q 589 123 531 90 q 661 246 647 156 l 672 313 q 675 353 675 326 q 641 435 675 410 q 531 460 607 460 l 407 460 q 249 505 303 460 q 194 639 194 550 q 199 693 194 664 l 213 781 q 316 976 235 921 q 540 1031 397 1031 q 691 1022 599 1031 q 840 1001 783 1014 l 828 918 q 531 929 644 929 q 381 896 432 929 q 317 771 331 863 l 307 704 q 303 663 303 682 q 333 586 303 608 q 431 564 364 564 l 557 564 q 726 516 669 564 q 783 378 783 468 q 779 322 783 354 l 765 229 q 659 44 744 97 q 418 -8 574 -8 m 543 1139 q 525 1157 525 1139 l 525 1161 l 542 1269 q 567 1292 546 1292 l 618 1292 q 636 1274 636 1292 l 636 1269 l 619 1161 q 611 1145 618 1151 q 594 1139 604 1139 l 543 1139 z "},"Ṣ":{"ha":790,"x_min":100,"x_max":840,"o":"m 418 -8 q 246 -1 335 -8 q 100 17 157 6 l 113 100 q 421 90 249 90 q 589 123 531 90 q 661 246 647 156 l 672 313 q 675 353 675 326 q 641 435 675 410 q 531 460 607 460 l 407 460 q 249 505 303 460 q 194 639 194 550 q 199 693 194 664 l 213 781 q 316 976 235 921 q 540 1031 397 1031 q 691 1022 599 1031 q 840 1001 783 1014 l 828 918 q 531 929 644 929 q 381 896 432 929 q 317 771 331 863 l 307 704 q 303 663 303 682 q 333 586 303 608 q 431 564 364 564 l 557 564 q 726 516 669 564 q 783 378 783 468 q 779 322 783 354 l 765 229 q 659 44 744 97 q 418 -8 574 -8 m 307 -292 q 289 -274 289 -292 l 289 -269 l 306 -161 q 331 -139 310 -139 l 382 -139 q 400 -157 400 -139 l 400 -161 l 383 -269 q 375 -285 382 -279 q 358 -292 368 -292 l 307 -292 z "},"Ṩ":{"ha":790,"x_min":100,"x_max":840,"o":"m 418 -8 q 246 -1 335 -8 q 100 17 157 6 l 113 100 q 421 90 249 90 q 589 123 531 90 q 661 246 647 156 l 672 313 q 675 353 675 326 q 641 435 675 410 q 531 460 607 460 l 407 460 q 249 505 303 460 q 194 639 194 550 q 199 693 194 664 l 213 781 q 316 976 235 921 q 540 1031 397 1031 q 691 1022 599 1031 q 840 1001 783 1014 l 828 918 q 531 929 644 929 q 381 896 432 929 q 317 771 331 863 l 307 704 q 303 663 303 682 q 333 586 303 608 q 431 564 364 564 l 557 564 q 726 516 669 564 q 783 378 783 468 q 779 322 783 354 l 765 229 q 659 44 744 97 q 418 -8 574 -8 m 307 -292 q 289 -274 289 -292 l 289 -269 l 306 -161 q 331 -139 310 -139 l 382 -139 q 400 -157 400 -139 l 400 -161 l 383 -269 q 375 -285 382 -279 q 358 -292 368 -292 l 307 -292 m 543 1139 q 525 1157 525 1139 l 525 1161 l 542 1269 q 567 1292 546 1292 l 618 1292 q 636 1274 636 1292 l 636 1269 l 619 1161 q 611 1145 618 1151 q 594 1139 604 1139 l 543 1139 z "},"ẞ":{"ha":932,"x_min":107,"x_max":953,"o":"m 679 618 l 599 549 l 685 549 q 849 502 792 549 q 906 368 906 456 q 888 235 906 344 q 773 45 864 99 q 538 -8 682 -8 q 435 -2 499 -8 q 339 11 372 4 l 353 106 q 438 94 385 99 q 540 90 490 90 q 703 124 642 90 q 778 244 764 157 q 792 349 792 332 q 759 430 792 403 q 656 457 726 457 l 483 457 l 497 549 l 585 549 l 757 857 l 825 922 l 485 922 q 390 892 426 922 q 344 800 354 861 l 218 0 l 107 0 l 233 799 q 323 968 251 914 q 497 1022 394 1022 l 800 1017 l 953 1013 l 939 990 l 950 996 l 679 618 z "},"Ə":{"ha":844,"x_min":139,"x_max":865,"o":"m 414 -8 q 207 61 275 -8 q 139 285 139 131 q 154 463 139 369 l 168 542 l 738 542 q 754 717 754 649 q 726 848 754 801 q 642 913 699 894 q 486 932 585 932 q 335 924 393 932 q 265 914 276 915 l 279 997 q 538 1031 404 1031 q 719 1005 649 1031 q 828 913 790 979 q 865 729 865 847 q 846 514 865 646 q 753 197 813 311 q 610 37 693 82 q 414 -8 526 -8 m 426 90 q 558 122 504 90 q 653 233 613 154 q 721 451 693 311 l 264 451 q 249 290 249 351 q 290 138 249 185 q 426 90 331 90 z "},"T":{"ha":840,"x_min":183,"x_max":951,"o":"m 504 922 l 183 922 l 199 1022 l 951 1022 l 935 922 l 614 922 l 468 0 l 358 0 l 504 922 z "},"Ŧ":{"ha":835,"x_min":178,"x_max":951,"o":"m 614 922 l 558 571 l 819 571 l 810 507 l 549 507 l 468 0 l 358 0 l 439 507 l 178 507 l 188 571 l 449 571 l 504 922 l 183 922 l 199 1022 l 951 1022 l 935 922 l 614 922 z "},"Ť":{"ha":840,"x_min":183,"x_max":951,"o":"m 504 922 l 183 922 l 199 1022 l 951 1022 l 935 922 l 614 922 l 468 0 l 358 0 l 504 922 m 438 1286 l 504 1286 l 608 1151 l 769 1286 l 838 1286 l 639 1099 l 561 1099 l 438 1286 z "},"Ţ":{"ha":840,"x_min":183,"x_max":951,"o":"m 951 1022 l 935 922 l 614 922 l 468 0 l 432 0 l 363 -85 q 450 -160 450 -92 q 433 -212 450 -186 q 381 -256 415 -239 q 300 -274 347 -274 l 254 -274 l 261 -228 l 293 -225 q 358 -197 335 -221 q 381 -151 381 -174 q 363 -116 381 -129 q 297 -101 344 -103 l 381 0 l 358 0 l 504 922 l 183 922 l 199 1022 l 951 1022 z "},"Ț":{"ha":840,"x_min":183,"x_max":951,"o":"m 504 922 l 183 922 l 199 1022 l 951 1022 l 935 922 l 614 922 l 468 0 l 358 0 l 504 922 m 257 -236 l 299 -229 q 358 -213 336 -224 q 394 -174 379 -203 q 417 -87 408 -144 l 485 -87 q 454 -201 474 -160 q 399 -261 435 -242 q 301 -281 363 -281 l 249 -281 l 257 -236 z "},"Ṫ":{"ha":840,"x_min":183,"x_max":951,"o":"m 504 922 l 183 922 l 199 1022 l 951 1022 l 935 922 l 614 922 l 468 0 l 358 0 l 504 922 m 561 1139 q 543 1157 543 1139 l 543 1161 l 560 1269 q 585 1292 564 1292 l 636 1292 q 654 1274 654 1292 l 654 1269 l 638 1161 q 629 1145 636 1151 q 613 1139 622 1139 l 561 1139 z "},"Ṭ":{"ha":840,"x_min":183,"x_max":951,"o":"m 504 922 l 183 922 l 199 1022 l 951 1022 l 935 922 l 614 922 l 468 0 l 358 0 l 504 922 m 325 -292 q 307 -274 307 -292 l 307 -269 l 324 -161 q 349 -139 328 -139 l 400 -139 q 418 -157 418 -139 l 418 -161 l 401 -269 q 393 -285 400 -279 q 376 -292 386 -292 l 325 -292 z "},"Ṯ":{"ha":840,"x_min":183,"x_max":951,"o":"m 504 922 l 183 922 l 199 1022 l 951 1022 l 935 922 l 614 922 l 468 0 l 358 0 l 504 922 m 208 -196 l 576 -196 l 565 -261 l 197 -261 l 208 -196 z "},"U":{"ha":939,"x_min":156,"x_max":1001,"o":"m 471 -8 q 234 58 313 -8 q 156 278 156 125 q 172 458 156 346 l 263 1022 l 372 1022 l 281 444 q 264 285 264 344 q 317 135 264 179 q 481 90 369 90 q 635 117 575 90 q 736 219 694 143 q 800 444 778 296 l 892 1022 l 1001 1022 l 908 431 q 822 152 879 247 q 682 24 765 57 q 471 -8 599 -8 z "},"Ú":{"ha":939,"x_min":156,"x_max":1001,"o":"m 471 -8 q 234 58 313 -8 q 156 278 156 125 q 172 458 156 346 l 263 1022 l 372 1022 l 281 444 q 264 285 264 344 q 317 135 264 179 q 481 90 369 90 q 635 117 575 90 q 736 219 694 143 q 800 444 778 296 l 892 1022 l 1001 1022 l 908 431 q 822 152 879 247 q 682 24 765 57 q 471 -8 599 -8 m 749 1288 l 847 1288 l 649 1099 l 579 1099 l 749 1288 z "},"Ŭ":{"ha":939,"x_min":156,"x_max":1001,"o":"m 471 -8 q 234 58 313 -8 q 156 278 156 125 q 172 458 156 346 l 263 1022 l 372 1022 l 281 444 q 264 285 264 344 q 317 135 264 179 q 481 90 369 90 q 635 117 575 90 q 736 219 694 143 q 800 444 778 296 l 892 1022 l 1001 1022 l 908 431 q 822 152 879 247 q 682 24 765 57 q 471 -8 599 -8 m 622 1096 q 510 1131 553 1096 q 468 1242 468 1165 q 469 1269 468 1257 q 472 1292 471 1282 l 525 1292 q 522 1256 522 1267 q 552 1174 522 1200 q 629 1149 582 1149 q 730 1183 688 1149 q 783 1292 772 1217 l 838 1292 q 763 1142 821 1188 q 622 1096 706 1096 z "},"Û":{"ha":939,"x_min":156,"x_max":1001,"o":"m 471 -8 q 234 58 313 -8 q 156 278 156 125 q 172 458 156 346 l 263 1022 l 372 1022 l 281 444 q 264 285 264 344 q 317 135 264 179 q 481 90 369 90 q 635 117 575 90 q 736 219 694 143 q 800 444 778 296 l 892 1022 l 1001 1022 l 908 431 q 822 152 879 247 q 682 24 765 57 q 471 -8 599 -8 m 613 1286 l 690 1286 l 814 1099 l 747 1099 l 642 1233 l 482 1099 l 414 1099 l 613 1286 z "},"Ȕ":{"ha":939,"x_min":156,"x_max":1001,"o":"m 471 -8 q 234 58 313 -8 q 156 278 156 125 q 172 458 156 346 l 263 1022 l 372 1022 l 281 444 q 264 285 264 344 q 317 135 264 179 q 481 90 369 90 q 635 117 575 90 q 736 219 694 143 q 800 444 778 296 l 892 1022 l 1001 1022 l 908 431 q 822 152 879 247 q 682 24 765 57 q 471 -8 599 -8 m 354 1288 l 449 1288 l 563 1099 l 499 1099 l 354 1288 m 557 1288 l 651 1288 l 765 1099 l 701 1099 l 557 1288 z "},"Ü":{"ha":939,"x_min":156,"x_max":1001,"o":"m 471 -8 q 234 58 313 -8 q 156 278 156 125 q 172 458 156 346 l 263 1022 l 372 1022 l 281 444 q 264 285 264 344 q 317 135 264 179 q 481 90 369 90 q 635 117 575 90 q 736 219 694 143 q 800 444 778 296 l 892 1022 l 1001 1022 l 908 431 q 822 152 879 247 q 682 24 765 57 q 471 -8 599 -8 m 444 1129 q 426 1147 426 1129 l 444 1260 q 469 1282 447 1282 l 521 1282 q 539 1264 539 1282 q 521 1151 539 1271 q 513 1135 519 1142 q 496 1129 506 1129 l 444 1129 m 728 1129 q 710 1147 710 1129 l 728 1260 q 754 1282 731 1282 l 804 1282 q 822 1264 822 1282 l 804 1151 q 796 1135 803 1142 q 779 1129 789 1129 l 728 1129 z "},"Ụ":{"ha":939,"x_min":156,"x_max":1001,"o":"m 471 -8 q 234 58 313 -8 q 156 278 156 125 q 172 458 156 346 l 263 1022 l 372 1022 l 281 444 q 264 285 264 344 q 317 135 264 179 q 481 90 369 90 q 635 117 575 90 q 736 219 694 143 q 800 444 778 296 l 892 1022 l 1001 1022 l 908 431 q 822 152 879 247 q 682 24 765 57 q 471 -8 599 -8 m 371 -292 q 353 -274 353 -292 l 353 -269 l 369 -161 q 394 -139 374 -139 l 446 -139 q 464 -157 464 -139 l 464 -161 l 447 -269 q 439 -285 446 -279 q 422 -292 432 -292 l 371 -292 z "},"Ù":{"ha":939,"x_min":156,"x_max":1001,"o":"m 471 -8 q 234 58 313 -8 q 156 278 156 125 q 172 458 156 346 l 263 1022 l 372 1022 l 281 444 q 264 285 264 344 q 317 135 264 179 q 481 90 369 90 q 635 117 575 90 q 736 219 694 143 q 800 444 778 296 l 892 1022 l 1001 1022 l 908 431 q 822 152 879 247 q 682 24 765 57 q 471 -8 599 -8 m 478 1288 l 572 1288 l 686 1099 l 622 1099 l 478 1288 z "},"Ủ":{"ha":939,"x_min":156,"x_max":1001,"o":"m 471 -8 q 234 58 313 -8 q 156 278 156 125 q 172 458 156 346 l 263 1022 l 372 1022 l 281 444 q 264 285 264 344 q 317 135 264 179 q 481 90 369 90 q 635 117 575 90 q 736 219 694 143 q 800 444 778 296 l 892 1022 l 1001 1022 l 908 431 q 822 152 879 247 q 682 24 765 57 q 471 -8 599 -8 m 589 1125 q 682 1222 682 1151 q 625 1268 682 1268 q 574 1260 599 1268 l 581 1307 q 647 1315 607 1315 q 743 1231 743 1315 q 704 1138 743 1179 q 581 1074 665 1096 l 589 1125 z "},"Ư":{"ha":938,"x_min":156,"x_max":1160,"o":"m 1160 1179 q 1099 1029 1144 1082 q 992 964 1054 976 l 908 431 q 822 152 879 247 q 682 24 765 57 q 471 -8 599 -8 q 234 58 313 -8 q 156 278 156 125 q 172 458 156 346 l 263 1022 l 372 1022 l 281 444 q 264 285 264 344 q 317 135 264 179 q 481 90 369 90 q 635 117 575 90 q 736 219 694 143 q 800 444 778 296 l 892 1022 l 946 1022 q 1031 1058 997 1022 q 1079 1179 1065 1094 l 1160 1179 z "},"Ứ":{"ha":938,"x_min":156,"x_max":1160,"o":"m 1160 1179 q 1099 1029 1144 1082 q 992 964 1054 976 l 908 431 q 822 152 879 247 q 682 24 765 57 q 471 -8 599 -8 q 234 58 313 -8 q 156 278 156 125 q 172 458 156 346 l 263 1022 l 372 1022 l 281 444 q 264 285 264 344 q 317 135 264 179 q 481 90 369 90 q 635 117 575 90 q 736 219 694 143 q 800 444 778 296 l 892 1022 l 946 1022 q 1031 1058 997 1022 q 1079 1179 1065 1094 l 1160 1179 m 747 1288 l 846 1288 l 647 1099 l 578 1099 l 747 1288 z "},"Ự":{"ha":938,"x_min":156,"x_max":1160,"o":"m 1160 1179 q 1099 1029 1144 1082 q 992 964 1054 976 l 908 431 q 822 152 879 247 q 682 24 765 57 q 471 -8 599 -8 q 234 58 313 -8 q 156 278 156 125 q 172 458 156 346 l 263 1022 l 372 1022 l 281 444 q 264 285 264 344 q 317 135 264 179 q 481 90 369 90 q 635 117 575 90 q 736 219 694 143 q 800 444 778 296 l 892 1022 l 946 1022 q 1031 1058 997 1022 q 1079 1179 1065 1094 l 1160 1179 m 390 -292 q 372 -274 372 -292 l 372 -269 l 389 -161 q 414 -139 393 -139 l 465 -139 q 483 -157 483 -139 l 483 -161 l 467 -269 q 458 -285 465 -279 q 442 -292 451 -292 l 390 -292 z "},"Ừ":{"ha":938,"x_min":156,"x_max":1160,"o":"m 1160 1179 q 1099 1029 1144 1082 q 992 964 1054 976 l 908 431 q 822 152 879 247 q 682 24 765 57 q 471 -8 599 -8 q 234 58 313 -8 q 156 278 156 125 q 172 458 156 346 l 263 1022 l 372 1022 l 281 444 q 264 285 264 344 q 317 135 264 179 q 481 90 369 90 q 635 117 575 90 q 736 219 694 143 q 800 444 778 296 l 892 1022 l 946 1022 q 1031 1058 997 1022 q 1079 1179 1065 1094 l 1160 1179 m 476 1288 l 571 1288 l 685 1099 l 621 1099 l 476 1288 z "},"Ử":{"ha":938,"x_min":156,"x_max":1160,"o":"m 1160 1179 q 1099 1029 1144 1082 q 992 964 1054 976 l 908 431 q 822 152 879 247 q 682 24 765 57 q 471 -8 599 -8 q 234 58 313 -8 q 156 278 156 125 q 172 458 156 346 l 263 1022 l 372 1022 l 281 444 q 264 285 264 344 q 317 135 264 179 q 481 90 369 90 q 635 117 575 90 q 736 219 694 143 q 800 444 778 296 l 892 1022 l 946 1022 q 1031 1058 997 1022 q 1079 1179 1065 1094 l 1160 1179 m 588 1125 q 681 1222 681 1151 q 624 1268 681 1268 q 572 1260 597 1268 l 579 1307 q 646 1315 606 1315 q 742 1231 742 1315 q 703 1138 742 1179 q 579 1074 664 1096 l 588 1125 z "},"Ữ":{"ha":938,"x_min":156,"x_max":1160,"o":"m 1160 1179 q 1099 1029 1144 1082 q 992 964 1054 976 l 908 431 q 822 152 879 247 q 682 24 765 57 q 471 -8 599 -8 q 234 58 313 -8 q 156 278 156 125 q 172 458 156 346 l 263 1022 l 372 1022 l 281 444 q 264 285 264 344 q 317 135 264 179 q 481 90 369 90 q 635 117 575 90 q 736 219 694 143 q 800 444 778 296 l 892 1022 l 946 1022 q 1031 1058 997 1022 q 1079 1179 1065 1094 l 1160 1179 m 407 1124 q 464 1235 421 1200 q 563 1269 507 1269 q 617 1258 593 1269 q 678 1225 642 1247 q 728 1197 707 1206 q 769 1188 749 1188 q 832 1210 807 1188 q 864 1272 857 1232 l 919 1272 q 866 1163 904 1200 q 767 1125 828 1125 q 715 1135 739 1125 q 654 1168 690 1146 q 601 1197 621 1188 q 558 1207 581 1207 q 497 1185 524 1207 q 464 1124 471 1164 l 407 1124 z "},"Ű":{"ha":939,"x_min":156,"x_max":1001,"o":"m 471 -8 q 234 58 313 -8 q 156 278 156 125 q 172 458 156 346 l 263 1022 l 372 1022 l 281 444 q 264 285 264 344 q 317 135 264 179 q 481 90 369 90 q 635 117 575 90 q 736 219 694 143 q 800 444 778 296 l 892 1022 l 1001 1022 l 908 431 q 822 152 879 247 q 682 24 765 57 q 471 -8 599 -8 m 633 1288 l 722 1288 l 528 1099 l 464 1099 l 633 1288 m 842 1288 l 931 1288 l 736 1099 l 672 1099 l 842 1288 z "},"Ȗ":{"ha":939,"x_min":156,"x_max":1001,"o":"m 471 -8 q 234 58 313 -8 q 156 278 156 125 q 172 458 156 346 l 263 1022 l 372 1022 l 281 444 q 264 285 264 344 q 317 135 264 179 q 481 90 369 90 q 635 117 575 90 q 736 219 694 143 q 800 444 778 296 l 892 1022 l 1001 1022 l 908 431 q 822 152 879 247 q 682 24 765 57 q 471 -8 599 -8 m 444 1097 q 519 1247 461 1201 q 660 1293 576 1293 q 772 1258 729 1293 q 814 1147 814 1224 q 813 1119 814 1132 q 810 1097 811 1107 l 757 1097 q 760 1135 760 1122 q 730 1215 760 1189 q 651 1242 700 1242 q 552 1207 594 1242 q 499 1097 510 1172 l 444 1097 z "},"Ū":{"ha":939,"x_min":156,"x_max":1001,"o":"m 471 -8 q 234 58 313 -8 q 156 278 156 125 q 172 458 156 346 l 263 1022 l 372 1022 l 281 444 q 264 285 264 344 q 317 135 264 179 q 481 90 369 90 q 635 117 575 90 q 736 219 694 143 q 800 444 778 296 l 892 1022 l 1001 1022 l 908 431 q 822 152 879 247 q 682 24 765 57 q 471 -8 599 -8 m 460 1221 l 828 1221 l 817 1156 l 449 1156 l 460 1221 z "},"Ṻ":{"ha":939,"x_min":156,"x_max":1001,"o":"m 471 -8 q 234 58 313 -8 q 156 278 156 125 q 172 458 156 346 l 263 1022 l 372 1022 l 281 444 q 264 285 264 344 q 317 135 264 179 q 481 90 369 90 q 635 117 575 90 q 736 219 694 143 q 800 444 778 296 l 892 1022 l 1001 1022 l 908 431 q 822 152 879 247 q 682 24 765 57 q 471 -8 599 -8 m 460 1221 l 828 1221 l 817 1156 l 449 1156 l 460 1221 m 493 1324 q 475 1342 475 1324 l 493 1454 q 518 1476 496 1476 l 569 1476 q 588 1458 588 1476 q 569 1346 588 1465 q 561 1330 568 1336 q 544 1324 554 1324 l 493 1324 m 776 1324 q 758 1342 758 1324 l 776 1454 q 803 1476 779 1476 l 853 1476 q 871 1458 871 1476 l 853 1346 q 844 1330 851 1336 q 828 1324 838 1324 l 776 1324 z "},"Ų":{"ha":939,"x_min":156,"x_max":1001,"o":"m 1001 1022 l 908 431 q 842 189 885 279 q 737 56 799 99 q 589 -1 675 13 q 510 -63 538 -28 q 483 -128 483 -99 q 510 -183 483 -164 q 586 -203 536 -203 l 594 -203 l 586 -256 q 550 -260 569 -260 q 454 -231 488 -260 q 421 -157 421 -203 q 449 -76 421 -115 q 535 -7 478 -36 q 471 -8 514 -8 q 234 58 313 -8 q 156 278 156 125 q 172 458 156 346 l 263 1022 l 372 1022 l 281 444 q 264 285 264 344 q 317 135 264 179 q 481 90 369 90 q 635 117 575 90 q 736 219 694 143 q 800 444 778 296 l 892 1022 l 1001 1022 z "},"Ů":{"ha":939,"x_min":156,"x_max":1001,"o":"m 471 -8 q 234 58 313 -8 q 156 278 156 125 q 172 458 156 346 l 263 1022 l 372 1022 l 281 444 q 264 285 264 344 q 317 135 264 179 q 481 90 369 90 q 635 117 575 90 q 736 219 694 143 q 800 444 778 296 l 892 1022 l 1001 1022 l 908 431 q 822 152 879 247 q 682 24 765 57 q 471 -8 599 -8 m 629 1075 q 492 1199 492 1075 q 540 1322 492 1271 q 672 1372 588 1372 q 770 1342 733 1372 q 807 1249 807 1313 q 760 1124 807 1174 q 629 1075 714 1075 m 633 1121 q 722 1156 692 1121 q 751 1246 751 1192 q 728 1308 751 1289 q 668 1326 704 1326 q 577 1290 608 1326 q 546 1200 546 1254 q 570 1139 546 1157 q 633 1121 594 1121 z "},"Ũ":{"ha":939,"x_min":156,"x_max":1001,"o":"m 471 -8 q 234 58 313 -8 q 156 278 156 125 q 172 458 156 346 l 263 1022 l 372 1022 l 281 444 q 264 285 264 344 q 317 135 264 179 q 481 90 369 90 q 635 117 575 90 q 736 219 694 143 q 800 444 778 296 l 892 1022 l 1001 1022 l 908 431 q 822 152 879 247 q 682 24 765 57 q 471 -8 599 -8 m 408 1124 q 465 1235 422 1200 q 564 1269 508 1269 q 619 1258 594 1269 q 679 1225 643 1247 q 729 1197 708 1206 q 771 1188 750 1188 q 833 1210 808 1188 q 865 1272 858 1232 l 921 1272 q 867 1163 906 1200 q 768 1125 829 1125 q 716 1135 740 1125 q 656 1168 692 1146 q 602 1197 622 1188 q 560 1207 582 1207 q 499 1185 525 1207 q 465 1124 472 1164 l 408 1124 z "},"Ṹ":{"ha":939,"x_min":156,"x_max":1001,"o":"m 471 -8 q 234 58 313 -8 q 156 278 156 125 q 172 458 156 346 l 263 1022 l 372 1022 l 281 444 q 264 285 264 344 q 317 135 264 179 q 481 90 369 90 q 635 117 575 90 q 736 219 694 143 q 800 444 778 296 l 892 1022 l 1001 1022 l 908 431 q 822 152 879 247 q 682 24 765 57 q 471 -8 599 -8 m 408 1124 q 465 1235 422 1200 q 564 1269 508 1269 q 619 1258 594 1269 q 679 1225 643 1247 q 729 1197 708 1206 q 771 1188 750 1188 q 833 1210 808 1188 q 865 1272 858 1232 l 921 1272 q 867 1163 906 1200 q 768 1125 829 1125 q 716 1135 740 1125 q 656 1168 692 1146 q 602 1197 622 1188 q 560 1207 582 1207 q 499 1185 525 1207 q 465 1124 472 1164 l 408 1124 m 790 1519 l 889 1519 l 690 1331 l 621 1331 l 790 1519 z "},"V":{"ha":939,"x_min":211,"x_max":1053,"o":"m 211 1022 l 325 1022 l 483 119 l 939 1022 l 1053 1022 l 535 0 l 393 0 l 211 1022 z "},"W":{"ha":1393,"x_min":211,"x_max":1488,"o":"m 211 1022 l 325 1022 l 439 154 l 793 1022 l 904 1022 l 974 156 l 1374 1022 l 1488 1022 l 1021 0 l 901 0 l 825 863 l 463 0 l 343 0 l 211 1022 z "},"Ẃ":{"ha":1393,"x_min":211,"x_max":1488,"o":"m 211 1022 l 325 1022 l 439 154 l 793 1022 l 904 1022 l 974 156 l 1374 1022 l 1488 1022 l 1021 0 l 901 0 l 825 863 l 463 0 l 343 0 l 211 1022 m 989 1288 l 1088 1288 l 889 1099 l 819 1099 l 989 1288 z "},"Ŵ":{"ha":1393,"x_min":211,"x_max":1488,"o":"m 211 1022 l 325 1022 l 439 154 l 793 1022 l 904 1022 l 974 156 l 1374 1022 l 1488 1022 l 1021 0 l 901 0 l 825 863 l 463 0 l 343 0 l 211 1022 m 853 1286 l 931 1286 l 1054 1099 l 988 1099 l 882 1233 l 722 1099 l 654 1099 l 853 1286 z "},"Ẅ":{"ha":1393,"x_min":211,"x_max":1488,"o":"m 211 1022 l 325 1022 l 439 154 l 793 1022 l 904 1022 l 974 156 l 1374 1022 l 1488 1022 l 1021 0 l 901 0 l 825 863 l 463 0 l 343 0 l 211 1022 m 685 1129 q 667 1147 667 1129 l 685 1260 q 710 1282 688 1282 l 761 1282 q 779 1264 779 1282 q 761 1151 779 1271 q 753 1135 760 1142 q 736 1129 746 1129 l 685 1129 m 968 1129 q 950 1147 950 1129 l 968 1260 q 994 1282 971 1282 l 1044 1282 q 1063 1264 1063 1282 l 1044 1151 q 1036 1135 1043 1142 q 1019 1129 1029 1129 l 968 1129 z "},"Ẁ":{"ha":1393,"x_min":211,"x_max":1488,"o":"m 211 1022 l 325 1022 l 439 154 l 793 1022 l 904 1022 l 974 156 l 1374 1022 l 1488 1022 l 1021 0 l 901 0 l 825 863 l 463 0 l 343 0 l 211 1022 m 718 1288 l 813 1288 l 926 1099 l 863 1099 l 718 1288 z "},"X":{"ha":857,"x_min":49,"x_max":978,"o":"m 571 500 l 810 0 l 689 0 l 492 418 l 174 0 l 49 0 l 446 517 l 206 1022 l 328 1022 l 526 596 l 853 1022 l 978 1022 l 571 500 z "},"Y":{"ha":851,"x_min":194,"x_max":981,"o":"m 411 335 l 194 1022 l 315 1022 l 483 458 l 854 1022 l 981 1022 l 521 335 l 468 0 l 358 0 l 411 335 z "},"Ý":{"ha":851,"x_min":194,"x_max":981,"o":"m 411 335 l 194 1022 l 315 1022 l 483 458 l 854 1022 l 981 1022 l 521 335 l 468 0 l 358 0 l 411 335 m 704 1288 l 803 1288 l 604 1099 l 535 1099 l 704 1288 z "},"Ŷ":{"ha":851,"x_min":194,"x_max":981,"o":"m 411 335 l 194 1022 l 315 1022 l 483 458 l 854 1022 l 981 1022 l 521 335 l 468 0 l 358 0 l 411 335 m 568 1286 l 646 1286 l 769 1099 l 703 1099 l 597 1233 l 438 1099 l 369 1099 l 568 1286 z "},"Ÿ":{"ha":851,"x_min":194,"x_max":981,"o":"m 411 335 l 194 1022 l 315 1022 l 483 458 l 854 1022 l 981 1022 l 521 335 l 468 0 l 358 0 l 411 335 m 400 1129 q 382 1147 382 1129 l 400 1260 q 425 1282 403 1282 l 476 1282 q 494 1264 494 1282 q 476 1151 494 1271 q 468 1135 475 1142 q 451 1129 461 1129 l 400 1129 m 683 1129 q 665 1147 665 1129 l 683 1260 q 710 1282 686 1282 l 760 1282 q 778 1264 778 1282 l 760 1151 q 751 1135 758 1142 q 735 1129 744 1129 l 683 1129 z "},"Ẏ":{"ha":851,"x_min":194,"x_max":981,"o":"m 411 335 l 194 1022 l 315 1022 l 483 458 l 854 1022 l 981 1022 l 521 335 l 468 0 l 358 0 l 411 335 m 326 -292 q 308 -274 308 -292 l 308 -269 l 325 -161 q 350 -139 329 -139 l 401 -139 q 419 -157 419 -139 l 419 -161 l 403 -269 q 394 -285 401 -279 q 378 -292 388 -292 l 326 -292 z "},"Ỵ":{"ha":851,"x_min":194,"x_max":981,"o":"m 411 335 l 194 1022 l 315 1022 l 483 458 l 854 1022 l 981 1022 l 521 335 l 468 0 l 358 0 l 411 335 m 326 -292 q 308 -274 308 -292 l 308 -269 l 325 -161 q 350 -139 329 -139 l 401 -139 q 419 -157 419 -139 l 419 -161 l 403 -269 q 394 -285 401 -279 q 378 -292 388 -292 l 326 -292 z "},"Ỳ":{"ha":851,"x_min":194,"x_max":981,"o":"m 411 335 l 194 1022 l 315 1022 l 483 458 l 854 1022 l 981 1022 l 521 335 l 468 0 l 358 0 l 411 335 m 433 1288 l 528 1288 l 642 1099 l 578 1099 l 433 1288 z "},"Ỷ":{"ha":851,"x_min":194,"x_max":981,"o":"m 411 335 l 194 1022 l 315 1022 l 483 458 l 854 1022 l 981 1022 l 521 335 l 468 0 l 358 0 l 411 335 m 544 1125 q 638 1222 638 1151 q 581 1268 638 1268 q 529 1260 554 1268 l 536 1307 q 603 1315 563 1315 q 699 1231 699 1315 q 660 1138 699 1179 q 536 1074 621 1096 l 544 1125 z "},"Ȳ":{"ha":851,"x_min":194,"x_max":981,"o":"m 411 335 l 194 1022 l 315 1022 l 483 458 l 854 1022 l 981 1022 l 521 335 l 468 0 l 358 0 l 411 335 m 415 1221 l 783 1221 l 772 1156 l 404 1156 l 415 1221 z "},"Ỹ":{"ha":851,"x_min":194,"x_max":981,"o":"m 411 335 l 194 1022 l 315 1022 l 483 458 l 854 1022 l 981 1022 l 521 335 l 468 0 l 358 0 l 411 335 m 364 1124 q 421 1235 378 1200 q 519 1269 464 1269 q 574 1258 550 1269 q 635 1225 599 1247 q 685 1197 664 1206 q 726 1188 706 1188 q 789 1210 764 1188 q 821 1272 814 1232 l 876 1272 q 823 1163 861 1200 q 724 1125 785 1125 q 672 1135 696 1125 q 611 1168 647 1146 q 558 1197 578 1188 q 515 1207 538 1207 q 454 1185 481 1207 q 421 1124 428 1164 l 364 1124 z "},"Z":{"ha":778,"x_min":56,"x_max":869,"o":"m 71 94 l 726 922 l 201 922 l 218 1022 l 869 1022 l 854 926 l 199 99 l 738 99 l 721 0 l 56 0 l 71 94 z "},"Ź":{"ha":778,"x_min":56,"x_max":869,"o":"m 71 94 l 726 922 l 201 922 l 218 1022 l 869 1022 l 854 926 l 199 99 l 738 99 l 721 0 l 56 0 l 71 94 m 668 1288 l 767 1288 l 568 1099 l 499 1099 l 668 1288 z "},"Ž":{"ha":778,"x_min":56,"x_max":869,"o":"m 71 94 l 726 922 l 201 922 l 218 1022 l 869 1022 l 854 926 l 199 99 l 738 99 l 721 0 l 56 0 l 71 94 m 403 1286 l 469 1286 l 574 1151 l 735 1286 l 803 1286 l 604 1099 l 526 1099 l 403 1286 z "},"Ż":{"ha":778,"x_min":56,"x_max":869,"o":"m 71 94 l 726 922 l 201 922 l 218 1022 l 869 1022 l 854 926 l 199 99 l 738 99 l 721 0 l 56 0 l 71 94 m 526 1139 q 508 1157 508 1139 l 508 1161 l 525 1269 q 550 1292 529 1292 l 601 1292 q 619 1274 619 1292 l 619 1269 l 603 1161 q 594 1145 601 1151 q 578 1139 588 1139 l 526 1139 z "},"Ẓ":{"ha":778,"x_min":56,"x_max":869,"o":"m 71 94 l 726 922 l 201 922 l 218 1022 l 869 1022 l 854 926 l 199 99 l 738 99 l 721 0 l 56 0 l 71 94 m 290 -292 q 272 -274 272 -292 l 272 -269 l 289 -161 q 314 -139 293 -139 l 365 -139 q 383 -157 383 -139 l 383 -161 l 367 -269 q 358 -285 365 -279 q 342 -292 351 -292 l 290 -292 z "},"a":{"ha":783,"x_min":115,"x_max":796,"o":"m 335 -8 q 176 54 236 -8 q 115 243 115 117 q 131 386 115 297 q 249 663 160 575 q 511 750 338 750 q 671 728 592 750 q 796 667 750 707 l 690 0 l 596 0 l 593 79 q 478 22 556 51 q 335 -8 400 -8 m 378 82 q 484 99 436 82 q 603 150 532 115 l 676 619 q 606 647 651 635 q 506 658 561 658 q 366 628 419 658 q 283 537 313 599 q 238 372 254 475 q 225 260 225 300 q 266 128 225 174 q 378 82 307 82 z "},"á":{"ha":783,"x_min":115,"x_max":796,"o":"m 335 -8 q 176 54 236 -8 q 115 243 115 117 q 131 386 115 297 q 249 663 160 575 q 511 750 338 750 q 671 728 592 750 q 796 667 750 707 l 690 0 l 596 0 l 593 79 q 478 22 556 51 q 335 -8 400 -8 m 378 82 q 484 99 436 82 q 603 150 532 115 l 676 619 q 606 647 651 635 q 506 658 561 658 q 366 628 419 658 q 283 537 313 599 q 238 372 254 475 q 225 260 225 300 q 266 128 225 174 q 378 82 307 82 m 660 1065 l 758 1065 l 560 876 l 490 876 l 660 1065 z "},"ă":{"ha":783,"x_min":115,"x_max":796,"o":"m 335 -8 q 176 54 236 -8 q 115 243 115 117 q 131 386 115 297 q 249 663 160 575 q 511 750 338 750 q 671 728 592 750 q 796 667 750 707 l 690 0 l 596 0 l 593 79 q 478 22 556 51 q 335 -8 400 -8 m 378 82 q 484 99 436 82 q 603 150 532 115 l 676 619 q 606 647 651 635 q 506 658 561 658 q 366 628 419 658 q 283 537 313 599 q 238 372 254 475 q 225 260 225 300 q 266 128 225 174 q 378 82 307 82 m 533 874 q 422 908 464 874 q 379 1019 379 943 q 381 1047 379 1035 q 383 1069 382 1060 l 436 1069 q 433 1033 433 1044 q 463 952 433 978 q 540 926 493 926 q 641 960 599 926 q 694 1069 683 994 l 749 1069 q 674 919 732 965 q 533 874 617 874 z "},"ắ":{"ha":783,"x_min":115,"x_max":796,"o":"m 335 -8 q 176 54 236 -8 q 115 243 115 117 q 131 386 115 297 q 249 663 160 575 q 511 750 338 750 q 671 728 592 750 q 796 667 750 707 l 690 0 l 596 0 l 593 79 q 478 22 556 51 q 335 -8 400 -8 m 378 82 q 484 99 436 82 q 603 150 532 115 l 676 619 q 606 647 651 635 q 506 658 561 658 q 366 628 419 658 q 283 537 313 599 q 238 372 254 475 q 225 260 225 300 q 266 128 225 174 q 378 82 307 82 m 660 1218 l 758 1218 l 560 1029 l 490 1029 l 660 1218 m 508 864 q 393 894 438 864 q 349 986 349 924 q 351 1019 349 997 l 406 1019 q 404 999 404 1011 q 435 933 404 954 q 514 913 465 913 q 609 936 565 913 q 663 1019 653 960 l 717 1019 q 648 900 704 936 q 508 864 592 864 z "},"ặ":{"ha":783,"x_min":115,"x_max":796,"o":"m 335 -8 q 176 54 236 -8 q 115 243 115 117 q 131 386 115 297 q 249 663 160 575 q 511 750 338 750 q 671 728 592 750 q 796 667 750 707 l 690 0 l 596 0 l 593 79 q 478 22 556 51 q 335 -8 400 -8 m 378 82 q 484 99 436 82 q 603 150 532 115 l 676 619 q 606 647 651 635 q 506 658 561 658 q 366 628 419 658 q 283 537 313 599 q 238 372 254 475 q 225 260 225 300 q 266 128 225 174 q 378 82 307 82 m 533 874 q 422 908 464 874 q 379 1019 379 943 q 381 1047 379 1035 q 383 1069 382 1060 l 436 1069 q 433 1033 433 1044 q 463 952 433 978 q 540 926 493 926 q 641 960 599 926 q 694 1069 683 994 l 749 1069 q 674 919 732 965 q 533 874 617 874 m 314 -292 q 296 -274 296 -292 l 296 -269 l 313 -161 q 338 -139 317 -139 l 389 -139 q 407 -157 407 -139 l 407 -161 l 390 -269 q 382 -285 389 -279 q 365 -292 375 -292 l 314 -292 z "},"ằ":{"ha":783,"x_min":115,"x_max":796,"o":"m 335 -8 q 176 54 236 -8 q 115 243 115 117 q 131 386 115 297 q 249 663 160 575 q 511 750 338 750 q 671 728 592 750 q 796 667 750 707 l 690 0 l 596 0 l 593 79 q 478 22 556 51 q 335 -8 400 -8 m 378 82 q 484 99 436 82 q 603 150 532 115 l 676 619 q 606 647 651 635 q 506 658 561 658 q 366 628 419 658 q 283 537 313 599 q 238 372 254 475 q 225 260 225 300 q 266 128 225 174 q 378 82 307 82 m 381 1218 l 475 1218 l 589 1029 l 525 1029 l 381 1218 m 508 864 q 393 894 438 864 q 349 986 349 924 q 351 1019 349 997 l 406 1019 q 404 999 404 1011 q 435 933 404 954 q 514 913 465 913 q 663 1019 646 913 l 717 1019 q 648 900 704 936 q 508 864 592 864 z "},"ẳ":{"ha":783,"x_min":115,"x_max":796,"o":"m 335 -8 q 176 54 236 -8 q 115 243 115 117 q 131 386 115 297 q 249 663 160 575 q 511 750 338 750 q 671 728 592 750 q 796 667 750 707 l 690 0 l 596 0 l 593 79 q 478 22 556 51 q 335 -8 400 -8 m 378 82 q 484 99 436 82 q 603 150 532 115 l 676 619 q 606 647 651 635 q 506 658 561 658 q 366 628 419 658 q 283 537 313 599 q 238 372 254 475 q 225 260 225 300 q 266 128 225 174 q 378 82 307 82 m 504 1022 q 597 1119 597 1049 q 540 1165 597 1165 q 489 1157 514 1165 l 496 1204 q 563 1213 522 1213 q 658 1128 658 1213 q 619 1035 658 1076 q 496 971 581 993 l 504 1022 m 508 864 q 393 894 438 864 q 349 986 349 924 q 351 1019 349 997 l 406 1019 q 404 999 404 1011 q 435 933 404 954 q 514 913 465 913 q 610 935 568 913 q 663 1019 653 958 l 717 1019 q 648 900 704 936 q 508 864 592 864 z "},"ẵ":{"ha":783,"x_min":115,"x_max":799,"o":"m 335 -8 q 176 54 236 -8 q 115 243 115 117 q 131 386 115 297 q 249 663 160 575 q 511 750 338 750 q 671 728 592 750 q 796 667 750 707 l 690 0 l 596 0 l 593 79 q 478 22 556 51 q 335 -8 400 -8 m 378 82 q 484 99 436 82 q 603 150 532 115 l 676 619 q 606 647 651 635 q 506 658 561 658 q 366 628 419 658 q 283 537 313 599 q 238 372 254 475 q 225 260 225 300 q 266 128 225 174 q 378 82 307 82 m 326 1068 q 378 1157 340 1131 q 468 1183 417 1183 q 518 1176 496 1183 q 572 1151 540 1168 q 622 1131 604 1138 q 658 1125 639 1125 q 715 1141 692 1125 q 742 1186 738 1157 l 799 1186 q 656 1069 775 1069 q 608 1077 631 1069 q 554 1100 586 1085 q 505 1121 524 1114 q 465 1128 486 1128 q 412 1113 435 1128 q 383 1068 389 1097 l 326 1068 m 515 864 q 400 894 444 864 q 356 986 356 924 q 358 1019 356 997 l 411 1019 q 410 997 410 1011 q 440 933 410 954 q 519 913 471 913 q 619 935 578 913 q 669 1019 660 958 l 724 1019 q 655 900 711 936 q 515 864 599 864 z "},"â":{"ha":783,"x_min":115,"x_max":796,"o":"m 335 -8 q 176 54 236 -8 q 115 243 115 117 q 131 386 115 297 q 249 663 160 575 q 511 750 338 750 q 671 728 592 750 q 796 667 750 707 l 690 0 l 596 0 l 593 79 q 478 22 556 51 q 335 -8 400 -8 m 378 82 q 484 99 436 82 q 603 150 532 115 l 676 619 q 606 647 651 635 q 506 658 561 658 q 366 628 419 658 q 283 537 313 599 q 238 372 254 475 q 225 260 225 300 q 266 128 225 174 q 378 82 307 82 m 532 1064 l 610 1064 l 733 876 l 667 876 l 561 1011 l 401 876 l 333 876 l 532 1064 z "},"ấ":{"ha":783,"x_min":115,"x_max":901,"o":"m 335 -8 q 176 54 236 -8 q 115 243 115 117 q 131 386 115 297 q 249 663 160 575 q 511 750 338 750 q 671 728 592 750 q 796 667 750 707 l 690 0 l 596 0 l 593 79 q 478 22 556 51 q 335 -8 400 -8 m 378 82 q 484 99 436 82 q 603 150 532 115 l 676 619 q 606 647 651 635 q 506 658 561 658 q 366 628 419 658 q 283 537 313 599 q 238 372 254 475 q 225 260 225 300 q 266 128 225 174 q 378 82 307 82 m 813 1163 l 901 1163 l 722 983 l 663 983 l 813 1163 m 508 1013 l 588 1013 l 719 876 l 653 876 l 539 961 l 386 876 l 319 876 l 508 1013 z "},"ậ":{"ha":783,"x_min":115,"x_max":796,"o":"m 335 -8 q 176 54 236 -8 q 115 243 115 117 q 131 386 115 297 q 249 663 160 575 q 511 750 338 750 q 671 728 592 750 q 796 667 750 707 l 690 0 l 596 0 l 593 79 q 478 22 556 51 q 335 -8 400 -8 m 378 82 q 484 99 436 82 q 603 150 532 115 l 676 619 q 606 647 651 635 q 506 658 561 658 q 366 628 419 658 q 283 537 313 599 q 238 372 254 475 q 225 260 225 300 q 266 128 225 174 q 378 82 307 82 m 532 1064 l 610 1064 l 733 876 l 667 876 l 561 1011 l 401 876 l 333 876 l 532 1064 m 314 -292 q 296 -274 296 -292 l 296 -269 l 313 -161 q 338 -139 317 -139 l 389 -139 q 407 -157 407 -139 l 407 -161 l 390 -269 q 382 -285 389 -279 q 365 -292 375 -292 l 314 -292 z "},"ầ":{"ha":783,"x_min":115,"x_max":796,"o":"m 335 -8 q 176 54 236 -8 q 115 243 115 117 q 131 386 115 297 q 249 663 160 575 q 511 750 338 750 q 671 728 592 750 q 796 667 750 707 l 690 0 l 596 0 l 593 79 q 478 22 556 51 q 335 -8 400 -8 m 378 82 q 484 99 436 82 q 603 150 532 115 l 676 619 q 606 647 651 635 q 506 658 561 658 q 366 628 419 658 q 283 537 313 599 q 238 372 254 475 q 225 260 225 300 q 266 128 225 174 q 378 82 307 82 m 239 1163 l 329 1163 l 422 983 l 361 983 l 239 1163 m 501 1013 l 579 1013 l 711 876 l 644 876 l 531 961 l 379 876 l 311 876 l 501 1013 z "},"ẩ":{"ha":783,"x_min":115,"x_max":832,"o":"m 335 -8 q 176 54 236 -8 q 115 243 115 117 q 131 386 115 297 q 249 663 160 575 q 511 750 338 750 q 671 728 592 750 q 796 667 750 707 l 690 0 l 596 0 l 593 79 q 478 22 556 51 q 335 -8 400 -8 m 378 82 q 484 99 436 82 q 603 150 532 115 l 676 619 q 606 647 651 635 q 506 658 561 658 q 366 628 419 658 q 283 537 313 599 q 238 372 254 475 q 225 260 225 300 q 266 128 225 174 q 378 82 307 82 m 693 994 q 775 1078 775 1021 q 725 1115 775 1115 q 674 1107 696 1115 l 681 1154 q 744 1164 710 1164 q 832 1089 832 1164 q 686 949 832 989 l 693 994 m 511 1013 l 590 1013 l 722 876 l 656 876 l 542 961 l 389 876 l 322 876 l 511 1013 z "},"ẫ":{"ha":783,"x_min":115,"x_max":800,"o":"m 335 -8 q 176 54 236 -8 q 115 243 115 117 q 131 386 115 297 q 249 663 160 575 q 511 750 338 750 q 671 728 592 750 q 796 667 750 707 l 690 0 l 596 0 l 593 79 q 478 22 556 51 q 335 -8 400 -8 m 378 82 q 484 99 436 82 q 603 150 532 115 l 676 619 q 606 647 651 635 q 506 658 561 658 q 366 628 419 658 q 283 537 313 599 q 238 372 254 475 q 225 260 225 300 q 266 128 225 174 q 378 82 307 82 m 329 1078 q 469 1193 351 1193 q 519 1185 496 1193 q 574 1161 542 1176 q 620 1141 601 1147 q 660 1135 639 1135 q 716 1151 693 1135 q 743 1196 739 1167 l 800 1196 q 657 1078 774 1078 q 610 1085 632 1078 q 556 1108 588 1093 q 506 1129 525 1122 q 467 1136 488 1136 q 413 1121 435 1136 q 385 1078 390 1106 l 329 1078 m 513 1013 l 590 1013 l 721 876 l 654 876 l 540 961 l 389 876 l 321 876 l 513 1013 z "},"ȁ":{"ha":783,"x_min":115,"x_max":796,"o":"m 335 -8 q 176 54 236 -8 q 115 243 115 117 q 131 386 115 297 q 249 663 160 575 q 511 750 338 750 q 671 728 592 750 q 796 667 750 707 l 690 0 l 596 0 l 593 79 q 478 22 556 51 q 335 -8 400 -8 m 378 82 q 484 99 436 82 q 603 150 532 115 l 676 619 q 606 647 651 635 q 506 658 561 658 q 366 628 419 658 q 283 537 313 599 q 238 372 254 475 q 225 260 225 300 q 266 128 225 174 q 378 82 307 82 m 281 1065 l 375 1065 l 489 876 l 425 876 l 281 1065 m 483 1065 l 578 1065 l 692 876 l 628 876 l 483 1065 z "},"ä":{"ha":783,"x_min":115,"x_max":796,"o":"m 335 -8 q 176 54 236 -8 q 115 243 115 117 q 131 386 115 297 q 249 663 160 575 q 511 750 338 750 q 671 728 592 750 q 796 667 750 707 l 690 0 l 596 0 l 593 79 q 478 22 556 51 q 335 -8 400 -8 m 378 82 q 484 99 436 82 q 603 150 532 115 l 676 619 q 606 647 651 635 q 506 658 561 658 q 366 628 419 658 q 283 537 313 599 q 238 372 254 475 q 225 260 225 300 q 266 128 225 174 q 378 82 307 82 m 354 907 q 336 925 336 907 l 354 1038 q 379 1060 357 1060 l 431 1060 q 449 1042 449 1060 q 431 929 449 1049 q 422 913 429 919 q 406 907 415 907 l 354 907 m 638 907 q 619 925 619 907 l 638 1038 q 664 1060 640 1060 l 714 1060 q 732 1042 732 1060 l 714 929 q 706 913 713 919 q 689 907 699 907 l 638 907 z "},"ạ":{"ha":783,"x_min":115,"x_max":796,"o":"m 335 -8 q 176 54 236 -8 q 115 243 115 117 q 131 386 115 297 q 249 663 160 575 q 511 750 338 750 q 671 728 592 750 q 796 667 750 707 l 690 0 l 596 0 l 593 79 q 478 22 556 51 q 335 -8 400 -8 m 378 82 q 484 99 436 82 q 603 150 532 115 l 676 619 q 606 647 651 635 q 506 658 561 658 q 366 628 419 658 q 283 537 313 599 q 238 372 254 475 q 225 260 225 300 q 266 128 225 174 q 378 82 307 82 m 314 -292 q 296 -274 296 -292 l 296 -269 l 313 -161 q 338 -139 317 -139 l 389 -139 q 407 -157 407 -139 l 407 -161 l 390 -269 q 382 -285 389 -279 q 365 -292 375 -292 l 314 -292 z "},"à":{"ha":783,"x_min":115,"x_max":796,"o":"m 335 -8 q 176 54 236 -8 q 115 243 115 117 q 131 386 115 297 q 249 663 160 575 q 511 750 338 750 q 671 728 592 750 q 796 667 750 707 l 690 0 l 596 0 l 593 79 q 478 22 556 51 q 335 -8 400 -8 m 378 82 q 484 99 436 82 q 603 150 532 115 l 676 619 q 606 647 651 635 q 506 658 561 658 q 366 628 419 658 q 283 537 313 599 q 238 372 254 475 q 225 260 225 300 q 266 128 225 174 q 378 82 307 82 m 385 1065 l 479 1065 l 593 876 l 529 876 l 385 1065 z "},"ả":{"ha":783,"x_min":115,"x_max":796,"o":"m 335 -8 q 176 54 236 -8 q 115 243 115 117 q 131 386 115 297 q 249 663 160 575 q 511 750 338 750 q 671 728 592 750 q 796 667 750 707 l 690 0 l 596 0 l 593 79 q 478 22 556 51 q 335 -8 400 -8 m 378 82 q 484 99 436 82 q 603 150 532 115 l 676 619 q 606 647 651 635 q 506 658 561 658 q 366 628 419 658 q 283 537 313 599 q 238 372 254 475 q 225 260 225 300 q 266 128 225 174 q 378 82 307 82 m 503 889 q 596 986 596 915 q 539 1032 596 1032 q 488 1024 513 1032 l 494 1071 q 561 1079 521 1079 q 657 994 657 1079 q 618 901 657 943 q 494 838 579 860 l 503 889 z "},"ȃ":{"ha":783,"x_min":115,"x_max":796,"o":"m 335 -8 q 176 54 236 -8 q 115 243 115 117 q 131 386 115 297 q 249 663 160 575 q 511 750 338 750 q 671 728 592 750 q 796 667 750 707 l 690 0 l 596 0 l 593 79 q 478 22 556 51 q 335 -8 400 -8 m 378 82 q 484 99 436 82 q 603 150 532 115 l 676 619 q 606 647 651 635 q 506 658 561 658 q 366 628 419 658 q 283 537 313 599 q 238 372 254 475 q 225 260 225 300 q 266 128 225 174 q 378 82 307 82 m 342 875 q 416 1025 358 979 q 557 1071 474 1071 q 669 1036 626 1071 q 711 925 711 1001 q 710 897 711 910 q 707 875 708 885 l 654 875 q 657 913 657 900 q 627 993 657 967 q 549 1019 597 1019 q 449 985 492 1019 q 396 875 407 950 l 342 875 z "},"ā":{"ha":783,"x_min":115,"x_max":796,"o":"m 335 -8 q 176 54 236 -8 q 115 243 115 117 q 131 386 115 297 q 249 663 160 575 q 511 750 338 750 q 671 728 592 750 q 796 667 750 707 l 690 0 l 596 0 l 593 79 q 478 22 556 51 q 335 -8 400 -8 m 378 82 q 484 99 436 82 q 603 150 532 115 l 676 619 q 606 647 651 635 q 506 658 561 658 q 366 628 419 658 q 283 537 313 599 q 238 372 254 475 q 225 260 225 300 q 266 128 225 174 q 378 82 307 82 m 371 999 l 739 999 l 728 933 l 360 933 l 371 999 z "},"ą":{"ha":783,"x_min":115,"x_max":796,"o":"m 582 -128 q 608 -183 582 -164 q 685 -203 635 -203 l 693 -203 l 685 -256 q 649 -260 668 -260 q 553 -231 586 -260 q 519 -157 519 -203 q 551 -71 519 -112 q 647 0 583 -29 l 596 0 l 593 79 q 478 22 556 51 q 335 -8 400 -8 q 176 54 236 -8 q 115 243 115 117 q 131 386 115 297 q 249 663 160 575 q 511 750 338 750 q 671 728 592 750 q 796 667 750 707 l 690 0 l 689 0 q 610 -62 638 -26 q 582 -128 582 -99 m 676 619 q 606 647 651 635 q 506 658 561 658 q 366 628 419 658 q 283 537 313 599 q 238 372 254 475 q 225 260 225 300 q 266 128 225 174 q 378 82 307 82 q 484 99 436 82 q 603 150 532 115 l 676 619 z "},"å":{"ha":783,"x_min":115,"x_max":796,"o":"m 335 -8 q 176 54 236 -8 q 115 243 115 117 q 131 386 115 297 q 249 663 160 575 q 511 750 338 750 q 671 728 592 750 q 796 667 750 707 l 690 0 l 596 0 l 593 79 q 478 22 556 51 q 335 -8 400 -8 m 378 82 q 484 99 436 82 q 603 150 532 115 l 676 619 q 606 647 651 635 q 506 658 561 658 q 366 628 419 658 q 283 537 313 599 q 238 372 254 475 q 225 260 225 300 q 266 128 225 174 q 378 82 307 82 m 540 825 q 403 949 403 825 q 451 1072 403 1021 q 583 1122 499 1122 q 681 1092 644 1122 q 718 999 718 1063 q 672 874 718 924 q 540 825 625 825 m 544 871 q 633 906 603 871 q 663 996 663 942 q 639 1058 663 1039 q 579 1076 615 1076 q 488 1040 519 1076 q 457 950 457 1004 q 481 889 457 907 q 544 871 506 871 z "},"ǻ":{"ha":783,"x_min":115,"x_max":822,"o":"m 335 -8 q 176 54 236 -8 q 115 243 115 117 q 131 386 115 297 q 249 663 160 575 q 511 750 338 750 q 671 728 592 750 q 796 667 750 707 l 690 0 l 596 0 l 593 79 q 478 22 556 51 q 335 -8 400 -8 m 378 82 q 484 99 436 82 q 603 150 532 115 l 676 619 q 606 647 651 635 q 506 658 561 658 q 366 628 419 658 q 283 537 313 599 q 238 372 254 475 q 225 260 225 300 q 266 128 225 174 q 378 82 307 82 m 540 825 q 403 949 403 825 q 451 1072 403 1021 q 583 1122 499 1122 q 681 1092 644 1122 q 718 999 718 1063 q 672 874 718 924 q 540 825 625 825 m 544 871 q 633 906 603 871 q 663 996 663 942 q 639 1058 663 1039 q 579 1076 615 1076 q 488 1040 519 1076 q 457 950 457 1004 q 481 889 457 907 q 544 871 506 871 m 724 1343 l 822 1343 l 624 1154 l 554 1154 l 724 1343 z "},"ã":{"ha":783,"x_min":115,"x_max":818,"o":"m 335 -8 q 176 54 236 -8 q 115 243 115 117 q 131 386 115 297 q 249 663 160 575 q 511 750 338 750 q 671 728 592 750 q 796 667 750 707 l 690 0 l 596 0 l 593 79 q 478 22 556 51 q 335 -8 400 -8 m 378 82 q 484 99 436 82 q 603 150 532 115 l 676 619 q 606 647 651 635 q 506 658 561 658 q 366 628 419 658 q 283 537 313 599 q 238 372 254 475 q 225 260 225 300 q 266 128 225 174 q 378 82 307 82 m 306 901 q 363 1013 319 978 q 461 1047 406 1047 q 516 1036 492 1047 q 576 1003 540 1025 q 626 974 606 983 q 668 965 647 965 q 731 988 706 965 q 763 1050 756 1010 l 818 1050 q 765 940 803 978 q 665 903 726 903 q 613 913 638 903 q 553 946 589 924 q 499 975 519 965 q 457 985 479 985 q 396 963 422 985 q 363 901 369 942 l 306 901 z "},"æ":{"ha":1247,"x_min":119,"x_max":1261,"o":"m 331 -8 q 176 53 233 -8 q 119 242 119 114 q 216 613 119 475 q 508 750 313 750 q 640 733 571 750 q 756 683 710 715 q 860 735 794 718 q 990 753 926 753 q 1261 539 1261 753 q 1175 369 1261 432 q 935 307 1089 307 q 801 314 868 307 q 717 328 735 321 q 711 247 711 278 q 750 119 711 161 q 889 76 789 76 l 1169 76 l 1158 10 q 854 -8 1021 -8 q 709 25 768 -8 q 629 115 650 58 q 488 28 565 64 q 331 -8 410 -8 m 900 375 q 1089 414 1022 375 q 1156 526 1156 453 q 1115 630 1156 593 q 999 667 1074 667 q 849 635 903 667 q 768 544 794 603 q 724 388 742 486 q 788 380 733 385 q 900 375 843 375 m 365 83 q 498 115 431 83 q 610 190 565 147 q 604 254 604 217 q 626 446 604 349 q 694 613 649 543 q 614 644 663 629 q 515 658 565 658 q 294 544 360 658 q 229 261 229 431 q 365 83 229 83 z "},"ǽ":{"ha":1247,"x_min":119,"x_max":1261,"o":"m 331 -8 q 176 53 233 -8 q 119 242 119 114 q 216 613 119 475 q 508 750 313 750 q 640 733 571 750 q 756 683 710 715 q 860 735 794 718 q 990 753 926 753 q 1261 539 1261 753 q 1175 369 1261 432 q 935 307 1089 307 q 801 314 868 307 q 717 328 735 321 q 711 247 711 278 q 750 119 711 161 q 889 76 789 76 l 1169 76 l 1158 10 q 854 -8 1021 -8 q 709 25 768 -8 q 629 115 650 58 q 488 28 565 64 q 331 -8 410 -8 m 900 375 q 1089 414 1022 375 q 1156 526 1156 453 q 1115 630 1156 593 q 999 667 1074 667 q 849 635 903 667 q 768 544 794 603 q 724 388 742 486 q 788 380 733 385 q 900 375 843 375 m 365 83 q 498 115 431 83 q 610 190 565 147 q 604 254 604 217 q 626 446 604 349 q 694 613 649 543 q 614 644 663 629 q 515 658 565 658 q 294 544 360 658 q 229 261 229 431 q 365 83 229 83 m 890 1065 l 989 1065 l 790 876 l 721 876 l 890 1065 z "},"b":{"ha":792,"x_min":94,"x_max":792,"o":"m 463 -8 q 331 16 397 -8 q 218 75 264 40 l 189 0 l 94 0 l 263 1060 l 374 1060 l 313 675 q 444 730 374 710 q 565 750 514 750 q 731 685 669 750 q 792 500 792 621 q 775 339 792 443 q 669 85 750 178 q 463 -8 589 -8 m 435 82 q 590 153 533 82 q 669 368 647 224 q 681 485 681 439 q 640 617 681 575 q 532 658 600 658 q 300 597 429 658 l 229 146 q 325 99 276 117 q 435 82 374 82 z "},"ḃ":{"ha":792,"x_min":94,"x_max":792,"o":"m 463 -8 q 331 16 397 -8 q 218 75 264 40 l 189 0 l 94 0 l 263 1060 l 374 1060 l 313 675 q 444 730 374 710 q 565 750 514 750 q 731 685 669 750 q 792 500 792 621 q 775 339 792 443 q 669 85 750 178 q 463 -8 589 -8 m 435 82 q 590 153 533 82 q 669 368 647 224 q 681 485 681 439 q 640 617 681 575 q 532 658 600 658 q 300 597 429 658 l 229 146 q 325 99 276 117 q 435 82 374 82 m 318 1194 q 300 1213 300 1194 l 300 1217 l 317 1325 q 342 1347 321 1347 l 393 1347 q 411 1329 411 1347 l 411 1325 l 394 1217 q 386 1201 393 1207 q 369 1194 379 1194 l 318 1194 z "},"c":{"ha":667,"x_min":118,"x_max":718,"o":"m 379 -8 q 185 51 251 -8 q 118 261 118 110 q 132 392 118 306 q 249 665 161 579 q 476 750 336 750 q 718 728 568 750 l 706 663 l 494 663 q 328 596 390 663 q 239 368 265 529 q 228 269 228 299 q 272 119 228 161 q 413 78 317 78 l 631 78 l 621 14 q 379 -8 515 -8 z "},"ć":{"ha":667,"x_min":118,"x_max":721,"o":"m 379 -8 q 185 51 251 -8 q 118 261 118 110 q 132 392 118 306 q 249 665 161 579 q 476 750 336 750 q 718 728 568 750 l 706 663 l 494 663 q 328 596 390 663 q 239 368 265 529 q 228 269 228 299 q 272 119 228 161 q 413 78 317 78 l 631 78 l 621 14 q 379 -8 515 -8 m 622 1065 l 721 1065 l 522 876 l 453 876 l 622 1065 z "},"č":{"ha":667,"x_min":118,"x_max":743,"o":"m 379 -8 q 185 51 251 -8 q 118 261 118 110 q 132 392 118 306 q 249 665 161 579 q 476 750 336 750 q 718 728 568 750 l 706 663 l 494 663 q 328 596 390 663 q 239 368 265 529 q 228 269 228 299 q 272 119 228 161 q 413 78 317 78 l 631 78 l 621 14 q 379 -8 515 -8 m 343 1064 l 410 1064 l 514 929 l 675 1064 l 743 1064 l 544 876 l 467 876 l 343 1064 z "},"ç":{"ha":667,"x_min":118,"x_max":718,"o":"m 494 663 q 328 596 390 663 q 239 368 265 529 q 228 269 228 299 q 272 119 228 161 q 413 78 317 78 l 631 78 l 621 14 q 379 -8 515 -8 l 369 -8 l 307 -85 q 394 -160 394 -92 q 377 -212 394 -186 q 326 -256 360 -239 q 244 -274 292 -274 l 199 -274 l 206 -228 l 238 -225 q 302 -197 279 -221 q 325 -151 325 -174 q 307 -116 325 -129 q 242 -101 289 -103 l 321 -6 q 170 67 222 6 q 118 261 118 128 q 132 392 118 306 q 249 665 161 579 q 476 750 336 750 q 718 728 568 750 l 706 663 l 494 663 z "},"ḉ":{"ha":667,"x_min":118,"x_max":721,"o":"m 522 876 l 453 876 l 622 1065 l 721 1065 l 522 876 m 132 392 q 249 665 161 579 q 476 750 336 750 q 718 728 568 750 l 706 663 l 494 663 q 328 596 390 663 q 239 368 265 529 q 228 269 228 299 q 272 119 228 161 q 413 78 317 78 l 631 78 l 621 14 q 379 -8 515 -8 l 369 -8 l 307 -85 q 394 -160 394 -92 q 377 -212 394 -186 q 326 -256 360 -239 q 244 -274 292 -274 l 199 -274 l 206 -228 l 238 -225 q 302 -197 279 -221 q 325 -151 325 -174 q 307 -116 325 -129 q 242 -101 289 -103 l 321 -6 q 170 67 222 6 q 118 261 118 128 q 132 392 118 306 z "},"ĉ":{"ha":667,"x_min":118,"x_max":718,"o":"m 379 -8 q 185 51 251 -8 q 118 261 118 110 q 132 392 118 306 q 249 665 161 579 q 476 750 336 750 q 718 728 568 750 l 706 663 l 494 663 q 328 596 390 663 q 239 368 265 529 q 228 269 228 299 q 272 119 228 161 q 413 78 317 78 l 631 78 l 621 14 q 379 -8 515 -8 m 494 1064 l 572 1064 l 696 876 l 629 876 l 524 1011 l 364 876 l 296 876 l 494 1064 z "},"ċ":{"ha":667,"x_min":118,"x_max":718,"o":"m 379 -8 q 185 51 251 -8 q 118 261 118 110 q 132 392 118 306 q 249 665 161 579 q 476 750 336 750 q 718 728 568 750 l 706 663 l 494 663 q 328 596 390 663 q 239 368 265 529 q 228 269 228 299 q 272 119 228 161 q 413 78 317 78 l 631 78 l 621 14 q 379 -8 515 -8 m 474 917 q 456 935 456 917 l 456 939 l 472 1047 q 497 1069 476 1069 l 549 1069 q 567 1051 567 1069 l 567 1047 l 550 939 q 542 923 549 929 q 525 917 535 917 l 474 917 z "},"d":{"ha":788,"x_min":118,"x_max":860,"o":"m 335 -8 q 176 56 235 -8 q 118 239 118 119 q 133 390 118 319 q 194 588 157 511 q 306 708 232 665 q 503 750 379 750 q 694 711 613 750 l 750 1060 l 860 1060 l 692 0 l 599 0 l 594 79 q 471 17 539 43 q 335 -8 403 -8 m 374 82 q 489 100 433 82 q 606 150 544 118 l 679 619 q 506 658 604 658 q 369 630 421 658 q 288 540 318 601 q 239 369 258 478 q 228 258 228 303 q 268 124 228 167 q 374 82 308 82 z "},"ð":{"ha":786,"x_min":119,"x_max":861,"o":"m 686 944 q 796 617 796 835 q 772 356 796 508 q 706 134 751 213 q 586 24 661 56 q 392 -8 511 -8 q 190 51 260 -8 q 119 243 119 111 q 129 369 119 310 q 196 597 153 517 q 308 708 239 676 q 489 740 378 740 q 619 715 564 740 q 704 640 674 689 q 594 910 699 825 l 378 826 l 367 865 l 553 936 q 326 983 468 981 l 339 1060 q 651 975 540 1060 l 851 1051 l 861 1013 l 686 944 m 663 365 q 674 488 674 457 q 631 613 674 575 q 494 651 589 651 q 364 627 413 651 q 286 539 315 603 q 238 351 257 475 q 228 247 228 294 q 273 117 228 151 q 406 82 318 82 q 533 104 485 82 q 613 188 582 126 q 663 365 644 249 z "},"ď":{"ha":788,"x_min":118,"x_max":1043,"o":"m 335 -8 q 176 56 235 -8 q 118 239 118 119 q 133 390 118 319 q 194 588 157 511 q 306 708 232 665 q 503 750 379 750 q 694 711 613 750 l 750 1060 l 860 1060 l 692 0 l 599 0 l 594 79 q 471 17 539 43 q 335 -8 403 -8 m 374 82 q 489 100 433 82 q 606 150 544 118 l 679 619 q 506 658 604 658 q 369 630 421 658 q 288 540 318 601 q 239 369 258 478 q 228 258 228 303 q 268 124 228 167 q 374 82 308 82 m 926 1001 l 940 1094 l 1043 1094 l 1028 1001 l 988 793 l 907 793 l 926 1001 z "},"đ":{"ha":794,"x_min":118,"x_max":933,"o":"m 925 874 l 831 874 l 692 0 l 599 0 l 594 79 q 471 17 539 43 q 335 -8 403 -8 q 176 56 235 -8 q 118 239 118 119 q 133 390 118 319 q 194 588 157 511 q 306 708 232 665 q 503 750 379 750 q 694 711 613 750 l 721 874 l 526 874 l 535 922 l 728 922 l 750 1060 l 860 1060 l 838 922 l 933 922 l 925 874 m 679 619 q 506 658 604 658 q 369 630 421 658 q 288 540 318 601 q 239 369 258 478 q 228 258 228 303 q 268 124 228 167 q 374 82 308 82 q 489 100 433 82 q 606 150 544 118 l 679 619 z "},"ḋ":{"ha":788,"x_min":118,"x_max":897,"o":"m 335 -8 q 176 56 235 -8 q 118 239 118 119 q 133 390 118 319 q 194 588 157 511 q 306 708 232 665 q 503 750 379 750 q 694 711 613 750 l 750 1060 l 860 1060 l 692 0 l 599 0 l 594 79 q 471 17 539 43 q 335 -8 403 -8 m 374 82 q 489 100 433 82 q 606 150 544 118 l 679 619 q 506 658 604 658 q 369 630 421 658 q 288 540 318 601 q 239 369 258 478 q 228 258 228 303 q 268 124 228 167 q 374 82 308 82 m 804 1194 q 786 1213 786 1194 l 786 1217 l 803 1325 q 828 1347 807 1347 l 879 1347 q 897 1329 897 1347 l 897 1325 l 881 1217 q 872 1201 879 1207 q 856 1194 865 1194 l 804 1194 z "},"ḍ":{"ha":788,"x_min":118,"x_max":860,"o":"m 335 -8 q 176 56 235 -8 q 118 239 118 119 q 133 390 118 319 q 194 588 157 511 q 306 708 232 665 q 503 750 379 750 q 694 711 613 750 l 750 1060 l 860 1060 l 692 0 l 599 0 l 594 79 q 471 17 539 43 q 335 -8 403 -8 m 374 82 q 489 100 433 82 q 606 150 544 118 l 679 619 q 506 658 604 658 q 369 630 421 658 q 288 540 318 601 q 239 369 258 478 q 228 258 228 303 q 268 124 228 167 q 374 82 308 82 m 319 -292 q 301 -274 301 -292 l 301 -269 l 318 -161 q 343 -139 322 -139 l 394 -139 q 413 -157 413 -139 l 413 -161 l 396 -269 q 388 -285 394 -279 q 371 -292 381 -292 l 319 -292 z "},"ḏ":{"ha":788,"x_min":118,"x_max":860,"o":"m 335 -8 q 176 56 235 -8 q 118 239 118 119 q 133 390 118 319 q 194 588 157 511 q 306 708 232 665 q 503 750 379 750 q 694 711 613 750 l 750 1060 l 860 1060 l 692 0 l 599 0 l 594 79 q 471 17 539 43 q 335 -8 403 -8 m 374 82 q 489 100 433 82 q 606 150 544 118 l 679 619 q 506 658 604 658 q 369 630 421 658 q 288 540 318 601 q 239 369 258 478 q 228 258 228 303 q 268 124 228 167 q 374 82 308 82 m 192 -196 l 560 -196 l 549 -261 l 181 -261 l 192 -196 z "},"e":{"ha":761,"x_min":119,"x_max":776,"o":"m 421 -8 q 192 56 264 -8 q 119 251 119 121 q 135 408 119 319 q 251 667 160 581 q 511 753 343 753 q 706 706 636 753 q 776 550 776 660 q 681 360 776 414 q 431 307 586 307 q 317 313 369 307 q 233 328 264 319 q 228 243 228 290 q 282 116 228 156 q 458 76 336 76 l 683 76 l 672 10 q 421 -8 546 -8 m 393 375 q 601 412 531 375 q 672 539 672 449 q 631 637 672 607 q 503 667 590 667 q 321 598 381 667 q 240 388 261 529 q 393 375 313 375 z "},"é":{"ha":761,"x_min":119,"x_max":776,"o":"m 421 -8 q 192 56 264 -8 q 119 251 119 121 q 135 408 119 319 q 251 667 160 581 q 511 753 343 753 q 706 706 636 753 q 776 550 776 660 q 681 360 776 414 q 431 307 586 307 q 317 313 369 307 q 233 328 264 319 q 228 243 228 290 q 282 116 228 156 q 458 76 336 76 l 683 76 l 672 10 q 421 -8 546 -8 m 393 375 q 601 412 531 375 q 672 539 672 449 q 631 637 672 607 q 503 667 590 667 q 321 598 381 667 q 240 388 261 529 q 393 375 313 375 m 657 1065 l 756 1065 l 557 876 l 488 876 l 657 1065 z "},"ĕ":{"ha":761,"x_min":119,"x_max":776,"o":"m 421 -8 q 192 56 264 -8 q 119 251 119 121 q 135 408 119 319 q 251 667 160 581 q 511 753 343 753 q 706 706 636 753 q 776 550 776 660 q 681 360 776 414 q 431 307 586 307 q 317 313 369 307 q 233 328 264 319 q 228 243 228 290 q 282 116 228 156 q 458 76 336 76 l 683 76 l 672 10 q 421 -8 546 -8 m 393 375 q 601 412 531 375 q 672 539 672 449 q 631 637 672 607 q 503 667 590 667 q 321 598 381 667 q 240 388 261 529 q 393 375 313 375 m 531 874 q 419 908 461 874 q 376 1019 376 943 q 378 1047 376 1035 q 381 1069 379 1060 l 433 1069 q 431 1033 431 1044 q 460 952 431 978 q 538 926 490 926 q 638 960 596 926 q 692 1069 681 994 l 746 1069 q 672 919 729 965 q 531 874 614 874 z "},"ě":{"ha":761,"x_min":119,"x_max":778,"o":"m 421 -8 q 192 56 264 -8 q 119 251 119 121 q 135 408 119 319 q 251 667 160 581 q 511 753 343 753 q 706 706 636 753 q 776 550 776 660 q 681 360 776 414 q 431 307 586 307 q 317 313 369 307 q 233 328 264 319 q 228 243 228 290 q 282 116 228 156 q 458 76 336 76 l 683 76 l 672 10 q 421 -8 546 -8 m 393 375 q 601 412 531 375 q 672 539 672 449 q 631 637 672 607 q 503 667 590 667 q 321 598 381 667 q 240 388 261 529 q 393 375 313 375 m 378 1064 l 444 1064 l 549 929 l 710 1064 l 778 1064 l 579 876 l 501 876 l 378 1064 z "},"ḝ":{"ha":761,"x_min":119,"x_max":776,"o":"m 531 874 q 419 908 461 874 q 376 1019 376 943 q 378 1047 376 1035 q 381 1069 379 1060 l 433 1069 q 431 1033 431 1044 q 460 952 431 978 q 538 926 490 926 q 638 960 596 926 q 692 1069 681 994 l 746 1069 q 672 919 729 965 q 531 874 614 874 m 431 307 q 317 313 369 307 q 233 328 264 319 q 228 243 228 290 q 282 116 228 156 q 458 76 336 76 l 683 76 l 672 10 q 432 -8 565 -7 l 369 -85 q 457 -160 457 -92 q 440 -212 457 -186 q 388 -256 422 -239 q 307 -274 354 -274 l 261 -274 l 268 -228 l 300 -225 q 365 -197 342 -221 q 388 -151 388 -174 q 369 -116 388 -129 q 304 -101 351 -103 l 382 -7 q 183 65 246 0 q 119 251 119 129 q 135 408 119 319 q 251 667 160 581 q 511 753 343 753 q 706 706 636 753 q 776 550 776 660 q 681 360 776 414 q 431 307 586 307 m 503 667 q 321 598 381 667 q 240 388 261 529 q 393 375 313 375 q 601 412 531 375 q 672 539 672 449 q 631 637 672 607 q 503 667 590 667 z "},"ê":{"ha":761,"x_min":119,"x_max":776,"o":"m 421 -8 q 192 56 264 -8 q 119 251 119 121 q 135 408 119 319 q 251 667 160 581 q 511 753 343 753 q 706 706 636 753 q 776 550 776 660 q 681 360 776 414 q 431 307 586 307 q 317 313 369 307 q 233 328 264 319 q 228 243 228 290 q 282 116 228 156 q 458 76 336 76 l 683 76 l 672 10 q 421 -8 546 -8 m 393 375 q 601 412 531 375 q 672 539 672 449 q 631 637 672 607 q 503 667 590 667 q 321 598 381 667 q 240 388 261 529 q 393 375 313 375 m 529 1064 l 607 1064 l 731 876 l 664 876 l 558 1011 l 399 876 l 331 876 l 529 1064 z "},"ế":{"ha":761,"x_min":119,"x_max":899,"o":"m 421 -8 q 192 56 264 -8 q 119 251 119 121 q 135 408 119 319 q 251 667 160 581 q 511 753 343 753 q 706 706 636 753 q 776 550 776 660 q 681 360 776 414 q 431 307 586 307 q 317 313 369 307 q 233 328 264 319 q 228 243 228 290 q 282 116 228 156 q 458 76 336 76 l 683 76 l 672 10 q 421 -8 546 -8 m 393 375 q 601 412 531 375 q 672 539 672 449 q 631 637 672 607 q 503 667 590 667 q 321 598 381 667 q 240 388 261 529 q 393 375 313 375 m 810 1163 l 899 1163 l 719 983 l 660 983 l 810 1163 m 506 1013 l 585 1013 l 717 876 l 650 876 l 536 961 l 383 876 l 317 876 l 506 1013 z "},"ệ":{"ha":761,"x_min":119,"x_max":776,"o":"m 421 -8 q 192 56 264 -8 q 119 251 119 121 q 135 408 119 319 q 251 667 160 581 q 511 753 343 753 q 706 706 636 753 q 776 550 776 660 q 681 360 776 414 q 431 307 586 307 q 317 313 369 307 q 233 328 264 319 q 228 243 228 290 q 282 116 228 156 q 458 76 336 76 l 683 76 l 672 10 q 421 -8 546 -8 m 393 375 q 601 412 531 375 q 672 539 672 449 q 631 637 672 607 q 503 667 590 667 q 321 598 381 667 q 240 388 261 529 q 393 375 313 375 m 529 1064 l 607 1064 l 731 876 l 664 876 l 558 1011 l 399 876 l 331 876 l 529 1064 m 339 -292 q 321 -274 321 -292 l 321 -269 l 338 -161 q 363 -139 342 -139 l 414 -139 q 432 -157 432 -139 l 432 -161 l 415 -269 q 407 -285 414 -279 q 390 -292 400 -292 l 339 -292 z "},"ề":{"ha":761,"x_min":119,"x_max":776,"o":"m 421 -8 q 192 56 264 -8 q 119 251 119 121 q 135 408 119 319 q 251 667 160 581 q 511 753 343 753 q 706 706 636 753 q 776 550 776 660 q 681 360 776 414 q 431 307 586 307 q 317 313 369 307 q 233 328 264 319 q 228 243 228 290 q 282 116 228 156 q 458 76 336 76 l 683 76 l 672 10 q 421 -8 546 -8 m 393 375 q 601 412 531 375 q 672 539 672 449 q 631 637 672 607 q 503 667 590 667 q 321 598 381 667 q 240 388 261 529 q 393 375 313 375 m 236 1163 l 326 1163 l 419 983 l 358 983 l 236 1163 m 499 1013 l 576 1013 l 708 876 l 642 876 l 528 961 l 376 876 l 308 876 l 499 1013 z "},"ể":{"ha":761,"x_min":119,"x_max":831,"o":"m 421 -8 q 192 56 264 -8 q 119 251 119 121 q 135 408 119 319 q 251 667 160 581 q 511 753 343 753 q 706 706 636 753 q 776 550 776 660 q 681 360 776 414 q 431 307 586 307 q 317 313 369 307 q 233 328 264 319 q 228 243 228 290 q 282 116 228 156 q 458 76 336 76 l 683 76 l 672 10 q 421 -8 546 -8 m 393 375 q 601 412 531 375 q 672 539 672 449 q 631 637 672 607 q 503 667 590 667 q 321 598 381 667 q 240 388 261 529 q 393 375 313 375 m 692 994 q 774 1078 774 1021 q 724 1115 774 1115 q 672 1107 694 1115 l 679 1154 q 743 1164 708 1164 q 831 1089 831 1164 q 685 949 831 989 l 692 994 m 510 1013 l 589 1013 l 721 876 l 654 876 l 540 961 l 388 876 l 321 876 l 510 1013 z "},"ễ":{"ha":761,"x_min":119,"x_max":799,"o":"m 421 -8 q 192 56 264 -8 q 119 251 119 121 q 135 408 119 319 q 251 667 160 581 q 511 753 343 753 q 706 706 636 753 q 776 550 776 660 q 681 360 776 414 q 431 307 586 307 q 317 313 369 307 q 233 328 264 319 q 228 243 228 290 q 282 116 228 156 q 458 76 336 76 l 683 76 l 672 10 q 421 -8 546 -8 m 393 375 q 601 412 531 375 q 672 539 672 449 q 631 637 672 607 q 503 667 590 667 q 321 598 381 667 q 240 388 261 529 q 393 375 313 375 m 328 1078 q 468 1193 350 1193 q 517 1185 494 1193 q 572 1161 540 1176 q 619 1141 600 1147 q 658 1135 638 1135 q 715 1151 692 1135 q 742 1196 738 1167 l 799 1196 q 656 1078 772 1078 q 608 1085 631 1078 q 554 1108 586 1093 q 505 1129 524 1122 q 465 1136 486 1136 q 411 1121 433 1136 q 383 1078 389 1106 l 328 1078 m 511 1013 l 589 1013 l 719 876 l 653 876 l 539 961 l 388 876 l 319 876 l 511 1013 z "},"ȅ":{"ha":761,"x_min":119,"x_max":776,"o":"m 421 -8 q 192 56 264 -8 q 119 251 119 121 q 135 408 119 319 q 251 667 160 581 q 511 753 343 753 q 706 706 636 753 q 776 550 776 660 q 681 360 776 414 q 431 307 586 307 q 317 313 369 307 q 233 328 264 319 q 228 243 228 290 q 282 116 228 156 q 458 76 336 76 l 683 76 l 672 10 q 421 -8 546 -8 m 393 375 q 601 412 531 375 q 672 539 672 449 q 631 637 672 607 q 503 667 590 667 q 321 598 381 667 q 240 388 261 529 q 393 375 313 375 m 278 1065 l 372 1065 l 486 876 l 422 876 l 278 1065 m 481 1065 l 575 1065 l 689 876 l 625 876 l 481 1065 z "},"ë":{"ha":761,"x_min":119,"x_max":776,"o":"m 421 -8 q 192 56 264 -8 q 119 251 119 121 q 135 408 119 319 q 251 667 160 581 q 511 753 343 753 q 706 706 636 753 q 776 550 776 660 q 681 360 776 414 q 431 307 586 307 q 317 313 369 307 q 233 328 264 319 q 228 243 228 290 q 282 116 228 156 q 458 76 336 76 l 683 76 l 672 10 q 421 -8 546 -8 m 393 375 q 601 412 531 375 q 672 539 672 449 q 631 637 672 607 q 503 667 590 667 q 321 598 381 667 q 240 388 261 529 q 393 375 313 375 m 351 907 q 333 925 333 907 l 351 1038 q 376 1060 354 1060 l 428 1060 q 446 1042 446 1060 q 428 929 446 1049 q 419 913 426 919 q 403 907 413 907 l 351 907 m 635 907 q 617 925 617 907 l 635 1038 q 661 1060 638 1060 l 711 1060 q 729 1042 729 1060 l 711 929 q 703 913 710 919 q 686 907 696 907 l 635 907 z "},"ė":{"ha":761,"x_min":119,"x_max":776,"o":"m 421 -8 q 192 56 264 -8 q 119 251 119 121 q 135 408 119 319 q 251 667 160 581 q 511 753 343 753 q 706 706 636 753 q 776 550 776 660 q 681 360 776 414 q 431 307 586 307 q 317 313 369 307 q 233 328 264 319 q 228 243 228 290 q 282 116 228 156 q 458 76 336 76 l 683 76 l 672 10 q 421 -8 546 -8 m 393 375 q 601 412 531 375 q 672 539 672 449 q 631 637 672 607 q 503 667 590 667 q 321 598 381 667 q 240 388 261 529 q 393 375 313 375 m 508 917 q 490 935 490 917 l 490 939 l 507 1047 q 532 1069 511 1069 l 583 1069 q 601 1051 601 1069 l 601 1047 l 585 939 q 576 923 583 929 q 560 917 569 917 l 508 917 z "},"ẹ":{"ha":761,"x_min":119,"x_max":776,"o":"m 421 -8 q 192 56 264 -8 q 119 251 119 121 q 135 408 119 319 q 251 667 160 581 q 511 753 343 753 q 706 706 636 753 q 776 550 776 660 q 681 360 776 414 q 431 307 586 307 q 317 313 369 307 q 233 328 264 319 q 228 243 228 290 q 282 116 228 156 q 458 76 336 76 l 683 76 l 672 10 q 421 -8 546 -8 m 393 375 q 601 412 531 375 q 672 539 672 449 q 631 637 672 607 q 503 667 590 667 q 321 598 381 667 q 240 388 261 529 q 393 375 313 375 m 339 -292 q 321 -274 321 -292 l 321 -269 l 338 -161 q 363 -139 342 -139 l 414 -139 q 432 -157 432 -139 l 432 -161 l 415 -269 q 407 -285 414 -279 q 390 -292 400 -292 l 339 -292 z "},"è":{"ha":761,"x_min":119,"x_max":776,"o":"m 421 -8 q 192 56 264 -8 q 119 251 119 121 q 135 408 119 319 q 251 667 160 581 q 511 753 343 753 q 706 706 636 753 q 776 550 776 660 q 681 360 776 414 q 431 307 586 307 q 317 313 369 307 q 233 328 264 319 q 228 243 228 290 q 282 116 228 156 q 458 76 336 76 l 683 76 l 672 10 q 421 -8 546 -8 m 393 375 q 601 412 531 375 q 672 539 672 449 q 631 637 672 607 q 503 667 590 667 q 321 598 381 667 q 240 388 261 529 q 393 375 313 375 m 382 1065 l 476 1065 l 590 876 l 526 876 l 382 1065 z "},"ẻ":{"ha":761,"x_min":119,"x_max":776,"o":"m 421 -8 q 192 56 264 -8 q 119 251 119 121 q 135 408 119 319 q 251 667 160 581 q 511 753 343 753 q 706 706 636 753 q 776 550 776 660 q 681 360 776 414 q 431 307 586 307 q 317 313 369 307 q 233 328 264 319 q 228 243 228 290 q 282 116 228 156 q 458 76 336 76 l 683 76 l 672 10 q 421 -8 546 -8 m 393 375 q 601 412 531 375 q 672 539 672 449 q 631 637 672 607 q 503 667 590 667 q 321 598 381 667 q 240 388 261 529 q 393 375 313 375 m 500 889 q 593 986 593 915 q 536 1032 593 1032 q 485 1024 510 1032 l 492 1071 q 558 1079 518 1079 q 654 994 654 1079 q 615 901 654 943 q 492 838 576 860 l 500 889 z "},"ȇ":{"ha":761,"x_min":119,"x_max":776,"o":"m 421 -8 q 192 56 264 -8 q 119 251 119 121 q 135 408 119 319 q 251 667 160 581 q 511 753 343 753 q 706 706 636 753 q 776 550 776 660 q 681 360 776 414 q 431 307 586 307 q 317 313 369 307 q 233 328 264 319 q 228 243 228 290 q 282 116 228 156 q 458 76 336 76 l 683 76 l 672 10 q 421 -8 546 -8 m 393 375 q 601 412 531 375 q 672 539 672 449 q 631 637 672 607 q 503 667 590 667 q 321 598 381 667 q 240 388 261 529 q 393 375 313 375 m 339 875 q 413 1025 356 979 q 554 1071 471 1071 q 666 1036 624 1071 q 708 925 708 1001 q 707 897 708 910 q 704 875 706 885 l 651 875 q 654 913 654 900 q 624 993 654 967 q 546 1019 594 1019 q 447 985 489 1019 q 393 875 404 950 l 339 875 z "},"ē":{"ha":761,"x_min":119,"x_max":776,"o":"m 421 -8 q 192 56 264 -8 q 119 251 119 121 q 135 408 119 319 q 251 667 160 581 q 511 753 343 753 q 706 706 636 753 q 776 550 776 660 q 681 360 776 414 q 431 307 586 307 q 317 313 369 307 q 233 328 264 319 q 228 243 228 290 q 282 116 228 156 q 458 76 336 76 l 683 76 l 672 10 q 421 -8 546 -8 m 393 375 q 601 412 531 375 q 672 539 672 449 q 631 637 672 607 q 503 667 590 667 q 321 598 381 667 q 240 388 261 529 q 393 375 313 375 m 368 999 l 736 999 l 725 933 l 357 933 l 368 999 z "},"ḗ":{"ha":761,"x_min":119,"x_max":783,"o":"m 421 -8 q 192 56 264 -8 q 119 251 119 121 q 135 408 119 319 q 251 667 160 581 q 511 753 343 753 q 706 706 636 753 q 776 550 776 660 q 681 360 776 414 q 431 307 586 307 q 317 313 369 307 q 233 328 264 319 q 228 243 228 290 q 282 116 228 156 q 458 76 336 76 l 683 76 l 672 10 q 421 -8 546 -8 m 393 375 q 601 412 531 375 q 672 539 672 449 q 631 637 672 607 q 503 667 590 667 q 321 598 381 667 q 240 388 261 529 q 393 375 313 375 m 368 999 l 736 999 l 725 933 l 357 933 l 368 999 m 685 1250 l 783 1250 l 585 1061 l 515 1061 l 685 1250 z "},"ḕ":{"ha":761,"x_min":119,"x_max":776,"o":"m 421 -8 q 192 56 264 -8 q 119 251 119 121 q 135 408 119 319 q 251 667 160 581 q 511 753 343 753 q 706 706 636 753 q 776 550 776 660 q 681 360 776 414 q 431 307 586 307 q 317 313 369 307 q 233 328 264 319 q 228 243 228 290 q 282 116 228 156 q 458 76 336 76 l 683 76 l 672 10 q 421 -8 546 -8 m 393 375 q 601 412 531 375 q 672 539 672 449 q 631 637 672 607 q 503 667 590 667 q 321 598 381 667 q 240 388 261 529 q 393 375 313 375 m 368 999 l 736 999 l 725 933 l 357 933 l 368 999 m 382 1250 l 476 1250 l 590 1061 l 526 1061 l 382 1250 z "},"ę":{"ha":761,"x_min":119,"x_max":776,"o":"m 431 307 q 317 313 369 307 q 233 328 264 319 q 228 243 228 290 q 282 116 228 156 q 458 76 336 76 l 683 76 l 672 10 q 593 -53 621 -17 q 565 -118 565 -89 q 592 -174 565 -154 q 668 -193 618 -193 l 676 -193 l 668 -246 q 632 -250 651 -250 q 536 -222 569 -250 q 503 -147 503 -193 q 531 -66 503 -106 q 615 3 558 -26 q 421 -8 504 -8 q 192 56 264 -8 q 119 251 119 121 q 135 408 119 319 q 251 667 160 581 q 511 753 343 753 q 706 706 636 753 q 776 550 776 660 q 681 360 776 414 q 431 307 586 307 m 503 667 q 321 598 381 667 q 240 388 261 529 q 393 375 313 375 q 601 412 531 375 q 672 539 672 449 q 631 637 672 607 q 503 667 590 667 z "},"ẽ":{"ha":761,"x_min":119,"x_max":815,"o":"m 421 -8 q 192 56 264 -8 q 119 251 119 121 q 135 408 119 319 q 251 667 160 581 q 511 753 343 753 q 706 706 636 753 q 776 550 776 660 q 681 360 776 414 q 431 307 586 307 q 317 313 369 307 q 233 328 264 319 q 228 243 228 290 q 282 116 228 156 q 458 76 336 76 l 683 76 l 672 10 q 421 -8 546 -8 m 393 375 q 601 412 531 375 q 672 539 672 449 q 631 637 672 607 q 503 667 590 667 q 321 598 381 667 q 240 388 261 529 q 393 375 313 375 m 303 901 q 360 1013 317 978 q 458 1047 403 1047 q 513 1036 489 1047 q 574 1003 538 1025 q 624 974 603 983 q 665 965 644 965 q 728 988 703 965 q 760 1050 753 1010 l 815 1050 q 762 940 800 978 q 663 903 724 903 q 610 913 635 903 q 550 946 586 924 q 497 975 517 965 q 454 985 476 985 q 393 963 419 985 q 360 901 367 942 l 303 901 z "},"ə":{"ha":763,"x_min":107,"x_max":764,"o":"m 463 751 q 692 687 619 751 q 764 492 764 622 q 749 335 764 424 q 632 76 724 163 q 372 -10 540 -10 q 177 37 247 -10 q 107 193 107 83 q 202 383 107 329 q 453 436 297 436 q 567 430 514 436 q 650 415 619 424 q 656 500 656 453 q 601 627 656 588 q 425 667 547 667 l 200 667 l 211 733 q 463 751 338 751 m 490 368 q 282 331 353 368 q 211 204 211 294 q 252 106 211 136 q 381 76 293 76 q 563 145 503 76 q 643 356 622 214 q 490 368 571 368 z "},"f":{"ha":518,"x_min":138,"x_max":676,"o":"m 251 649 l 138 649 l 150 719 l 265 742 l 285 856 q 349 1011 301 954 q 513 1068 396 1068 q 676 1058 599 1068 l 664 979 l 526 979 q 430 944 458 979 q 390 831 401 908 l 376 742 l 601 742 l 586 649 l 361 649 l 258 0 l 149 0 l 251 649 z "},"ḟ":{"ha":518,"x_min":138,"x_max":676,"o":"m 251 649 l 138 649 l 150 719 l 265 742 l 285 856 q 349 1011 301 954 q 513 1068 396 1068 q 676 1058 599 1068 l 664 979 l 526 979 q 430 944 458 979 q 390 831 401 908 l 376 742 l 601 742 l 586 649 l 361 649 l 258 0 l 149 0 l 251 649 m 481 1194 q 463 1213 463 1194 l 463 1217 l 479 1325 q 504 1347 483 1347 l 556 1347 q 574 1329 574 1347 l 574 1325 l 557 1217 q 549 1201 556 1207 q 532 1194 542 1194 l 481 1194 z "},"g":{"ha":786,"x_min":71,"x_max":806,"o":"m 71 -317 l 83 -242 l 308 -242 q 483 -201 413 -242 q 569 -72 554 -160 l 594 79 q 460 15 533 38 q 321 -8 386 -8 q 175 58 232 -8 q 118 236 118 125 q 133 399 118 300 q 254 666 163 582 q 518 750 346 750 q 806 719 669 750 l 676 -87 q 560 -272 656 -215 q 324 -328 464 -328 q 272 -326 290 -328 l 71 -317 m 369 82 q 482 99 428 82 q 604 150 536 115 l 683 649 l 646 651 q 581 656 628 653 q 494 658 533 658 q 323 593 382 658 q 242 386 264 528 q 228 254 228 292 q 267 126 228 169 q 369 82 306 82 z "},"ğ":{"ha":786,"x_min":71,"x_max":806,"o":"m 71 -317 l 83 -242 l 308 -242 q 483 -201 413 -242 q 569 -72 554 -160 l 594 79 q 460 15 533 38 q 321 -8 386 -8 q 175 58 232 -8 q 118 236 118 125 q 133 399 118 300 q 254 666 163 582 q 518 750 346 750 q 806 719 669 750 l 676 -87 q 560 -272 656 -215 q 324 -328 464 -328 q 272 -326 290 -328 l 71 -317 m 369 82 q 482 99 428 82 q 604 150 536 115 l 683 649 l 646 651 q 581 656 628 653 q 494 658 533 658 q 323 593 382 658 q 242 386 264 528 q 228 254 228 292 q 267 126 228 169 q 369 82 306 82 m 533 874 q 422 908 464 874 q 379 1019 379 943 q 381 1047 379 1035 q 383 1069 382 1060 l 436 1069 q 433 1033 433 1044 q 463 952 433 978 q 540 926 493 926 q 641 960 599 926 q 694 1069 683 994 l 749 1069 q 674 919 732 965 q 533 874 617 874 z "},"ǧ":{"ha":786,"x_min":71,"x_max":806,"o":"m 71 -317 l 83 -242 l 308 -242 q 483 -201 413 -242 q 569 -72 554 -160 l 594 79 q 460 15 533 38 q 321 -8 386 -8 q 175 58 232 -8 q 118 236 118 125 q 133 399 118 300 q 254 666 163 582 q 518 750 346 750 q 806 719 669 750 l 676 -87 q 560 -272 656 -215 q 324 -328 464 -328 q 272 -326 290 -328 l 71 -317 m 369 82 q 482 99 428 82 q 604 150 536 115 l 683 649 l 646 651 q 581 656 628 653 q 494 658 533 658 q 323 593 382 658 q 242 386 264 528 q 228 254 228 292 q 267 126 228 169 q 369 82 306 82 m 381 1064 l 447 1064 l 551 929 l 713 1064 l 781 1064 l 582 876 l 504 876 l 381 1064 z "},"ĝ":{"ha":786,"x_min":71,"x_max":806,"o":"m 71 -317 l 83 -242 l 308 -242 q 483 -201 413 -242 q 569 -72 554 -160 l 594 79 q 460 15 533 38 q 321 -8 386 -8 q 175 58 232 -8 q 118 236 118 125 q 133 399 118 300 q 254 666 163 582 q 518 750 346 750 q 806 719 669 750 l 676 -87 q 560 -272 656 -215 q 324 -328 464 -328 q 272 -326 290 -328 l 71 -317 m 369 82 q 482 99 428 82 q 604 150 536 115 l 683 649 l 646 651 q 581 656 628 653 q 494 658 533 658 q 323 593 382 658 q 242 386 264 528 q 228 254 228 292 q 267 126 228 169 q 369 82 306 82 m 532 1064 l 610 1064 l 733 876 l 667 876 l 561 1011 l 401 876 l 333 876 l 532 1064 z "},"ģ":{"ha":786,"x_min":71,"x_max":806,"o":"m 71 -317 l 83 -242 l 308 -242 q 483 -201 413 -242 q 569 -72 554 -160 l 594 79 q 460 15 533 38 q 321 -8 386 -8 q 175 58 232 -8 q 118 236 118 125 q 133 399 118 300 q 254 666 163 582 q 518 750 346 750 q 806 719 669 750 l 676 -87 q 560 -272 656 -215 q 324 -328 464 -328 q 272 -326 290 -328 l 71 -317 m 369 82 q 482 99 428 82 q 604 150 536 115 l 683 649 l 646 651 q 581 656 628 653 q 494 658 533 658 q 323 593 382 658 q 242 386 264 528 q 228 254 228 292 q 267 126 228 169 q 369 82 306 82 m 449 857 q 479 972 460 931 q 535 1032 499 1013 q 632 1051 571 1051 l 685 1051 l 676 1006 l 635 999 q 575 983 596 993 q 540 944 554 972 q 518 857 526 915 l 449 857 z "},"ġ":{"ha":786,"x_min":71,"x_max":806,"o":"m 71 -317 l 83 -242 l 308 -242 q 483 -201 413 -242 q 569 -72 554 -160 l 594 79 q 460 15 533 38 q 321 -8 386 -8 q 175 58 232 -8 q 118 236 118 125 q 133 399 118 300 q 254 666 163 582 q 518 750 346 750 q 806 719 669 750 l 676 -87 q 560 -272 656 -215 q 324 -328 464 -328 q 272 -326 290 -328 l 71 -317 m 369 82 q 482 99 428 82 q 604 150 536 115 l 683 649 l 646 651 q 581 656 628 653 q 494 658 533 658 q 323 593 382 658 q 242 386 264 528 q 228 254 228 292 q 267 126 228 169 q 369 82 306 82 m 511 917 q 493 935 493 917 l 493 939 l 510 1047 q 535 1069 514 1069 l 586 1069 q 604 1051 604 1069 l 604 1047 l 588 939 q 579 923 586 929 q 563 917 572 917 l 511 917 z "},"ḡ":{"ha":786,"x_min":71,"x_max":806,"o":"m 71 -317 l 83 -242 l 308 -242 q 483 -201 413 -242 q 569 -72 554 -160 l 594 79 q 460 15 533 38 q 321 -8 386 -8 q 175 58 232 -8 q 118 236 118 125 q 133 399 118 300 q 254 666 163 582 q 518 750 346 750 q 806 719 669 750 l 676 -87 q 560 -272 656 -215 q 324 -328 464 -328 q 272 -326 290 -328 l 71 -317 m 369 82 q 482 99 428 82 q 604 150 536 115 l 683 649 l 646 651 q 581 656 628 653 q 494 658 533 658 q 323 593 382 658 q 242 386 264 528 q 228 254 228 292 q 267 126 228 169 q 369 82 306 82 m 371 999 l 739 999 l 728 933 l 360 933 l 371 999 z "},"h":{"ha":800,"x_min":94,"x_max":790,"o":"m 263 1060 l 374 1060 l 310 660 q 446 727 371 701 q 603 753 521 753 q 790 571 790 753 q 785 500 790 535 l 706 0 l 596 0 l 672 483 q 676 533 676 511 q 643 624 676 596 q 546 653 610 653 q 419 635 475 653 q 296 575 364 617 l 206 0 l 94 0 l 263 1060 z "},"ħ":{"ha":800,"x_min":94,"x_max":790,"o":"m 603 753 q 790 571 790 753 q 785 500 790 535 l 706 0 l 596 0 l 672 483 q 676 533 676 511 q 643 624 676 596 q 546 653 610 653 q 419 635 475 653 q 296 575 364 617 l 206 0 l 94 0 l 233 874 l 138 874 l 146 922 l 240 922 l 263 1060 l 374 1060 l 351 922 l 544 922 l 536 874 l 344 874 l 310 660 q 446 727 371 701 q 603 753 521 753 z "},"ḫ":{"ha":800,"x_min":94,"x_max":790,"o":"m 263 1060 l 374 1060 l 310 660 q 446 727 371 701 q 603 753 521 753 q 790 571 790 753 q 785 500 790 535 l 706 0 l 596 0 l 672 483 q 676 533 676 511 q 643 624 676 596 q 546 653 610 653 q 419 635 475 653 q 296 575 364 617 l 206 0 l 94 0 l 263 1060 m 358 -307 q 247 -272 289 -307 q 206 -161 206 -237 q 208 -111 206 -147 l 263 -111 q 260 -149 260 -136 q 289 -229 260 -203 q 365 -256 318 -256 q 467 -221 425 -256 q 519 -111 508 -186 l 574 -111 q 500 -261 558 -215 q 358 -307 442 -307 z "},"ĥ":{"ha":800,"x_min":94,"x_max":790,"o":"m 263 1060 l 374 1060 l 310 660 q 446 727 371 701 q 603 753 521 753 q 790 571 790 753 q 785 500 790 535 l 706 0 l 596 0 l 672 483 q 676 533 676 511 q 643 624 676 596 q 546 653 610 653 q 419 635 475 653 q 296 575 364 617 l 206 0 l 94 0 l 263 1060 m 436 1342 l 514 1342 l 638 1154 l 571 1154 l 465 1289 l 306 1154 l 238 1154 l 436 1342 z "},"ḥ":{"ha":800,"x_min":94,"x_max":790,"o":"m 263 1060 l 374 1060 l 310 660 q 446 727 371 701 q 603 753 521 753 q 790 571 790 753 q 785 500 790 535 l 706 0 l 596 0 l 672 483 q 676 533 676 511 q 643 624 676 596 q 546 653 610 653 q 419 635 475 653 q 296 575 364 617 l 206 0 l 94 0 l 263 1060 m 319 -292 q 301 -274 301 -292 l 301 -269 l 318 -161 q 343 -139 322 -139 l 394 -139 q 413 -157 413 -139 l 413 -161 l 396 -269 q 388 -285 394 -279 q 371 -292 381 -292 l 319 -292 z "},"i":{"ha":299,"x_min":96,"x_max":372,"o":"m 250 874 q 235 880 240 874 q 231 896 229 886 l 249 1004 q 256 1020 250 1014 q 274 1026 263 1026 l 353 1026 q 369 1004 372 1026 l 353 896 q 328 874 349 874 l 250 874 m 213 742 l 322 742 l 206 0 l 96 0 l 213 742 z "},"ı":{"ha":300,"x_min":96,"x_max":322,"o":"m 213 742 l 322 742 l 206 0 l 96 0 l 213 742 z "},"í":{"ha":300,"x_min":96,"x_max":521,"o":"m 213 742 l 322 742 l 206 0 l 96 0 l 213 742 m 422 1065 l 521 1065 l 322 876 l 253 876 l 422 1065 z "},"ĭ":{"ha":300,"x_min":96,"x_max":511,"o":"m 213 742 l 322 742 l 206 0 l 96 0 l 213 742 m 296 874 q 184 908 226 874 q 142 1019 142 943 q 143 1047 142 1035 q 146 1069 144 1060 l 199 1069 q 196 1033 196 1044 q 226 952 196 978 q 303 926 256 926 q 403 960 361 926 q 457 1069 446 994 l 511 1069 q 437 919 494 965 q 296 874 379 874 z "},"î":{"ha":300,"x_min":96,"x_max":496,"o":"m 213 742 l 322 742 l 206 0 l 96 0 l 213 742 m 294 1064 l 372 1064 l 496 876 l 429 876 l 324 1011 l 164 876 l 96 876 l 294 1064 z "},"ȉ":{"ha":300,"x_min":42,"x_max":453,"o":"m 213 742 l 322 742 l 206 0 l 96 0 l 213 742 m 42 1065 l 136 1065 l 250 876 l 186 876 l 42 1065 m 244 1065 l 339 1065 l 453 876 l 389 876 l 244 1065 z "},"ï":{"ha":300,"x_min":96,"x_max":494,"o":"m 213 742 l 322 742 l 206 0 l 96 0 l 213 742 m 117 907 q 99 925 99 907 l 117 1038 q 142 1060 119 1060 l 193 1060 q 211 1042 211 1060 q 193 929 211 1049 q 185 913 192 919 q 168 907 178 907 l 117 907 m 400 907 q 382 925 382 907 l 400 1038 q 426 1060 403 1060 l 476 1060 q 494 1042 494 1060 l 476 929 q 468 913 475 919 q 451 907 461 907 l 400 907 z "},"ḯ":{"ha":300,"x_min":96,"x_max":539,"o":"m 213 742 l 322 742 l 206 0 l 96 0 l 213 742 m 117 907 q 99 925 99 907 l 117 1038 q 142 1060 119 1060 l 193 1060 q 211 1042 211 1060 q 193 929 211 1049 q 185 913 192 919 q 168 907 178 907 l 117 907 m 400 907 q 382 925 382 907 l 400 1038 q 426 1060 403 1060 l 476 1060 q 494 1042 494 1060 l 476 929 q 468 913 475 919 q 451 907 461 907 l 400 907 m 440 1306 l 539 1306 l 340 1117 l 271 1117 l 440 1306 z "},"ị":{"ha":299,"x_min":68,"x_max":369,"o":"m 250 874 q 235 880 240 874 q 231 896 229 886 l 249 1004 q 256 1020 250 1014 q 274 1026 263 1026 l 353 1026 q 369 1004 372 1026 l 353 896 q 328 874 349 874 l 250 874 m 213 742 l 322 742 l 206 0 l 96 0 l 213 742 m 86 -292 q 68 -274 68 -292 l 68 -269 l 85 -161 q 110 -139 89 -139 l 161 -139 q 179 -157 179 -139 l 179 -161 l 163 -269 q 154 -285 161 -279 q 138 -292 147 -292 l 86 -292 z "},"ì":{"ha":300,"x_min":96,"x_max":356,"o":"m 213 742 l 322 742 l 206 0 l 96 0 l 213 742 m 147 1065 l 242 1065 l 356 876 l 292 876 l 147 1065 z "},"ỉ":{"ha":300,"x_min":96,"x_max":418,"o":"m 213 742 l 322 742 l 206 0 l 96 0 l 213 742 m 264 889 q 357 986 357 915 q 300 1032 357 1032 q 249 1024 274 1032 l 256 1071 q 322 1079 282 1079 q 418 994 418 1079 q 379 901 418 943 q 256 838 340 860 l 264 889 z "},"ȋ":{"ha":300,"x_min":96,"x_max":474,"o":"m 213 742 l 322 742 l 206 0 l 96 0 l 213 742 m 104 875 q 178 1025 121 979 q 319 1071 236 1071 q 431 1036 389 1071 q 474 925 474 1001 q 472 897 474 910 q 469 875 471 885 l 417 875 q 419 913 419 900 q 390 993 419 967 q 311 1019 360 1019 q 212 985 254 1019 q 158 875 169 950 l 104 875 z "},"ī":{"ha":300,"x_min":96,"x_max":501,"o":"m 213 742 l 322 742 l 206 0 l 96 0 l 213 742 m 133 999 l 501 999 l 490 933 l 122 933 l 133 999 z "},"į":{"ha":299,"x_min":35,"x_max":369,"o":"m 250 874 q 235 880 240 874 q 231 896 229 886 l 249 1004 q 256 1020 250 1014 q 274 1026 263 1026 l 353 1026 q 369 1004 372 1026 l 353 896 q 328 874 349 874 l 250 874 m 213 742 l 322 742 l 206 0 l 96 0 l 213 742 m 164 -260 q 68 -231 101 -260 q 35 -157 35 -203 q 67 -71 35 -112 q 163 0 99 -29 l 204 0 q 125 -62 153 -26 q 97 -128 97 -99 q 124 -183 97 -164 q 200 -203 150 -203 l 208 -203 l 200 -256 q 164 -260 183 -260 z "},"ĩ":{"ha":300,"x_min":68,"x_max":581,"o":"m 213 742 l 322 742 l 206 0 l 96 0 l 213 742 m 68 901 q 125 1013 82 978 q 224 1047 168 1047 q 278 1036 254 1047 q 339 1003 303 1025 q 389 974 368 983 q 431 965 410 965 q 493 988 468 965 q 525 1050 518 1010 l 581 1050 q 527 940 565 978 q 428 903 489 903 q 376 913 400 903 q 315 946 351 924 q 262 975 282 965 q 219 985 242 985 q 158 963 185 985 q 125 901 132 942 l 68 901 z "},"j":{"ha":299,"x_min":43,"x_max":372,"o":"m 250 874 q 235 880 240 874 q 231 896 229 886 l 249 1004 q 256 1020 250 1014 q 274 1026 263 1026 l 353 1026 q 369 1004 372 1026 l 353 896 q 328 874 349 874 l 250 874 m 213 742 l 322 742 l 204 -6 q 122 -329 178 -168 l 43 -329 l 213 742 z "},"ȷ":{"ha":299,"x_min":43,"x_max":322,"o":"m 213 742 l 322 742 l 204 -6 q 122 -329 178 -168 l 43 -329 l 213 742 z "},"ĵ":{"ha":299,"x_min":43,"x_max":496,"o":"m 213 742 l 322 742 l 204 -6 q 122 -329 178 -168 l 43 -329 l 213 742 m 294 1064 l 372 1064 l 496 876 l 429 876 l 324 1011 l 164 876 l 96 876 l 294 1064 z "},"k":{"ha":731,"x_min":94,"x_max":740,"o":"m 263 1060 l 374 1060 l 275 443 q 497 522 407 451 q 631 742 586 592 l 740 742 q 485 408 668 490 l 701 0 l 586 0 l 390 375 q 326 363 361 367 q 263 358 290 358 l 206 0 l 94 0 l 263 1060 z "},"ķ":{"ha":731,"x_min":94,"x_max":740,"o":"m 263 1060 l 374 1060 l 275 443 q 497 522 407 451 q 631 742 586 592 l 740 742 q 485 408 668 490 l 701 0 l 586 0 l 390 375 q 326 363 361 367 q 263 358 290 358 l 206 0 l 94 0 l 263 1060 m 222 -236 l 264 -229 q 323 -213 301 -224 q 359 -174 344 -203 q 382 -87 374 -144 l 450 -87 q 419 -201 439 -160 q 364 -261 400 -242 q 267 -281 328 -281 l 214 -281 l 222 -236 z "},"ĸ":{"ha":731,"x_min":94,"x_max":740,"o":"m 211 742 l 322 742 l 272 425 q 494 508 404 433 q 629 742 583 582 l 740 742 q 633 514 699 596 q 482 390 567 432 l 701 0 l 586 0 l 386 356 q 322 343 357 347 q 258 339 286 339 l 204 0 l 94 0 l 211 742 z "},"l":{"ha":407,"x_min":125,"x_max":393,"o":"m 299 0 q 169 39 214 0 q 125 149 125 78 q 135 253 125 200 l 263 1060 l 374 1060 l 250 285 q 238 176 238 206 q 258 111 238 131 q 321 86 279 92 l 393 79 l 381 0 l 299 0 z "},"ĺ":{"ha":407,"x_min":125,"x_max":569,"o":"m 299 0 q 169 39 214 0 q 125 149 125 78 q 135 253 125 200 l 263 1060 l 374 1060 l 250 285 q 238 176 238 206 q 258 111 238 131 q 321 86 279 92 l 393 79 l 381 0 l 299 0 m 471 1343 l 569 1343 l 371 1154 l 301 1154 l 471 1343 z "},"ľ":{"ha":407,"x_min":125,"x_max":558,"o":"m 299 0 q 169 39 214 0 q 125 149 125 78 q 135 253 125 200 l 263 1060 l 374 1060 l 250 285 q 238 176 238 206 q 258 111 238 131 q 321 86 279 92 l 393 79 l 381 0 l 299 0 m 442 1001 l 456 1094 l 558 1094 l 543 1001 l 503 793 l 422 793 l 442 1001 z "},"ļ":{"ha":407,"x_min":90,"x_max":393,"o":"m 299 0 q 169 39 214 0 q 125 149 125 78 q 135 253 125 200 l 263 1060 l 374 1060 l 250 285 q 238 176 238 206 q 258 111 238 131 q 321 86 279 92 l 393 79 l 381 0 l 299 0 m 99 -236 l 140 -229 q 199 -213 178 -224 q 235 -174 221 -203 q 258 -87 250 -144 l 326 -87 q 296 -201 315 -160 q 240 -261 276 -242 q 143 -281 204 -281 l 90 -281 l 99 -236 z "},"ŀ":{"ha":431,"x_min":125,"x_max":533,"o":"m 299 0 q 169 39 214 0 q 125 149 125 78 q 135 253 125 200 l 263 1060 l 374 1060 l 250 285 q 238 176 238 206 q 258 111 238 131 q 321 86 279 92 l 393 79 l 381 0 l 299 0 m 436 526 q 421 532 426 526 q 417 547 415 538 l 428 613 q 453 635 431 635 l 515 635 q 533 613 536 635 l 522 547 q 497 526 521 526 l 436 526 z "},"ḷ":{"ha":407,"x_min":125,"x_max":393,"o":"m 299 0 q 169 39 214 0 q 125 149 125 78 q 135 253 125 200 l 263 1060 l 374 1060 l 250 285 q 238 176 238 206 q 258 111 238 131 q 321 86 279 92 l 393 79 l 381 0 l 299 0 m 176 -292 q 158 -274 158 -292 l 158 -269 l 175 -161 q 200 -139 179 -139 l 251 -139 q 269 -157 269 -139 l 269 -161 l 253 -269 q 244 -285 251 -279 q 228 -292 238 -292 l 176 -292 z "},"ḻ":{"ha":407,"x_min":38,"x_max":417,"o":"m 299 0 q 169 39 214 0 q 125 149 125 78 q 135 253 125 200 l 263 1060 l 374 1060 l 250 285 q 238 176 238 206 q 258 111 238 131 q 321 86 279 92 l 393 79 l 381 0 l 299 0 m 49 -196 l 417 -196 l 406 -261 l 38 -261 l 49 -196 z "},"ł":{"ha":407,"x_min":74,"x_max":456,"o":"m 250 285 q 238 176 238 206 q 258 111 238 131 q 321 86 279 92 l 393 79 l 381 0 l 299 0 q 169 39 214 0 q 125 149 125 78 q 135 253 125 200 l 179 531 l 74 494 l 83 560 l 189 596 l 263 1060 l 374 1060 l 306 635 l 456 683 l 446 618 l 296 569 l 250 285 z "},"m":{"ha":1300,"x_min":94,"x_max":1292,"o":"m 213 742 l 300 742 l 310 660 q 600 753 457 753 q 719 724 676 753 q 785 640 761 696 q 933 723 851 693 q 1094 753 1015 753 q 1292 572 1292 753 q 1283 492 1292 539 l 1206 0 l 1096 0 l 1174 490 q 1178 533 1178 524 q 1043 653 1178 653 q 915 631 974 653 q 786 565 856 610 q 782 479 789 524 l 706 0 l 596 0 l 672 479 q 676 535 676 513 q 544 653 676 653 q 423 634 476 653 q 296 575 369 615 l 206 0 l 94 0 l 213 742 z "},"ṁ":{"ha":1300,"x_min":94,"x_max":1292,"o":"m 213 742 l 300 742 l 310 660 q 600 753 457 753 q 719 724 676 753 q 785 640 761 696 q 933 723 851 693 q 1094 753 1015 753 q 1292 572 1292 753 q 1283 492 1292 539 l 1206 0 l 1096 0 l 1174 490 q 1178 533 1178 524 q 1043 653 1178 653 q 915 631 974 653 q 786 565 856 610 q 782 479 789 524 l 706 0 l 596 0 l 672 479 q 676 535 676 513 q 544 653 676 653 q 423 634 476 653 q 296 575 369 615 l 206 0 l 94 0 l 213 742 m 767 917 q 749 935 749 917 l 749 939 l 765 1047 q 790 1069 769 1069 l 842 1069 q 860 1051 860 1069 l 860 1047 l 843 939 q 835 923 842 929 q 818 917 828 917 l 767 917 z "},"ṃ":{"ha":1300,"x_min":94,"x_max":1292,"o":"m 213 742 l 300 742 l 310 660 q 600 753 457 753 q 719 724 676 753 q 785 640 761 696 q 933 723 851 693 q 1094 753 1015 753 q 1292 572 1292 753 q 1283 492 1292 539 l 1206 0 l 1096 0 l 1174 490 q 1178 533 1178 524 q 1043 653 1178 653 q 915 631 974 653 q 786 565 856 610 q 782 479 789 524 l 706 0 l 596 0 l 672 479 q 676 535 676 513 q 544 653 676 653 q 423 634 476 653 q 296 575 369 615 l 206 0 l 94 0 l 213 742 m 569 -292 q 551 -274 551 -292 l 551 -269 l 568 -161 q 593 -139 572 -139 l 644 -139 q 663 -157 663 -139 l 663 -161 l 646 -269 q 638 -285 644 -279 q 621 -292 631 -292 l 569 -292 z "},"n":{"ha":800,"x_min":94,"x_max":790,"o":"m 213 742 l 300 742 l 310 660 q 447 727 372 701 q 599 753 521 753 q 744 705 697 753 q 790 578 790 657 q 776 449 790 531 l 706 0 l 596 0 l 665 444 q 676 535 676 511 q 544 653 676 653 q 420 634 475 653 q 296 575 365 615 l 206 0 l 94 0 l 213 742 z "},"ń":{"ha":800,"x_min":94,"x_max":790,"o":"m 213 742 l 300 742 l 310 660 q 447 727 372 701 q 599 753 521 753 q 744 705 697 753 q 790 578 790 657 q 776 449 790 531 l 706 0 l 596 0 l 665 444 q 676 535 676 511 q 544 653 676 653 q 420 634 475 653 q 296 575 365 615 l 206 0 l 94 0 l 213 742 m 667 1065 l 765 1065 l 567 876 l 497 876 l 667 1065 z "},"ň":{"ha":800,"x_min":94,"x_max":790,"o":"m 213 742 l 300 742 l 310 660 q 447 727 372 701 q 599 753 521 753 q 744 705 697 753 q 790 578 790 657 q 776 449 790 531 l 706 0 l 596 0 l 665 444 q 676 535 676 511 q 544 653 676 653 q 420 634 475 653 q 296 575 365 615 l 206 0 l 94 0 l 213 742 m 388 1064 l 454 1064 l 558 929 l 719 1064 l 788 1064 l 589 876 l 511 876 l 388 1064 z "},"ņ":{"ha":800,"x_min":94,"x_max":790,"o":"m 213 742 l 300 742 l 310 660 q 447 727 372 701 q 599 753 521 753 q 744 705 697 753 q 790 578 790 657 q 776 449 790 531 l 706 0 l 596 0 l 665 444 q 676 535 676 511 q 544 653 676 653 q 420 634 475 653 q 296 575 365 615 l 206 0 l 94 0 l 213 742 m 243 -236 l 285 -229 q 344 -213 322 -224 q 380 -174 365 -203 q 403 -87 394 -144 l 471 -87 q 440 -201 460 -160 q 385 -261 421 -242 q 288 -281 349 -281 l 235 -281 l 243 -236 z "},"ṅ":{"ha":800,"x_min":94,"x_max":790,"o":"m 213 742 l 300 742 l 310 660 q 447 727 372 701 q 599 753 521 753 q 744 705 697 753 q 790 578 790 657 q 776 449 790 531 l 706 0 l 596 0 l 665 444 q 676 535 676 511 q 544 653 676 653 q 420 634 475 653 q 296 575 365 615 l 206 0 l 94 0 l 213 742 m 321 -292 q 303 -274 303 -292 l 303 -269 l 319 -161 q 344 -139 324 -139 l 396 -139 q 414 -157 414 -139 l 414 -161 l 397 -269 q 389 -285 396 -279 q 372 -292 382 -292 l 321 -292 z "},"ṇ":{"ha":800,"x_min":94,"x_max":790,"o":"m 213 742 l 300 742 l 310 660 q 447 727 372 701 q 599 753 521 753 q 744 705 697 753 q 790 578 790 657 q 776 449 790 531 l 706 0 l 596 0 l 665 444 q 676 535 676 511 q 544 653 676 653 q 420 634 475 653 q 296 575 365 615 l 206 0 l 94 0 l 213 742 m 321 -292 q 303 -274 303 -292 l 303 -269 l 319 -161 q 344 -139 324 -139 l 396 -139 q 414 -157 414 -139 l 414 -161 l 397 -269 q 389 -285 396 -279 q 372 -292 382 -292 l 321 -292 z "},"ŋ":{"ha":800,"x_min":94,"x_max":790,"o":"m 790 578 q 776 449 790 531 l 713 42 l 703 -21 q 624 -216 685 -136 q 474 -329 564 -296 l 383 -329 q 522 -210 469 -283 q 592 -22 574 -136 l 599 17 l 665 444 q 676 535 676 511 q 544 653 676 653 q 420 634 475 653 q 296 575 365 615 l 206 0 l 94 0 l 213 742 l 300 742 l 310 660 q 447 727 372 701 q 599 753 521 753 q 744 705 697 753 q 790 578 790 657 z "},"ṉ":{"ha":800,"x_min":94,"x_max":790,"o":"m 213 742 l 300 742 l 310 660 q 447 727 372 701 q 599 753 521 753 q 744 705 697 753 q 790 578 790 657 q 776 449 790 531 l 706 0 l 596 0 l 665 444 q 676 535 676 511 q 544 653 676 653 q 420 634 475 653 q 296 575 365 615 l 206 0 l 94 0 l 213 742 m 193 -196 l 561 -196 l 550 -261 l 182 -261 l 193 -196 z "},"ñ":{"ha":800,"x_min":94,"x_max":825,"o":"m 213 742 l 300 742 l 310 660 q 447 727 372 701 q 599 753 521 753 q 744 705 697 753 q 790 578 790 657 q 776 449 790 531 l 706 0 l 596 0 l 665 444 q 676 535 676 511 q 544 653 676 653 q 420 634 475 653 q 296 575 365 615 l 206 0 l 94 0 l 213 742 m 313 901 q 369 1013 326 978 q 468 1047 413 1047 q 523 1036 499 1047 q 583 1003 547 1025 q 633 974 613 983 q 675 965 654 965 q 738 988 713 965 q 769 1050 763 1010 l 825 1050 q 772 940 810 978 q 672 903 733 903 q 620 913 644 903 q 560 946 596 924 q 506 975 526 965 q 464 985 486 985 q 403 963 429 985 q 369 901 376 942 l 313 901 z "},"o":{"ha":786,"x_min":119,"x_max":785,"o":"m 392 -8 q 190 51 260 -8 q 119 243 119 111 q 131 379 119 304 q 199 606 154 526 q 317 718 243 686 q 511 750 390 750 q 723 687 661 750 q 785 489 785 624 q 771 342 785 432 q 705 130 750 206 q 585 23 660 54 q 392 -8 511 -8 m 406 82 q 533 104 485 82 q 613 186 582 126 q 661 360 643 246 q 674 493 674 439 q 633 623 674 585 q 496 661 593 661 q 365 637 414 661 q 288 548 317 613 q 239 360 258 483 q 228 247 228 290 q 273 117 228 151 q 406 82 318 82 z "},"ó":{"ha":786,"x_min":119,"x_max":785,"o":"m 392 -8 q 190 51 260 -8 q 119 243 119 111 q 131 379 119 304 q 199 606 154 526 q 317 718 243 686 q 511 750 390 750 q 723 687 661 750 q 785 489 785 624 q 771 342 785 432 q 705 130 750 206 q 585 23 660 54 q 392 -8 511 -8 m 406 82 q 533 104 485 82 q 613 186 582 126 q 661 360 643 246 q 674 493 674 439 q 633 623 674 585 q 496 661 593 661 q 365 637 414 661 q 288 548 317 613 q 239 360 258 483 q 228 247 228 290 q 273 117 228 151 q 406 82 318 82 m 654 1065 l 753 1065 l 554 876 l 485 876 l 654 1065 z "},"ŏ":{"ha":786,"x_min":119,"x_max":785,"o":"m 392 -8 q 190 51 260 -8 q 119 243 119 111 q 131 379 119 304 q 199 606 154 526 q 317 718 243 686 q 511 750 390 750 q 723 687 661 750 q 785 489 785 624 q 771 342 785 432 q 705 130 750 206 q 585 23 660 54 q 392 -8 511 -8 m 406 82 q 533 104 485 82 q 613 186 582 126 q 661 360 643 246 q 674 493 674 439 q 633 623 674 585 q 496 661 593 661 q 365 637 414 661 q 288 548 317 613 q 239 360 258 483 q 228 247 228 290 q 273 117 228 151 q 406 82 318 82 m 528 874 q 416 908 458 874 q 374 1019 374 943 q 375 1047 374 1035 q 378 1069 376 1060 l 431 1069 q 428 1033 428 1044 q 458 952 428 978 q 535 926 488 926 q 635 960 593 926 q 689 1069 678 994 l 743 1069 q 669 919 726 965 q 528 874 611 874 z "},"ô":{"ha":786,"x_min":119,"x_max":785,"o":"m 392 -8 q 190 51 260 -8 q 119 243 119 111 q 131 379 119 304 q 199 606 154 526 q 317 718 243 686 q 511 750 390 750 q 723 687 661 750 q 785 489 785 624 q 771 342 785 432 q 705 130 750 206 q 585 23 660 54 q 392 -8 511 -8 m 406 82 q 533 104 485 82 q 613 186 582 126 q 661 360 643 246 q 674 493 674 439 q 633 623 674 585 q 496 661 593 661 q 365 637 414 661 q 288 548 317 613 q 239 360 258 483 q 228 247 228 290 q 273 117 228 151 q 406 82 318 82 m 526 1064 l 604 1064 l 728 876 l 661 876 l 556 1011 l 396 876 l 328 876 l 526 1064 z "},"ố":{"ha":786,"x_min":119,"x_max":894,"o":"m 392 -8 q 190 51 260 -8 q 119 243 119 111 q 131 379 119 304 q 199 606 154 526 q 317 718 243 686 q 511 750 390 750 q 723 687 661 750 q 785 489 785 624 q 771 342 785 432 q 705 130 750 206 q 585 23 660 54 q 392 -8 511 -8 m 406 82 q 533 104 485 82 q 613 186 582 126 q 661 360 643 246 q 674 493 674 439 q 633 623 674 585 q 496 661 593 661 q 365 637 414 661 q 288 548 317 613 q 239 360 258 483 q 228 247 228 290 q 273 117 228 151 q 406 82 318 82 m 806 1163 l 894 1163 l 715 983 l 656 983 l 806 1163 m 501 1013 l 581 1013 l 713 876 l 646 876 l 532 961 l 379 876 l 313 876 l 501 1013 z "},"ộ":{"ha":786,"x_min":119,"x_max":785,"o":"m 392 -8 q 190 51 260 -8 q 119 243 119 111 q 131 379 119 304 q 199 606 154 526 q 317 718 243 686 q 511 750 390 750 q 723 687 661 750 q 785 489 785 624 q 771 342 785 432 q 705 130 750 206 q 585 23 660 54 q 392 -8 511 -8 m 406 82 q 533 104 485 82 q 613 186 582 126 q 661 360 643 246 q 674 493 674 439 q 633 623 674 585 q 496 661 593 661 q 365 637 414 661 q 288 548 317 613 q 239 360 258 483 q 228 247 228 290 q 273 117 228 151 q 406 82 318 82 m 526 1064 l 604 1064 l 728 876 l 661 876 l 556 1011 l 396 876 l 328 876 l 526 1064 m 308 -292 q 290 -274 290 -292 l 290 -269 l 307 -161 q 332 -139 311 -139 l 383 -139 q 401 -157 401 -139 l 401 -161 l 385 -269 q 376 -285 383 -279 q 360 -292 369 -292 l 308 -292 z "},"ồ":{"ha":786,"x_min":119,"x_max":785,"o":"m 392 -8 q 190 51 260 -8 q 119 243 119 111 q 131 379 119 304 q 199 606 154 526 q 317 718 243 686 q 511 750 390 750 q 723 687 661 750 q 785 489 785 624 q 771 342 785 432 q 705 130 750 206 q 585 23 660 54 q 392 -8 511 -8 m 406 82 q 533 104 485 82 q 613 186 582 126 q 661 360 643 246 q 674 493 674 439 q 633 623 674 585 q 496 661 593 661 q 365 637 414 661 q 288 548 317 613 q 239 360 258 483 q 228 247 228 290 q 273 117 228 151 q 406 82 318 82 m 232 1163 l 322 1163 l 415 983 l 354 983 l 232 1163 m 494 1013 l 572 1013 l 704 876 l 638 876 l 524 961 l 372 876 l 304 876 l 494 1013 z "},"ổ":{"ha":786,"x_min":119,"x_max":826,"o":"m 392 -8 q 190 51 260 -8 q 119 243 119 111 q 131 379 119 304 q 199 606 154 526 q 317 718 243 686 q 511 750 390 750 q 723 687 661 750 q 785 489 785 624 q 771 342 785 432 q 705 130 750 206 q 585 23 660 54 q 392 -8 511 -8 m 406 82 q 533 104 485 82 q 613 186 582 126 q 661 360 643 246 q 674 493 674 439 q 633 623 674 585 q 496 661 593 661 q 365 637 414 661 q 288 548 317 613 q 239 360 258 483 q 228 247 228 290 q 273 117 228 151 q 406 82 318 82 m 688 994 q 769 1078 769 1021 q 719 1115 769 1115 q 668 1107 690 1115 l 675 1154 q 739 1164 704 1164 q 826 1089 826 1164 q 681 949 826 989 l 688 994 m 506 1013 l 585 1013 l 717 876 l 650 876 l 536 961 l 383 876 l 317 876 l 506 1013 z "},"ỗ":{"ha":786,"x_min":119,"x_max":794,"o":"m 392 -8 q 190 51 260 -8 q 119 243 119 111 q 131 379 119 304 q 199 606 154 526 q 317 718 243 686 q 511 750 390 750 q 723 687 661 750 q 785 489 785 624 q 771 342 785 432 q 705 130 750 206 q 585 23 660 54 q 392 -8 511 -8 m 406 82 q 533 104 485 82 q 613 186 582 126 q 661 360 643 246 q 674 493 674 439 q 633 623 674 585 q 496 661 593 661 q 365 637 414 661 q 288 548 317 613 q 239 360 258 483 q 228 247 228 290 q 273 117 228 151 q 406 82 318 82 m 324 1078 q 464 1193 346 1193 q 513 1185 490 1193 q 568 1161 536 1176 q 615 1141 596 1147 q 654 1135 633 1135 q 710 1151 688 1135 q 738 1196 733 1167 l 794 1196 q 651 1078 768 1078 q 604 1085 626 1078 q 550 1108 582 1093 q 501 1129 519 1122 q 461 1136 482 1136 q 407 1121 429 1136 q 379 1078 385 1106 l 324 1078 m 507 1013 l 585 1013 l 715 876 l 649 876 l 535 961 l 383 876 l 315 876 l 507 1013 z "},"ȍ":{"ha":786,"x_min":119,"x_max":785,"o":"m 392 -8 q 190 51 260 -8 q 119 243 119 111 q 131 379 119 304 q 199 606 154 526 q 317 718 243 686 q 511 750 390 750 q 723 687 661 750 q 785 489 785 624 q 771 342 785 432 q 705 130 750 206 q 585 23 660 54 q 392 -8 511 -8 m 406 82 q 533 104 485 82 q 613 186 582 126 q 661 360 643 246 q 674 493 674 439 q 633 623 674 585 q 496 661 593 661 q 365 637 414 661 q 288 548 317 613 q 239 360 258 483 q 228 247 228 290 q 273 117 228 151 q 406 82 318 82 m 274 1065 l 368 1065 l 482 876 l 418 876 l 274 1065 m 476 1065 l 571 1065 l 685 876 l 621 876 l 476 1065 z "},"ö":{"ha":786,"x_min":119,"x_max":785,"o":"m 392 -8 q 190 51 260 -8 q 119 243 119 111 q 131 379 119 304 q 199 606 154 526 q 317 718 243 686 q 511 750 390 750 q 723 687 661 750 q 785 489 785 624 q 771 342 785 432 q 705 130 750 206 q 585 23 660 54 q 392 -8 511 -8 m 406 82 q 533 104 485 82 q 613 186 582 126 q 661 360 643 246 q 674 493 674 439 q 633 623 674 585 q 496 661 593 661 q 365 637 414 661 q 288 548 317 613 q 239 360 258 483 q 228 247 228 290 q 273 117 228 151 q 406 82 318 82 m 349 907 q 331 925 331 907 l 349 1038 q 374 1060 351 1060 l 425 1060 q 443 1042 443 1060 q 425 929 443 1049 q 417 913 424 919 q 400 907 410 907 l 349 907 m 632 907 q 614 925 614 907 l 632 1038 q 658 1060 635 1060 l 708 1060 q 726 1042 726 1060 l 708 929 q 700 913 707 919 q 683 907 693 907 l 632 907 z "},"ȫ":{"ha":786,"x_min":119,"x_max":785,"o":"m 392 -8 q 190 51 260 -8 q 119 243 119 111 q 131 379 119 304 q 199 606 154 526 q 317 718 243 686 q 511 750 390 750 q 723 687 661 750 q 785 489 785 624 q 771 342 785 432 q 705 130 750 206 q 585 23 660 54 q 392 -8 511 -8 m 406 82 q 533 104 485 82 q 613 186 582 126 q 661 360 643 246 q 674 493 674 439 q 633 623 674 585 q 496 661 593 661 q 365 637 414 661 q 288 548 317 613 q 239 360 258 483 q 228 247 228 290 q 273 117 228 151 q 406 82 318 82 m 347 897 q 329 915 329 897 l 347 1028 q 372 1050 350 1050 l 424 1050 q 442 1032 442 1050 q 424 919 442 1039 q 415 903 422 910 q 399 897 408 897 l 347 897 m 631 897 q 613 915 613 897 l 631 1028 q 657 1050 633 1050 l 707 1050 q 725 1032 725 1050 l 707 919 q 699 903 706 910 q 682 897 692 897 l 631 897 m 375 1207 l 743 1207 l 732 1142 l 364 1142 l 375 1207 z "},"ȱ":{"ha":786,"x_min":119,"x_max":785,"o":"m 392 -8 q 190 51 260 -8 q 119 243 119 111 q 131 379 119 304 q 199 606 154 526 q 317 718 243 686 q 511 750 390 750 q 723 687 661 750 q 785 489 785 624 q 771 342 785 432 q 705 130 750 206 q 585 23 660 54 q 392 -8 511 -8 m 406 82 q 533 104 485 82 q 613 186 582 126 q 661 360 643 246 q 674 493 674 439 q 633 623 674 585 q 496 661 593 661 q 365 637 414 661 q 288 548 317 613 q 239 360 258 483 q 228 247 228 290 q 273 117 228 151 q 406 82 318 82 m 503 903 q 485 921 485 903 l 485 925 l 501 1033 q 526 1056 506 1056 l 578 1056 q 596 1038 596 1056 l 596 1033 l 579 925 q 571 909 578 915 q 554 903 564 903 l 503 903 m 389 1207 l 757 1207 l 746 1142 l 378 1142 l 389 1207 z "},"ọ":{"ha":786,"x_min":119,"x_max":785,"o":"m 392 -8 q 190 51 260 -8 q 119 243 119 111 q 131 379 119 304 q 199 606 154 526 q 317 718 243 686 q 511 750 390 750 q 723 687 661 750 q 785 489 785 624 q 771 342 785 432 q 705 130 750 206 q 585 23 660 54 q 392 -8 511 -8 m 406 82 q 533 104 485 82 q 613 186 582 126 q 661 360 643 246 q 674 493 674 439 q 633 623 674 585 q 496 661 593 661 q 365 637 414 661 q 288 548 317 613 q 239 360 258 483 q 228 247 228 290 q 273 117 228 151 q 406 82 318 82 m 308 -292 q 290 -274 290 -292 l 290 -269 l 307 -161 q 332 -139 311 -139 l 383 -139 q 401 -157 401 -139 l 401 -161 l 385 -269 q 376 -285 383 -279 q 360 -292 369 -292 l 308 -292 z "},"ò":{"ha":786,"x_min":119,"x_max":785,"o":"m 392 -8 q 190 51 260 -8 q 119 243 119 111 q 131 379 119 304 q 199 606 154 526 q 317 718 243 686 q 511 750 390 750 q 723 687 661 750 q 785 489 785 624 q 771 342 785 432 q 705 130 750 206 q 585 23 660 54 q 392 -8 511 -8 m 406 82 q 533 104 485 82 q 613 186 582 126 q 661 360 643 246 q 674 493 674 439 q 633 623 674 585 q 496 661 593 661 q 365 637 414 661 q 288 548 317 613 q 239 360 258 483 q 228 247 228 290 q 273 117 228 151 q 406 82 318 82 m 379 1065 l 474 1065 l 588 876 l 524 876 l 379 1065 z "},"ỏ":{"ha":786,"x_min":119,"x_max":785,"o":"m 392 -8 q 190 51 260 -8 q 119 243 119 111 q 131 379 119 304 q 199 606 154 526 q 317 718 243 686 q 511 750 390 750 q 723 687 661 750 q 785 489 785 624 q 771 342 785 432 q 705 130 750 206 q 585 23 660 54 q 392 -8 511 -8 m 406 82 q 533 104 485 82 q 613 186 582 126 q 661 360 643 246 q 674 493 674 439 q 633 623 674 585 q 496 661 593 661 q 365 637 414 661 q 288 548 317 613 q 239 360 258 483 q 228 247 228 290 q 273 117 228 151 q 406 82 318 82 m 496 889 q 589 986 589 915 q 532 1032 589 1032 q 481 1024 506 1032 l 488 1071 q 554 1079 514 1079 q 650 994 650 1079 q 611 901 650 943 q 488 838 572 860 l 496 889 z "},"ơ":{"ha":803,"x_min":119,"x_max":903,"o":"m 903 899 q 840 744 888 797 q 728 682 793 690 q 785 489 785 619 q 771 342 785 432 q 705 130 750 206 q 585 23 660 54 q 392 -8 511 -8 q 190 51 260 -8 q 119 243 119 111 q 131 379 119 304 q 199 606 154 526 q 317 718 243 686 q 511 750 390 750 q 608 742 567 750 l 689 742 q 822 899 800 742 l 903 899 m 661 360 q 674 493 674 439 q 633 623 674 585 q 496 661 593 661 q 365 637 414 661 q 288 548 317 613 q 239 360 258 483 q 228 247 228 290 q 273 117 228 151 q 406 82 318 82 q 533 104 485 82 q 613 186 582 126 q 661 360 643 246 z "},"ớ":{"ha":803,"x_min":119,"x_max":903,"o":"m 903 899 q 840 744 888 797 q 728 682 793 690 q 785 489 785 619 q 771 342 785 432 q 705 130 750 206 q 585 23 660 54 q 392 -8 511 -8 q 190 51 260 -8 q 119 243 119 111 q 131 379 119 304 q 199 606 154 526 q 317 718 243 686 q 511 750 390 750 q 608 742 567 750 l 689 742 q 822 899 800 742 l 903 899 m 661 360 q 674 493 674 439 q 633 623 674 585 q 496 661 593 661 q 365 637 414 661 q 288 548 317 613 q 239 360 258 483 q 228 247 228 290 q 273 117 228 151 q 406 82 318 82 q 533 104 485 82 q 613 186 582 126 q 661 360 643 246 m 640 1065 l 739 1065 l 540 876 l 471 876 l 640 1065 z "},"ợ":{"ha":803,"x_min":119,"x_max":903,"o":"m 903 899 q 840 744 888 797 q 728 682 793 690 q 785 489 785 619 q 771 342 785 432 q 705 130 750 206 q 585 23 660 54 q 392 -8 511 -8 q 190 51 260 -8 q 119 243 119 111 q 131 379 119 304 q 199 606 154 526 q 317 718 243 686 q 511 750 390 750 q 608 742 567 750 l 689 742 q 822 899 800 742 l 903 899 m 661 360 q 674 493 674 439 q 633 623 674 585 q 496 661 593 661 q 365 637 414 661 q 288 548 317 613 q 239 360 258 483 q 228 247 228 290 q 273 117 228 151 q 406 82 318 82 q 533 104 485 82 q 613 186 582 126 q 661 360 643 246 m 321 -292 q 303 -274 303 -292 l 303 -269 l 319 -161 q 344 -139 324 -139 l 396 -139 q 414 -157 414 -139 l 414 -161 l 397 -269 q 389 -285 396 -279 q 372 -292 382 -292 l 321 -292 z "},"ờ":{"ha":803,"x_min":119,"x_max":903,"o":"m 903 899 q 840 744 888 797 q 728 682 793 690 q 785 489 785 619 q 771 342 785 432 q 705 130 750 206 q 585 23 660 54 q 392 -8 511 -8 q 190 51 260 -8 q 119 243 119 111 q 131 379 119 304 q 199 606 154 526 q 317 718 243 686 q 511 750 390 750 q 608 742 567 750 l 689 742 q 822 899 800 742 l 903 899 m 661 360 q 674 493 674 439 q 633 623 674 585 q 496 661 593 661 q 365 637 414 661 q 288 548 317 613 q 239 360 258 483 q 228 247 228 290 q 273 117 228 151 q 406 82 318 82 q 533 104 485 82 q 613 186 582 126 q 661 360 643 246 m 365 1065 l 460 1065 l 574 876 l 510 876 l 365 1065 z "},"ở":{"ha":803,"x_min":119,"x_max":903,"o":"m 903 899 q 840 744 888 797 q 728 682 793 690 q 785 489 785 619 q 771 342 785 432 q 705 130 750 206 q 585 23 660 54 q 392 -8 511 -8 q 190 51 260 -8 q 119 243 119 111 q 131 379 119 304 q 199 606 154 526 q 317 718 243 686 q 511 750 390 750 q 608 742 567 750 l 689 742 q 822 899 800 742 l 903 899 m 661 360 q 674 493 674 439 q 633 623 674 585 q 496 661 593 661 q 365 637 414 661 q 288 548 317 613 q 239 360 258 483 q 228 247 228 290 q 273 117 228 151 q 406 82 318 82 q 533 104 485 82 q 613 186 582 126 q 661 360 643 246 m 483 889 q 576 986 576 915 q 519 1032 576 1032 q 468 1024 493 1032 l 475 1071 q 542 1079 501 1079 q 638 994 638 1079 q 599 901 638 943 q 475 838 560 860 l 483 889 z "},"ỡ":{"ha":803,"x_min":119,"x_max":903,"o":"m 903 899 q 840 744 888 797 q 728 682 793 690 q 785 489 785 619 q 771 342 785 432 q 705 130 750 206 q 585 23 660 54 q 392 -8 511 -8 q 190 51 260 -8 q 119 243 119 111 q 131 379 119 304 q 199 606 154 526 q 317 718 243 686 q 511 750 390 750 q 608 742 567 750 l 689 742 q 822 899 800 742 l 903 899 m 661 360 q 674 493 674 439 q 633 623 674 585 q 496 661 593 661 q 365 637 414 661 q 288 548 317 613 q 239 360 258 483 q 228 247 228 290 q 273 117 228 151 q 406 82 318 82 q 533 104 485 82 q 613 186 582 126 q 661 360 643 246 m 286 901 q 343 1013 300 978 q 442 1047 386 1047 q 497 1036 472 1047 q 557 1003 521 1025 q 607 974 586 983 q 649 965 628 965 q 711 988 686 965 q 743 1050 736 1010 l 799 1050 q 745 940 783 978 q 646 903 707 903 q 594 913 618 903 q 533 946 569 924 q 480 975 500 965 q 438 985 460 985 q 376 963 403 985 q 343 901 350 942 l 286 901 z "},"ő":{"ha":786,"x_min":119,"x_max":836,"o":"m 392 -8 q 190 51 260 -8 q 119 243 119 111 q 131 379 119 304 q 199 606 154 526 q 317 718 243 686 q 511 750 390 750 q 723 687 661 750 q 785 489 785 624 q 771 342 785 432 q 705 130 750 206 q 585 23 660 54 q 392 -8 511 -8 m 406 82 q 533 104 485 82 q 613 186 582 126 q 661 360 643 246 q 674 493 674 439 q 633 623 674 585 q 496 661 593 661 q 365 637 414 661 q 288 548 317 613 q 239 360 258 483 q 228 247 228 290 q 273 117 228 151 q 406 82 318 82 m 539 1065 l 628 1065 l 433 876 l 369 876 l 539 1065 m 747 1065 l 836 1065 l 642 876 l 578 876 l 747 1065 z "},"ȏ":{"ha":786,"x_min":119,"x_max":785,"o":"m 392 -8 q 190 51 260 -8 q 119 243 119 111 q 131 379 119 304 q 199 606 154 526 q 317 718 243 686 q 511 750 390 750 q 723 687 661 750 q 785 489 785 624 q 771 342 785 432 q 705 130 750 206 q 585 23 660 54 q 392 -8 511 -8 m 406 82 q 533 104 485 82 q 613 186 582 126 q 661 360 643 246 q 674 493 674 439 q 633 623 674 585 q 496 661 593 661 q 365 637 414 661 q 288 548 317 613 q 239 360 258 483 q 228 247 228 290 q 273 117 228 151 q 406 82 318 82 m 336 875 q 410 1025 353 979 q 551 1071 468 1071 q 663 1036 621 1071 q 706 925 706 1001 q 704 897 706 910 q 701 875 703 885 l 649 875 q 651 913 651 900 q 622 993 651 967 q 543 1019 592 1019 q 444 985 486 1019 q 390 875 401 950 l 336 875 z "},"ō":{"ha":786,"x_min":119,"x_max":785,"o":"m 392 -8 q 190 51 260 -8 q 119 243 119 111 q 131 379 119 304 q 199 606 154 526 q 317 718 243 686 q 511 750 390 750 q 723 687 661 750 q 785 489 785 624 q 771 342 785 432 q 705 130 750 206 q 585 23 660 54 q 392 -8 511 -8 m 406 82 q 533 104 485 82 q 613 186 582 126 q 661 360 643 246 q 674 493 674 439 q 633 623 674 585 q 496 661 593 661 q 365 637 414 661 q 288 548 317 613 q 239 360 258 483 q 228 247 228 290 q 273 117 228 151 q 406 82 318 82 m 365 999 l 733 999 l 722 933 l 354 933 l 365 999 z "},"ṓ":{"ha":786,"x_min":119,"x_max":785,"o":"m 392 -8 q 190 51 260 -8 q 119 243 119 111 q 131 379 119 304 q 199 606 154 526 q 317 718 243 686 q 511 750 390 750 q 723 687 661 750 q 785 489 785 624 q 771 342 785 432 q 705 130 750 206 q 585 23 660 54 q 392 -8 511 -8 m 406 82 q 533 104 485 82 q 613 186 582 126 q 661 360 643 246 q 674 493 674 439 q 633 623 674 585 q 496 661 593 661 q 365 637 414 661 q 288 548 317 613 q 239 360 258 483 q 228 247 228 290 q 273 117 228 151 q 406 82 318 82 m 365 999 l 733 999 l 722 933 l 354 933 l 365 999 m 686 1250 l 785 1250 l 586 1061 l 517 1061 l 686 1250 z "},"ṑ":{"ha":786,"x_min":119,"x_max":785,"o":"m 392 -8 q 190 51 260 -8 q 119 243 119 111 q 131 379 119 304 q 199 606 154 526 q 317 718 243 686 q 511 750 390 750 q 723 687 661 750 q 785 489 785 624 q 771 342 785 432 q 705 130 750 206 q 585 23 660 54 q 392 -8 511 -8 m 406 82 q 533 104 485 82 q 613 186 582 126 q 661 360 643 246 q 674 493 674 439 q 633 623 674 585 q 496 661 593 661 q 365 637 414 661 q 288 548 317 613 q 239 360 258 483 q 228 247 228 290 q 273 117 228 151 q 406 82 318 82 m 365 999 l 733 999 l 722 933 l 354 933 l 365 999 m 379 1250 l 474 1250 l 588 1061 l 524 1061 l 379 1250 z "},"ǫ":{"ha":786,"x_min":119,"x_max":785,"o":"m 511 750 q 723 687 661 750 q 785 489 785 624 q 771 342 785 432 q 683 98 744 176 q 506 0 622 19 q 426 -62 454 -26 q 399 -128 399 -99 q 425 -183 399 -164 q 501 -203 451 -203 l 510 -203 l 501 -256 q 465 -260 485 -260 q 369 -231 403 -260 q 336 -157 336 -203 q 365 -76 336 -115 q 450 -7 393 -36 q 392 -8 432 -8 q 190 51 260 -8 q 119 243 119 111 q 131 379 119 304 q 199 606 154 526 q 317 718 243 686 q 511 750 390 750 m 661 360 q 674 493 674 439 q 633 623 674 585 q 496 661 593 661 q 365 637 414 661 q 288 548 317 613 q 239 360 258 483 q 228 247 228 290 q 273 117 228 151 q 406 82 318 82 q 533 104 485 82 q 613 186 582 126 q 661 360 643 246 z "},"ø":{"ha":785,"x_min":72,"x_max":829,"o":"m 749 656 q 785 489 785 596 q 771 342 785 432 q 705 130 750 206 q 585 23 660 54 q 392 -8 511 -8 q 185 56 253 -8 l 132 0 l 72 0 l 157 90 q 119 243 119 147 q 131 379 119 304 q 199 606 154 526 q 317 718 243 686 q 511 750 390 750 q 721 689 656 750 l 769 742 l 829 742 l 749 656 m 228 247 q 238 175 228 203 l 644 610 q 589 649 625 636 q 496 661 553 661 q 365 637 414 661 q 288 548 317 613 q 239 360 258 483 q 228 247 228 290 m 674 493 q 665 567 674 536 l 257 133 q 316 93 279 104 q 406 82 353 82 q 533 104 485 82 q 613 186 582 126 q 661 360 643 246 q 674 493 674 439 z "},"ǿ":{"ha":785,"x_min":72,"x_max":829,"o":"m 749 656 q 785 489 785 596 q 771 342 785 432 q 705 130 750 206 q 585 23 660 54 q 392 -8 511 -8 q 185 56 253 -8 l 132 0 l 72 0 l 157 90 q 119 243 119 147 q 131 379 119 304 q 199 606 154 526 q 317 718 243 686 q 511 750 390 750 q 721 689 656 750 l 769 742 l 829 742 l 749 656 m 228 247 q 238 175 228 203 l 644 610 q 589 649 625 636 q 496 661 553 661 q 365 637 414 661 q 288 548 317 613 q 239 360 258 483 q 228 247 228 290 m 674 493 q 665 567 674 536 l 257 133 q 316 93 279 104 q 406 82 353 82 q 533 104 485 82 q 613 186 582 126 q 661 360 643 246 q 674 493 674 439 m 613 1065 l 711 1065 l 513 876 l 443 876 l 613 1065 z "},"õ":{"ha":786,"x_min":119,"x_max":813,"o":"m 392 -8 q 190 51 260 -8 q 119 243 119 111 q 131 379 119 304 q 199 606 154 526 q 317 718 243 686 q 511 750 390 750 q 723 687 661 750 q 785 489 785 624 q 771 342 785 432 q 705 130 750 206 q 585 23 660 54 q 392 -8 511 -8 m 406 82 q 533 104 485 82 q 613 186 582 126 q 661 360 643 246 q 674 493 674 439 q 633 623 674 585 q 496 661 593 661 q 365 637 414 661 q 288 548 317 613 q 239 360 258 483 q 228 247 228 290 q 273 117 228 151 q 406 82 318 82 m 300 901 q 357 1013 314 978 q 456 1047 400 1047 q 510 1036 486 1047 q 571 1003 535 1025 q 621 974 600 983 q 663 965 642 965 q 725 988 700 965 q 757 1050 750 1010 l 813 1050 q 759 940 797 978 q 660 903 721 903 q 608 913 632 903 q 547 946 583 924 q 494 975 514 965 q 451 985 474 985 q 390 963 417 985 q 357 901 364 942 l 300 901 z "}}}
